%TF.GenerationSoftware,KiCad,Pcbnew,(5.1.6-0-10_14)*%
%TF.CreationDate,2020-11-10T16:11:35-05:00*%
%TF.ProjectId,honeylight,686f6e65-796c-4696-9768-742e6b696361,0.1.0*%
%TF.SameCoordinates,Original*%
%TF.FileFunction,Copper,L2,Bot*%
%TF.FilePolarity,Positive*%
%FSLAX46Y46*%
G04 Gerber Fmt 4.6, Leading zero omitted, Abs format (unit mm)*
G04 Created by KiCad (PCBNEW (5.1.6-0-10_14)) date 2020-11-10 16:11:35*
%MOMM*%
%LPD*%
G01*
G04 APERTURE LIST*
%TA.AperFunction,ComponentPad*%
%ADD10O,2.190000X1.740000*%
%TD*%
%TA.AperFunction,ComponentPad*%
%ADD11C,6.400000*%
%TD*%
%TA.AperFunction,ViaPad*%
%ADD12C,0.600000*%
%TD*%
%TA.AperFunction,ViaPad*%
%ADD13C,0.800000*%
%TD*%
%TA.AperFunction,Conductor*%
%ADD14C,1.000000*%
%TD*%
%TA.AperFunction,Conductor*%
%ADD15C,0.600000*%
%TD*%
%TA.AperFunction,Conductor*%
%ADD16C,0.400000*%
%TD*%
%TA.AperFunction,Conductor*%
%ADD17C,0.300000*%
%TD*%
G04 APERTURE END LIST*
D10*
%TO.P,J1,4*%
%TO.N,/+5V-Pre-Fuse*%
X56000000Y-73620000D03*
%TO.P,J1,3*%
%TO.N,/CI-Raw*%
X56000000Y-71080000D03*
%TO.P,J1,2*%
%TO.N,/DI-Raw*%
X56000000Y-68540000D03*
%TO.P,J1,1*%
%TO.N,GND*%
%TA.AperFunction,ComponentPad*%
G36*
G01*
X55154999Y-65130000D02*
X56845001Y-65130000D01*
G75*
G02*
X57095000Y-65379999I0J-249999D01*
G01*
X57095000Y-66620001D01*
G75*
G02*
X56845001Y-66870000I-249999J0D01*
G01*
X55154999Y-66870000D01*
G75*
G02*
X54905000Y-66620001I0J249999D01*
G01*
X54905000Y-65379999D01*
G75*
G02*
X55154999Y-65130000I249999J0D01*
G01*
G37*
%TD.AperFunction*%
%TD*%
%TO.P,U1,14*%
%TO.N,+5V*%
%TA.AperFunction,SMDPad,CuDef*%
G36*
G01*
X76500000Y-59960000D02*
X76500000Y-59660000D01*
G75*
G02*
X76650000Y-59510000I150000J0D01*
G01*
X78300000Y-59510000D01*
G75*
G02*
X78450000Y-59660000I0J-150000D01*
G01*
X78450000Y-59960000D01*
G75*
G02*
X78300000Y-60110000I-150000J0D01*
G01*
X76650000Y-60110000D01*
G75*
G02*
X76500000Y-59960000I0J150000D01*
G01*
G37*
%TD.AperFunction*%
%TO.P,U1,13*%
%TO.N,GND*%
%TA.AperFunction,SMDPad,CuDef*%
G36*
G01*
X76500000Y-58690000D02*
X76500000Y-58390000D01*
G75*
G02*
X76650000Y-58240000I150000J0D01*
G01*
X78300000Y-58240000D01*
G75*
G02*
X78450000Y-58390000I0J-150000D01*
G01*
X78450000Y-58690000D01*
G75*
G02*
X78300000Y-58840000I-150000J0D01*
G01*
X76650000Y-58840000D01*
G75*
G02*
X76500000Y-58690000I0J150000D01*
G01*
G37*
%TD.AperFunction*%
%TO.P,U1,12*%
%TA.AperFunction,SMDPad,CuDef*%
G36*
G01*
X76500000Y-57420000D02*
X76500000Y-57120000D01*
G75*
G02*
X76650000Y-56970000I150000J0D01*
G01*
X78300000Y-56970000D01*
G75*
G02*
X78450000Y-57120000I0J-150000D01*
G01*
X78450000Y-57420000D01*
G75*
G02*
X78300000Y-57570000I-150000J0D01*
G01*
X76650000Y-57570000D01*
G75*
G02*
X76500000Y-57420000I0J150000D01*
G01*
G37*
%TD.AperFunction*%
%TO.P,U1,11*%
%TO.N,Net-(U1-Pad11)*%
%TA.AperFunction,SMDPad,CuDef*%
G36*
G01*
X76500000Y-56150000D02*
X76500000Y-55850000D01*
G75*
G02*
X76650000Y-55700000I150000J0D01*
G01*
X78300000Y-55700000D01*
G75*
G02*
X78450000Y-55850000I0J-150000D01*
G01*
X78450000Y-56150000D01*
G75*
G02*
X78300000Y-56300000I-150000J0D01*
G01*
X76650000Y-56300000D01*
G75*
G02*
X76500000Y-56150000I0J150000D01*
G01*
G37*
%TD.AperFunction*%
%TO.P,U1,10*%
%TO.N,GND*%
%TA.AperFunction,SMDPad,CuDef*%
G36*
G01*
X76500000Y-54880000D02*
X76500000Y-54580000D01*
G75*
G02*
X76650000Y-54430000I150000J0D01*
G01*
X78300000Y-54430000D01*
G75*
G02*
X78450000Y-54580000I0J-150000D01*
G01*
X78450000Y-54880000D01*
G75*
G02*
X78300000Y-55030000I-150000J0D01*
G01*
X76650000Y-55030000D01*
G75*
G02*
X76500000Y-54880000I0J150000D01*
G01*
G37*
%TD.AperFunction*%
%TO.P,U1,9*%
%TA.AperFunction,SMDPad,CuDef*%
G36*
G01*
X76500000Y-53610000D02*
X76500000Y-53310000D01*
G75*
G02*
X76650000Y-53160000I150000J0D01*
G01*
X78300000Y-53160000D01*
G75*
G02*
X78450000Y-53310000I0J-150000D01*
G01*
X78450000Y-53610000D01*
G75*
G02*
X78300000Y-53760000I-150000J0D01*
G01*
X76650000Y-53760000D01*
G75*
G02*
X76500000Y-53610000I0J150000D01*
G01*
G37*
%TD.AperFunction*%
%TO.P,U1,8*%
%TO.N,Net-(U1-Pad8)*%
%TA.AperFunction,SMDPad,CuDef*%
G36*
G01*
X76500000Y-52340000D02*
X76500000Y-52040000D01*
G75*
G02*
X76650000Y-51890000I150000J0D01*
G01*
X78300000Y-51890000D01*
G75*
G02*
X78450000Y-52040000I0J-150000D01*
G01*
X78450000Y-52340000D01*
G75*
G02*
X78300000Y-52490000I-150000J0D01*
G01*
X76650000Y-52490000D01*
G75*
G02*
X76500000Y-52340000I0J150000D01*
G01*
G37*
%TD.AperFunction*%
%TO.P,U1,7*%
%TO.N,GND*%
%TA.AperFunction,SMDPad,CuDef*%
G36*
G01*
X71550000Y-52340000D02*
X71550000Y-52040000D01*
G75*
G02*
X71700000Y-51890000I150000J0D01*
G01*
X73350000Y-51890000D01*
G75*
G02*
X73500000Y-52040000I0J-150000D01*
G01*
X73500000Y-52340000D01*
G75*
G02*
X73350000Y-52490000I-150000J0D01*
G01*
X71700000Y-52490000D01*
G75*
G02*
X71550000Y-52340000I0J150000D01*
G01*
G37*
%TD.AperFunction*%
%TO.P,U1,6*%
%TO.N,/CI*%
%TA.AperFunction,SMDPad,CuDef*%
G36*
G01*
X71550000Y-53610000D02*
X71550000Y-53310000D01*
G75*
G02*
X71700000Y-53160000I150000J0D01*
G01*
X73350000Y-53160000D01*
G75*
G02*
X73500000Y-53310000I0J-150000D01*
G01*
X73500000Y-53610000D01*
G75*
G02*
X73350000Y-53760000I-150000J0D01*
G01*
X71700000Y-53760000D01*
G75*
G02*
X71550000Y-53610000I0J150000D01*
G01*
G37*
%TD.AperFunction*%
%TO.P,U1,5*%
%TO.N,/CI-Limited*%
%TA.AperFunction,SMDPad,CuDef*%
G36*
G01*
X71550000Y-54880000D02*
X71550000Y-54580000D01*
G75*
G02*
X71700000Y-54430000I150000J0D01*
G01*
X73350000Y-54430000D01*
G75*
G02*
X73500000Y-54580000I0J-150000D01*
G01*
X73500000Y-54880000D01*
G75*
G02*
X73350000Y-55030000I-150000J0D01*
G01*
X71700000Y-55030000D01*
G75*
G02*
X71550000Y-54880000I0J150000D01*
G01*
G37*
%TD.AperFunction*%
%TO.P,U1,4*%
%TO.N,+5V*%
%TA.AperFunction,SMDPad,CuDef*%
G36*
G01*
X71550000Y-56150000D02*
X71550000Y-55850000D01*
G75*
G02*
X71700000Y-55700000I150000J0D01*
G01*
X73350000Y-55700000D01*
G75*
G02*
X73500000Y-55850000I0J-150000D01*
G01*
X73500000Y-56150000D01*
G75*
G02*
X73350000Y-56300000I-150000J0D01*
G01*
X71700000Y-56300000D01*
G75*
G02*
X71550000Y-56150000I0J150000D01*
G01*
G37*
%TD.AperFunction*%
%TO.P,U1,3*%
%TO.N,/DI*%
%TA.AperFunction,SMDPad,CuDef*%
G36*
G01*
X71550000Y-57420000D02*
X71550000Y-57120000D01*
G75*
G02*
X71700000Y-56970000I150000J0D01*
G01*
X73350000Y-56970000D01*
G75*
G02*
X73500000Y-57120000I0J-150000D01*
G01*
X73500000Y-57420000D01*
G75*
G02*
X73350000Y-57570000I-150000J0D01*
G01*
X71700000Y-57570000D01*
G75*
G02*
X71550000Y-57420000I0J150000D01*
G01*
G37*
%TD.AperFunction*%
%TO.P,U1,2*%
%TO.N,/DI-Limited*%
%TA.AperFunction,SMDPad,CuDef*%
G36*
G01*
X71550000Y-58690000D02*
X71550000Y-58390000D01*
G75*
G02*
X71700000Y-58240000I150000J0D01*
G01*
X73350000Y-58240000D01*
G75*
G02*
X73500000Y-58390000I0J-150000D01*
G01*
X73500000Y-58690000D01*
G75*
G02*
X73350000Y-58840000I-150000J0D01*
G01*
X71700000Y-58840000D01*
G75*
G02*
X71550000Y-58690000I0J150000D01*
G01*
G37*
%TD.AperFunction*%
%TO.P,U1,1*%
%TO.N,+5V*%
%TA.AperFunction,SMDPad,CuDef*%
G36*
G01*
X71550000Y-59960000D02*
X71550000Y-59660000D01*
G75*
G02*
X71700000Y-59510000I150000J0D01*
G01*
X73350000Y-59510000D01*
G75*
G02*
X73500000Y-59660000I0J-150000D01*
G01*
X73500000Y-59960000D01*
G75*
G02*
X73350000Y-60110000I-150000J0D01*
G01*
X71700000Y-60110000D01*
G75*
G02*
X71550000Y-59960000I0J150000D01*
G01*
G37*
%TD.AperFunction*%
%TD*%
%TO.P,R2,2*%
%TO.N,/DI-Raw*%
%TA.AperFunction,SMDPad,CuDef*%
G36*
G01*
X67550000Y-56543750D02*
X67550000Y-57456250D01*
G75*
G02*
X67306250Y-57700000I-243750J0D01*
G01*
X66818750Y-57700000D01*
G75*
G02*
X66575000Y-57456250I0J243750D01*
G01*
X66575000Y-56543750D01*
G75*
G02*
X66818750Y-56300000I243750J0D01*
G01*
X67306250Y-56300000D01*
G75*
G02*
X67550000Y-56543750I0J-243750D01*
G01*
G37*
%TD.AperFunction*%
%TO.P,R2,1*%
%TO.N,/DI-Limited*%
%TA.AperFunction,SMDPad,CuDef*%
G36*
G01*
X69425000Y-56543750D02*
X69425000Y-57456250D01*
G75*
G02*
X69181250Y-57700000I-243750J0D01*
G01*
X68693750Y-57700000D01*
G75*
G02*
X68450000Y-57456250I0J243750D01*
G01*
X68450000Y-56543750D01*
G75*
G02*
X68693750Y-56300000I243750J0D01*
G01*
X69181250Y-56300000D01*
G75*
G02*
X69425000Y-56543750I0J-243750D01*
G01*
G37*
%TD.AperFunction*%
%TD*%
%TO.P,R1,2*%
%TO.N,/CI-Raw*%
%TA.AperFunction,SMDPad,CuDef*%
G36*
G01*
X67550000Y-54543750D02*
X67550000Y-55456250D01*
G75*
G02*
X67306250Y-55700000I-243750J0D01*
G01*
X66818750Y-55700000D01*
G75*
G02*
X66575000Y-55456250I0J243750D01*
G01*
X66575000Y-54543750D01*
G75*
G02*
X66818750Y-54300000I243750J0D01*
G01*
X67306250Y-54300000D01*
G75*
G02*
X67550000Y-54543750I0J-243750D01*
G01*
G37*
%TD.AperFunction*%
%TO.P,R1,1*%
%TO.N,/CI-Limited*%
%TA.AperFunction,SMDPad,CuDef*%
G36*
G01*
X69425000Y-54543750D02*
X69425000Y-55456250D01*
G75*
G02*
X69181250Y-55700000I-243750J0D01*
G01*
X68693750Y-55700000D01*
G75*
G02*
X68450000Y-55456250I0J243750D01*
G01*
X68450000Y-54543750D01*
G75*
G02*
X68693750Y-54300000I243750J0D01*
G01*
X69181250Y-54300000D01*
G75*
G02*
X69425000Y-54543750I0J-243750D01*
G01*
G37*
%TD.AperFunction*%
%TD*%
%TO.P,F1,2*%
%TO.N,/+5V-Pre-Fuse*%
%TA.AperFunction,SMDPad,CuDef*%
G36*
G01*
X57450001Y-77425000D02*
X54549999Y-77425000D01*
G75*
G02*
X54300000Y-77175001I0J249999D01*
G01*
X54300000Y-76549999D01*
G75*
G02*
X54549999Y-76300000I249999J0D01*
G01*
X57450001Y-76300000D01*
G75*
G02*
X57700000Y-76549999I0J-249999D01*
G01*
X57700000Y-77175001D01*
G75*
G02*
X57450001Y-77425000I-249999J0D01*
G01*
G37*
%TD.AperFunction*%
%TO.P,F1,1*%
%TO.N,+5V*%
%TA.AperFunction,SMDPad,CuDef*%
G36*
G01*
X57450001Y-81700000D02*
X54549999Y-81700000D01*
G75*
G02*
X54300000Y-81450001I0J249999D01*
G01*
X54300000Y-80824999D01*
G75*
G02*
X54549999Y-80575000I249999J0D01*
G01*
X57450001Y-80575000D01*
G75*
G02*
X57700000Y-80824999I0J-249999D01*
G01*
X57700000Y-81450001D01*
G75*
G02*
X57450001Y-81700000I-249999J0D01*
G01*
G37*
%TD.AperFunction*%
%TD*%
%TO.P,C6,2*%
%TO.N,+5V*%
%TA.AperFunction,SMDPad,CuDef*%
G36*
G01*
X79343750Y-59350000D02*
X80256250Y-59350000D01*
G75*
G02*
X80500000Y-59593750I0J-243750D01*
G01*
X80500000Y-60081250D01*
G75*
G02*
X80256250Y-60325000I-243750J0D01*
G01*
X79343750Y-60325000D01*
G75*
G02*
X79100000Y-60081250I0J243750D01*
G01*
X79100000Y-59593750D01*
G75*
G02*
X79343750Y-59350000I243750J0D01*
G01*
G37*
%TD.AperFunction*%
%TO.P,C6,1*%
%TO.N,GND*%
%TA.AperFunction,SMDPad,CuDef*%
G36*
G01*
X79343750Y-57475000D02*
X80256250Y-57475000D01*
G75*
G02*
X80500000Y-57718750I0J-243750D01*
G01*
X80500000Y-58206250D01*
G75*
G02*
X80256250Y-58450000I-243750J0D01*
G01*
X79343750Y-58450000D01*
G75*
G02*
X79100000Y-58206250I0J243750D01*
G01*
X79100000Y-57718750D01*
G75*
G02*
X79343750Y-57475000I243750J0D01*
G01*
G37*
%TD.AperFunction*%
%TD*%
%TO.P,C5,2*%
%TO.N,GND*%
%TA.AperFunction,SMDPad,CuDef*%
G36*
G01*
X63000000Y-81650000D02*
X63000000Y-80550000D01*
G75*
G02*
X63250000Y-80300000I250000J0D01*
G01*
X65750000Y-80300000D01*
G75*
G02*
X66000000Y-80550000I0J-250000D01*
G01*
X66000000Y-81650000D01*
G75*
G02*
X65750000Y-81900000I-250000J0D01*
G01*
X63250000Y-81900000D01*
G75*
G02*
X63000000Y-81650000I0J250000D01*
G01*
G37*
%TD.AperFunction*%
%TO.P,C5,1*%
%TO.N,+5V*%
%TA.AperFunction,SMDPad,CuDef*%
G36*
G01*
X58600000Y-81650000D02*
X58600000Y-80550000D01*
G75*
G02*
X58850000Y-80300000I250000J0D01*
G01*
X61350000Y-80300000D01*
G75*
G02*
X61600000Y-80550000I0J-250000D01*
G01*
X61600000Y-81650000D01*
G75*
G02*
X61350000Y-81900000I-250000J0D01*
G01*
X58850000Y-81900000D01*
G75*
G02*
X58600000Y-81650000I0J250000D01*
G01*
G37*
%TD.AperFunction*%
%TD*%
D11*
%TO.P,H8,1*%
%TO.N,GND*%
X240000000Y-110000000D03*
%TD*%
%TO.P,H7,1*%
%TO.N,GND*%
X240000000Y-60000000D03*
%TD*%
%TO.P,H6,1*%
%TO.N,GND*%
X162000000Y-115000000D03*
%TD*%
%TO.P,H5,1*%
%TO.N,GND*%
X162000000Y-55000000D03*
%TD*%
%TO.P,H4,1*%
%TO.N,GND*%
X138000000Y-115000000D03*
%TD*%
%TO.P,H3,1*%
%TO.N,GND*%
X138000000Y-55000000D03*
%TD*%
%TO.P,H2,1*%
%TO.N,GND*%
X60000000Y-110000000D03*
%TD*%
%TO.P,H1,1*%
%TO.N,GND*%
X60000000Y-60000000D03*
%TD*%
D12*
%TO.N,GND*%
X72000000Y-62000000D03*
X72000000Y-64000000D03*
X72000000Y-66000000D03*
X84000000Y-62000000D03*
X84000000Y-64000000D03*
X84000000Y-66000000D03*
X96000000Y-62000000D03*
X96000000Y-64000000D03*
X96000000Y-66000000D03*
X108000000Y-62000000D03*
X108000000Y-64000000D03*
X108000000Y-66000000D03*
X120000000Y-62000000D03*
X120000000Y-64000000D03*
X120000000Y-66000000D03*
X132000000Y-62000000D03*
X132000000Y-64000000D03*
X132000000Y-66000000D03*
X144000000Y-64000000D03*
X144000000Y-66000000D03*
X156000000Y-64000000D03*
X156000000Y-66000000D03*
X168000000Y-62000000D03*
X168000000Y-64000000D03*
X168000000Y-66000000D03*
X180000000Y-62000000D03*
X180000000Y-64000000D03*
X180000000Y-66000000D03*
X192000000Y-62000000D03*
X192000000Y-64000000D03*
X192000000Y-66000000D03*
X204000000Y-62000000D03*
X204000000Y-64000000D03*
X204000000Y-66000000D03*
X216000000Y-62000000D03*
X216000000Y-64000000D03*
X216000000Y-66000000D03*
X228000000Y-66000000D03*
X228000000Y-62000000D03*
X228000000Y-64000000D03*
X234000000Y-73000000D03*
X234000000Y-77000000D03*
X234000000Y-75000000D03*
X222000000Y-73000000D03*
X210000000Y-73000000D03*
X198000000Y-73000000D03*
X186000000Y-73000000D03*
X174000000Y-73000000D03*
X162000000Y-73000000D03*
X150000000Y-73000000D03*
X138000000Y-73000000D03*
X126000000Y-73000000D03*
X114000000Y-73000000D03*
X102000000Y-73000000D03*
X90000000Y-73000000D03*
X78000000Y-73000000D03*
X66000000Y-73000000D03*
X222000000Y-77000000D03*
X210000000Y-77000000D03*
X198000000Y-77000000D03*
X186000000Y-77000000D03*
X174000000Y-77000000D03*
X162000000Y-77000000D03*
X150000000Y-77000000D03*
X138000000Y-77000000D03*
X126000000Y-77000000D03*
X114000000Y-77000000D03*
X102000000Y-77000000D03*
X90000000Y-77000000D03*
X78000000Y-77000000D03*
X66000000Y-77000000D03*
X222000000Y-75000000D03*
X210000000Y-75000000D03*
X198000000Y-75000000D03*
X186000000Y-75000000D03*
X174000000Y-75000000D03*
X162000000Y-75000000D03*
X150000000Y-75000000D03*
X138000000Y-75000000D03*
X126000000Y-75000000D03*
X114000000Y-75000000D03*
X102000000Y-75000000D03*
X90000000Y-75000000D03*
X78000000Y-75000000D03*
X66000000Y-75000000D03*
X72000000Y-83000000D03*
X72000000Y-85000000D03*
X72000000Y-87000000D03*
X84000000Y-87000000D03*
X96000000Y-87000000D03*
X108000000Y-87000000D03*
X120000000Y-87000000D03*
X132000000Y-87000000D03*
X144000000Y-87000000D03*
X156000000Y-87000000D03*
X168000000Y-87000000D03*
X180000000Y-87000000D03*
X192000000Y-87000000D03*
X204000000Y-87000000D03*
X216000000Y-87000000D03*
X228000000Y-87000000D03*
X240000000Y-87000000D03*
X84000000Y-85000000D03*
X96000000Y-85000000D03*
X108000000Y-85000000D03*
X120000000Y-85000000D03*
X132000000Y-85000000D03*
X144000000Y-85000000D03*
X156000000Y-85000000D03*
X168000000Y-85000000D03*
X180000000Y-85000000D03*
X192000000Y-85000000D03*
X204000000Y-85000000D03*
X216000000Y-85000000D03*
X228000000Y-85000000D03*
X240000000Y-85000000D03*
X84000000Y-83000000D03*
X96000000Y-83000000D03*
X108000000Y-83000000D03*
X120000000Y-83000000D03*
X132000000Y-83000000D03*
X144000000Y-83000000D03*
X156000000Y-83000000D03*
X168000000Y-83000000D03*
X180000000Y-83000000D03*
X192000000Y-83000000D03*
X204000000Y-83000000D03*
X216000000Y-83000000D03*
X228000000Y-83000000D03*
X240000000Y-83000000D03*
X234000000Y-93000000D03*
X234000000Y-95000000D03*
X234000000Y-97000000D03*
X222000000Y-93000000D03*
X210000000Y-93000000D03*
X198000000Y-93000000D03*
X186000000Y-93000000D03*
X174000000Y-93000000D03*
X162000000Y-93000000D03*
X150000000Y-93000000D03*
X138000000Y-93000000D03*
X126000000Y-93000000D03*
X114000000Y-93000000D03*
X102000000Y-93000000D03*
X90000000Y-93000000D03*
X78000000Y-93000000D03*
X66000000Y-93000000D03*
X222000000Y-97000000D03*
X210000000Y-97000000D03*
X198000000Y-97000000D03*
X186000000Y-97000000D03*
X174000000Y-97000000D03*
X162000000Y-97000000D03*
X150000000Y-97000000D03*
X138000000Y-97000000D03*
X126000000Y-97000000D03*
X114000000Y-97000000D03*
X102000000Y-97000000D03*
X90000000Y-97000000D03*
X78000000Y-97000000D03*
X66000000Y-97000000D03*
X222000000Y-95000000D03*
X210000000Y-95000000D03*
X198000000Y-95000000D03*
X186000000Y-95000000D03*
X174000000Y-95000000D03*
X162000000Y-95000000D03*
X150000000Y-95000000D03*
X138000000Y-95000000D03*
X126000000Y-95000000D03*
X114000000Y-95000000D03*
X102000000Y-95000000D03*
X90000000Y-95000000D03*
X78000000Y-95000000D03*
X66000000Y-95000000D03*
X72000000Y-104000000D03*
X72000000Y-108000000D03*
X72000000Y-106000000D03*
X84000000Y-106000000D03*
X96000000Y-106000000D03*
X108000000Y-106000000D03*
X120000000Y-106000000D03*
X132000000Y-106000000D03*
X144000000Y-106000000D03*
X156000000Y-106000000D03*
X168000000Y-106000000D03*
X180000000Y-106000000D03*
X192000000Y-106000000D03*
X204000000Y-106000000D03*
X216000000Y-106000000D03*
X228000000Y-106000000D03*
X84000000Y-104000000D03*
X96000000Y-104000000D03*
X108000000Y-104000000D03*
X120000000Y-104000000D03*
X132000000Y-104000000D03*
X144000000Y-104000000D03*
X156000000Y-104000000D03*
X168000000Y-104000000D03*
X180000000Y-104000000D03*
X192000000Y-104000000D03*
X204000000Y-104000000D03*
X216000000Y-104000000D03*
X228000000Y-104000000D03*
X84000000Y-108000000D03*
X96000000Y-108000000D03*
X108000000Y-108000000D03*
X120000000Y-108000000D03*
X132000000Y-108000000D03*
X144000000Y-108000000D03*
X156000000Y-108000000D03*
X168000000Y-108000000D03*
X180000000Y-108000000D03*
X192000000Y-108000000D03*
X204000000Y-108000000D03*
X216000000Y-108000000D03*
X228000000Y-108000000D03*
X66000000Y-102000000D03*
X72000000Y-99000000D03*
X68000000Y-101000000D03*
X70000000Y-100000000D03*
X74000000Y-100000000D03*
X76000000Y-101000000D03*
X78000000Y-102000000D03*
X90000000Y-102000000D03*
X102000000Y-102000000D03*
X114000000Y-102000000D03*
X126000000Y-102000000D03*
X138000000Y-102000000D03*
X150000000Y-102000000D03*
X162000000Y-102000000D03*
X174000000Y-102000000D03*
X186000000Y-102000000D03*
X198000000Y-102000000D03*
X210000000Y-102000000D03*
X222000000Y-102000000D03*
X234000000Y-102000000D03*
X82000000Y-100000000D03*
X94000000Y-100000000D03*
X106000000Y-100000000D03*
X118000000Y-100000000D03*
X130000000Y-100000000D03*
X142000000Y-100000000D03*
X154000000Y-100000000D03*
X166000000Y-100000000D03*
X178000000Y-100000000D03*
X190000000Y-100000000D03*
X202000000Y-100000000D03*
X214000000Y-100000000D03*
X226000000Y-100000000D03*
X238000000Y-100000000D03*
X84000000Y-99000000D03*
X96000000Y-99000000D03*
X108000000Y-99000000D03*
X120000000Y-99000000D03*
X132000000Y-99000000D03*
X144000000Y-99000000D03*
X156000000Y-99000000D03*
X168000000Y-99000000D03*
X180000000Y-99000000D03*
X192000000Y-99000000D03*
X204000000Y-99000000D03*
X216000000Y-99000000D03*
X228000000Y-99000000D03*
X240000000Y-99000000D03*
X80000000Y-101000000D03*
X92000000Y-101000000D03*
X104000000Y-101000000D03*
X116000000Y-101000000D03*
X128000000Y-101000000D03*
X140000000Y-101000000D03*
X152000000Y-101000000D03*
X164000000Y-101000000D03*
X176000000Y-101000000D03*
X188000000Y-101000000D03*
X200000000Y-101000000D03*
X212000000Y-101000000D03*
X224000000Y-101000000D03*
X236000000Y-101000000D03*
X86000000Y-100000000D03*
X98000000Y-100000000D03*
X110000000Y-100000000D03*
X122000000Y-100000000D03*
X134000000Y-100000000D03*
X146000000Y-100000000D03*
X158000000Y-100000000D03*
X170000000Y-100000000D03*
X182000000Y-100000000D03*
X194000000Y-100000000D03*
X206000000Y-100000000D03*
X218000000Y-100000000D03*
X230000000Y-100000000D03*
X88000000Y-101000000D03*
X100000000Y-101000000D03*
X112000000Y-101000000D03*
X124000000Y-101000000D03*
X136000000Y-101000000D03*
X148000000Y-101000000D03*
X160000000Y-101000000D03*
X172000000Y-101000000D03*
X184000000Y-101000000D03*
X196000000Y-101000000D03*
X208000000Y-101000000D03*
X220000000Y-101000000D03*
X232000000Y-101000000D03*
X72000000Y-78000000D03*
X70000000Y-79000000D03*
X68000000Y-80000000D03*
X74000000Y-79000000D03*
X76000000Y-80000000D03*
X78000000Y-81000000D03*
X82000000Y-79000000D03*
X94000000Y-79000000D03*
X106000000Y-79000000D03*
X118000000Y-79000000D03*
X130000000Y-79000000D03*
X142000000Y-79000000D03*
X154000000Y-79000000D03*
X166000000Y-79000000D03*
X178000000Y-79000000D03*
X190000000Y-79000000D03*
X202000000Y-79000000D03*
X214000000Y-79000000D03*
X226000000Y-79000000D03*
X238000000Y-79000000D03*
X88000000Y-80000000D03*
X100000000Y-80000000D03*
X112000000Y-80000000D03*
X124000000Y-80000000D03*
X136000000Y-80000000D03*
X148000000Y-80000000D03*
X160000000Y-80000000D03*
X172000000Y-80000000D03*
X184000000Y-80000000D03*
X196000000Y-80000000D03*
X208000000Y-80000000D03*
X220000000Y-80000000D03*
X232000000Y-80000000D03*
X244000000Y-80000000D03*
X80000000Y-80000000D03*
X92000000Y-80000000D03*
X104000000Y-80000000D03*
X116000000Y-80000000D03*
X128000000Y-80000000D03*
X140000000Y-80000000D03*
X152000000Y-80000000D03*
X164000000Y-80000000D03*
X176000000Y-80000000D03*
X188000000Y-80000000D03*
X200000000Y-80000000D03*
X212000000Y-80000000D03*
X224000000Y-80000000D03*
X236000000Y-80000000D03*
X84000000Y-78000000D03*
X96000000Y-78000000D03*
X108000000Y-78000000D03*
X120000000Y-78000000D03*
X132000000Y-78000000D03*
X144000000Y-78000000D03*
X156000000Y-78000000D03*
X168000000Y-78000000D03*
X180000000Y-78000000D03*
X192000000Y-78000000D03*
X204000000Y-78000000D03*
X216000000Y-78000000D03*
X228000000Y-78000000D03*
X240000000Y-78000000D03*
X86000000Y-79000000D03*
X98000000Y-79000000D03*
X110000000Y-79000000D03*
X122000000Y-79000000D03*
X134000000Y-79000000D03*
X146000000Y-79000000D03*
X158000000Y-79000000D03*
X170000000Y-79000000D03*
X182000000Y-79000000D03*
X194000000Y-79000000D03*
X206000000Y-79000000D03*
X218000000Y-79000000D03*
X230000000Y-79000000D03*
X242000000Y-79000000D03*
X90000000Y-81000000D03*
X102000000Y-81000000D03*
X114000000Y-81000000D03*
X126000000Y-81000000D03*
X138000000Y-81000000D03*
X150000000Y-81000000D03*
X162000000Y-81000000D03*
X174000000Y-81000000D03*
X186000000Y-81000000D03*
X198000000Y-81000000D03*
X210000000Y-81000000D03*
X222000000Y-81000000D03*
X234000000Y-81000000D03*
X246000000Y-81000000D03*
X84000000Y-58000000D03*
X86000000Y-59000000D03*
X88000000Y-60000000D03*
X90000000Y-61000000D03*
X92000000Y-60000000D03*
X94000000Y-59000000D03*
X96000000Y-58000000D03*
X100000000Y-60000000D03*
X112000000Y-60000000D03*
X124000000Y-60000000D03*
X136000000Y-60000000D03*
X160000000Y-60000000D03*
X172000000Y-60000000D03*
X184000000Y-60000000D03*
X196000000Y-60000000D03*
X208000000Y-60000000D03*
X220000000Y-60000000D03*
X232000000Y-60000000D03*
X98000000Y-59000000D03*
X110000000Y-59000000D03*
X122000000Y-59000000D03*
X134000000Y-59000000D03*
X170000000Y-59000000D03*
X182000000Y-59000000D03*
X194000000Y-59000000D03*
X206000000Y-59000000D03*
X218000000Y-59000000D03*
X230000000Y-59000000D03*
X104000000Y-60000000D03*
X116000000Y-60000000D03*
X128000000Y-60000000D03*
X140000000Y-60000000D03*
X164000000Y-60000000D03*
X176000000Y-60000000D03*
X188000000Y-60000000D03*
X200000000Y-60000000D03*
X212000000Y-60000000D03*
X224000000Y-60000000D03*
X108000000Y-58000000D03*
X120000000Y-58000000D03*
X132000000Y-58000000D03*
X168000000Y-58000000D03*
X180000000Y-58000000D03*
X192000000Y-58000000D03*
X204000000Y-58000000D03*
X216000000Y-58000000D03*
X228000000Y-58000000D03*
X106000000Y-59000000D03*
X118000000Y-59000000D03*
X130000000Y-59000000D03*
X142000000Y-59000000D03*
X166000000Y-59000000D03*
X178000000Y-59000000D03*
X190000000Y-59000000D03*
X202000000Y-59000000D03*
X214000000Y-59000000D03*
X226000000Y-59000000D03*
X102000000Y-61000000D03*
X114000000Y-61000000D03*
X126000000Y-61000000D03*
X138000000Y-61000000D03*
X162000000Y-61000000D03*
X174000000Y-61000000D03*
X186000000Y-61000000D03*
X198000000Y-61000000D03*
X210000000Y-61000000D03*
X222000000Y-61000000D03*
X234000000Y-61000000D03*
X76500000Y-63350000D03*
X88500000Y-63350000D03*
X91500000Y-63350000D03*
X100500000Y-63350000D03*
X112500000Y-63350000D03*
X124500000Y-63350000D03*
X136500000Y-63350000D03*
X148500000Y-63350000D03*
X160500000Y-63350000D03*
X172500000Y-63350000D03*
X184500000Y-63350000D03*
X196500000Y-63350000D03*
X208500000Y-63350000D03*
X220500000Y-63350000D03*
X103500000Y-63350000D03*
X115500000Y-63350000D03*
X127500000Y-63350000D03*
X139500000Y-63350000D03*
X151500000Y-63350000D03*
X163500000Y-63350000D03*
X175500000Y-63350000D03*
X187500000Y-63350000D03*
X199500000Y-63350000D03*
X211500000Y-63350000D03*
X223500000Y-63350000D03*
X232500000Y-63350000D03*
X229500000Y-75550000D03*
X226500000Y-75550000D03*
X217500000Y-75550000D03*
X205500000Y-75550000D03*
X193500000Y-75550000D03*
X181500000Y-75550000D03*
X169500000Y-75550000D03*
X157500000Y-75550000D03*
X145500000Y-75550000D03*
X133500000Y-75550000D03*
X121500000Y-75550000D03*
X109500000Y-75550000D03*
X97500000Y-75550000D03*
X85500000Y-75550000D03*
X73500000Y-75550000D03*
X214500000Y-75550000D03*
X202500000Y-75550000D03*
X190500000Y-75550000D03*
X178500000Y-75550000D03*
X166500000Y-75550000D03*
X154500000Y-75550000D03*
X142500000Y-75550000D03*
X130500000Y-75550000D03*
X118500000Y-75550000D03*
X106500000Y-75550000D03*
X94500000Y-75550000D03*
X82500000Y-75550000D03*
X70500000Y-75550000D03*
X60500000Y-75550000D03*
X60000000Y-83000000D03*
X60000000Y-85000000D03*
X60000000Y-87000000D03*
X67500000Y-84150000D03*
X64500000Y-84150000D03*
X79500000Y-84150000D03*
X91500000Y-84150000D03*
X103500000Y-84150000D03*
X115500000Y-84150000D03*
X127500000Y-84150000D03*
X139500000Y-84150000D03*
X151500000Y-84150000D03*
X163500000Y-84150000D03*
X175500000Y-84150000D03*
X187500000Y-84150000D03*
X199500000Y-84150000D03*
X211500000Y-84150000D03*
X223500000Y-84150000D03*
X76500000Y-84150000D03*
X88500000Y-84150000D03*
X100500000Y-84150000D03*
X112500000Y-84150000D03*
X124500000Y-84150000D03*
X136500000Y-84150000D03*
X148500000Y-84150000D03*
X160500000Y-84150000D03*
X172500000Y-84150000D03*
X184500000Y-84150000D03*
X196500000Y-84150000D03*
X208500000Y-84150000D03*
X220500000Y-84150000D03*
X235500000Y-84150000D03*
X232500000Y-84150000D03*
X238500000Y-96250000D03*
X229500000Y-96250000D03*
X226500000Y-96250000D03*
X214500000Y-96250000D03*
X202500000Y-96250000D03*
X190500000Y-96250000D03*
X178500000Y-96250000D03*
X166500000Y-96250000D03*
X154500000Y-96250000D03*
X142500000Y-96250000D03*
X130500000Y-96250000D03*
X118500000Y-96250000D03*
X106500000Y-96250000D03*
X94500000Y-96250000D03*
X82500000Y-96250000D03*
X70500000Y-96250000D03*
X217500000Y-96250000D03*
X205500000Y-96250000D03*
X193500000Y-96250000D03*
X181500000Y-96250000D03*
X169500000Y-96250000D03*
X157500000Y-96250000D03*
X145500000Y-96250000D03*
X133500000Y-96250000D03*
X121500000Y-96250000D03*
X109500000Y-96250000D03*
X97500000Y-96250000D03*
X85500000Y-96250000D03*
X73500000Y-96250000D03*
X76500000Y-104950000D03*
X79500000Y-104950000D03*
X91500000Y-104950000D03*
X103500000Y-104950000D03*
X115500000Y-104950000D03*
X127500000Y-104950000D03*
X139500000Y-104950000D03*
X151500000Y-104950000D03*
X163500000Y-104950000D03*
X175500000Y-104950000D03*
X187500000Y-104950000D03*
X199500000Y-104950000D03*
X211500000Y-104950000D03*
X223500000Y-104950000D03*
X88500000Y-104950000D03*
X100500000Y-104950000D03*
X112500000Y-104950000D03*
X124500000Y-104950000D03*
X136500000Y-104950000D03*
X148500000Y-104950000D03*
X160500000Y-104950000D03*
X172500000Y-104950000D03*
X184500000Y-104950000D03*
X196500000Y-104950000D03*
X208500000Y-104950000D03*
X220500000Y-104950000D03*
X70500000Y-56000000D03*
X70500000Y-52200000D03*
X74500000Y-52200000D03*
D13*
%TO.N,+5V*%
X63600000Y-70700000D03*
X74400000Y-68200000D03*
X86400000Y-68200000D03*
X98400000Y-68200000D03*
X110400000Y-68200000D03*
X122400000Y-68200000D03*
X134400000Y-68200000D03*
X146400000Y-68200000D03*
X158400000Y-68200000D03*
X170400000Y-68200000D03*
X194400000Y-68200000D03*
X206400000Y-68200000D03*
X218400000Y-68200000D03*
X230400000Y-68200000D03*
X231600000Y-70700000D03*
X219600000Y-70700000D03*
X207600000Y-70700000D03*
X195600000Y-70700000D03*
X183600000Y-70700000D03*
X171600000Y-70700000D03*
X159600000Y-70700000D03*
X147600000Y-70700000D03*
X135600000Y-70700000D03*
X123600000Y-70700000D03*
X111600000Y-70700000D03*
X99600000Y-70700000D03*
X87600000Y-70700000D03*
X75600000Y-70700000D03*
X182400000Y-68200000D03*
X242400000Y-89000000D03*
X230400000Y-89000000D03*
X218400000Y-89000000D03*
X206400000Y-89000000D03*
X194400000Y-89000000D03*
X182400000Y-89000000D03*
X170400000Y-89000000D03*
X158400000Y-89000000D03*
X146400000Y-89000000D03*
X134400000Y-89000000D03*
X122400000Y-89000000D03*
X110400000Y-89000000D03*
X98400000Y-89000000D03*
X86400000Y-89000000D03*
X74400000Y-89000000D03*
X62400000Y-89000000D03*
X63600000Y-91400000D03*
X75600000Y-91400000D03*
X87600000Y-91400000D03*
X99600000Y-91400000D03*
X111600000Y-91400000D03*
X123600000Y-91400000D03*
X135600000Y-91400000D03*
X147600000Y-91400000D03*
X159600000Y-91400000D03*
X171600000Y-91400000D03*
X183600000Y-91400000D03*
X195600000Y-91400000D03*
X207600000Y-91400000D03*
X219600000Y-91400000D03*
X231600000Y-91400000D03*
X74400000Y-109800000D03*
X86400000Y-109800000D03*
X98400000Y-109800000D03*
X110400000Y-109800000D03*
X122400000Y-109800000D03*
X134400000Y-109800000D03*
X146400000Y-109800000D03*
X158400000Y-109800000D03*
X170400000Y-109800000D03*
X182400000Y-109800000D03*
X194400000Y-109800000D03*
X206400000Y-109800000D03*
X218400000Y-109800000D03*
X230400000Y-109800000D03*
D12*
%TO.N,/CI*%
X74100000Y-53500000D03*
%TO.N,/DI*%
X74100000Y-57200000D03*
%TD*%
D14*
%TO.N,+5V*%
X67750000Y-109750000D02*
X69000000Y-109750000D01*
X60062500Y-81137500D02*
X60100000Y-81100000D01*
X67750000Y-109750000D02*
X59400000Y-101400000D01*
X59400000Y-101400000D02*
X59000000Y-101000000D01*
X59000000Y-101000000D02*
X59000000Y-91500000D01*
X60100000Y-81100000D02*
X60100000Y-79900000D01*
X60100000Y-79900000D02*
X62000000Y-78000000D01*
X62000000Y-78000000D02*
X62000000Y-70500000D01*
X62000000Y-70500000D02*
X63000000Y-69500000D01*
X63000000Y-69500000D02*
X63600000Y-69500000D01*
D15*
X72525000Y-56000000D02*
X74900000Y-56000000D01*
X74900000Y-56000000D02*
X75100000Y-56200000D01*
X75100000Y-56200000D02*
X75100000Y-59000000D01*
X75910000Y-59810000D02*
X77475000Y-59810000D01*
X75100000Y-59000000D02*
X75910000Y-59810000D01*
X72525000Y-59810000D02*
X77475000Y-59810000D01*
X79772500Y-59810000D02*
X79800000Y-59837500D01*
X77475000Y-59810000D02*
X79772500Y-59810000D01*
X79800000Y-59837500D02*
X79800000Y-68000000D01*
D14*
X56000000Y-81137500D02*
X58162500Y-81137500D01*
X58162500Y-81137500D02*
X58162500Y-87662500D01*
X58162500Y-81137500D02*
X60062500Y-81137500D01*
X58162500Y-87662500D02*
X59000000Y-88500000D01*
D16*
%TO.N,/CI*%
X74060000Y-53460000D02*
X74100000Y-53500000D01*
X72525000Y-53460000D02*
X74060000Y-53460000D01*
%TO.N,/DI*%
X74030000Y-57270000D02*
X74100000Y-57200000D01*
X72525000Y-57270000D02*
X74030000Y-57270000D01*
D14*
%TO.N,/+5V-Pre-Fuse*%
X56000000Y-73620000D02*
X56000000Y-76862500D01*
D16*
%TO.N,/DI-Raw*%
X56000000Y-68540000D02*
X53540000Y-68540000D01*
X53540000Y-68540000D02*
X52500000Y-67500000D01*
X52500000Y-67500000D02*
X52500000Y-59500000D01*
X52500000Y-59500000D02*
X57000000Y-55000000D01*
X57000000Y-55000000D02*
X64000000Y-55000000D01*
X66000000Y-57000000D02*
X67062500Y-57000000D01*
X64000000Y-55000000D02*
X66000000Y-57000000D01*
%TO.N,/CI-Raw*%
X66000000Y-55000000D02*
X67062500Y-55000000D01*
X65200000Y-54200000D02*
X66000000Y-55000000D01*
X56000000Y-71080000D02*
X54980000Y-71080000D01*
X54980000Y-71080000D02*
X51700000Y-67800000D01*
X51700000Y-59200000D02*
X56700000Y-54200000D01*
X56700000Y-54200000D02*
X65200000Y-54200000D01*
X51700000Y-67800000D02*
X51700000Y-59200000D01*
%TO.N,/CI-Limited*%
X69207500Y-54730000D02*
X68937500Y-55000000D01*
X72525000Y-54730000D02*
X69207500Y-54730000D01*
%TO.N,/DI-Limited*%
X72525000Y-58540000D02*
X71040000Y-58540000D01*
X69500000Y-57000000D02*
X68937500Y-57000000D01*
X71040000Y-58540000D02*
X69500000Y-57000000D01*
%TD*%
D17*
%TO.N,+5V*%
G36*
X233590252Y-67163176D02*
G01*
X233674354Y-67198013D01*
X233746572Y-67253428D01*
X233801987Y-67325646D01*
X233836824Y-67409748D01*
X233850000Y-67509834D01*
X233850000Y-71490166D01*
X233836824Y-71590252D01*
X233801987Y-71674354D01*
X233746572Y-71746572D01*
X233674354Y-71801987D01*
X233590252Y-71836824D01*
X233490166Y-71850000D01*
X63509834Y-71850000D01*
X63409748Y-71836824D01*
X63325646Y-71801987D01*
X63253428Y-71746572D01*
X63198013Y-71674354D01*
X63163176Y-71590252D01*
X63150000Y-71490166D01*
X63150000Y-67509834D01*
X63163176Y-67409748D01*
X63198013Y-67325646D01*
X63253428Y-67253428D01*
X63325646Y-67198013D01*
X63409748Y-67163176D01*
X63509834Y-67150000D01*
X233490166Y-67150000D01*
X233590252Y-67163176D01*
G37*
X233590252Y-67163176D02*
X233674354Y-67198013D01*
X233746572Y-67253428D01*
X233801987Y-67325646D01*
X233836824Y-67409748D01*
X233850000Y-67509834D01*
X233850000Y-71490166D01*
X233836824Y-71590252D01*
X233801987Y-71674354D01*
X233746572Y-71746572D01*
X233674354Y-71801987D01*
X233590252Y-71836824D01*
X233490166Y-71850000D01*
X63509834Y-71850000D01*
X63409748Y-71836824D01*
X63325646Y-71801987D01*
X63253428Y-71746572D01*
X63198013Y-71674354D01*
X63163176Y-71590252D01*
X63150000Y-71490166D01*
X63150000Y-67509834D01*
X63163176Y-67409748D01*
X63198013Y-67325646D01*
X63253428Y-67253428D01*
X63325646Y-67198013D01*
X63409748Y-67163176D01*
X63509834Y-67150000D01*
X233490166Y-67150000D01*
X233590252Y-67163176D01*
G36*
X243590252Y-87663176D02*
G01*
X243674354Y-87698013D01*
X243746572Y-87753428D01*
X243801987Y-87825646D01*
X243836824Y-87909748D01*
X243850000Y-88009834D01*
X243850000Y-91990166D01*
X243836824Y-92090252D01*
X243801987Y-92174354D01*
X243746572Y-92246572D01*
X243674354Y-92301987D01*
X243590252Y-92336824D01*
X243490166Y-92350000D01*
X58509834Y-92350000D01*
X58409748Y-92336824D01*
X58325646Y-92301987D01*
X58253428Y-92246572D01*
X58198013Y-92174354D01*
X58163176Y-92090252D01*
X58150000Y-91990166D01*
X58150000Y-88009834D01*
X58163176Y-87909748D01*
X58198013Y-87825646D01*
X58253428Y-87753428D01*
X58325646Y-87698013D01*
X58409748Y-87663176D01*
X58509834Y-87650000D01*
X243490166Y-87650000D01*
X243590252Y-87663176D01*
G37*
X243590252Y-87663176D02*
X243674354Y-87698013D01*
X243746572Y-87753428D01*
X243801987Y-87825646D01*
X243836824Y-87909748D01*
X243850000Y-88009834D01*
X243850000Y-91990166D01*
X243836824Y-92090252D01*
X243801987Y-92174354D01*
X243746572Y-92246572D01*
X243674354Y-92301987D01*
X243590252Y-92336824D01*
X243490166Y-92350000D01*
X58509834Y-92350000D01*
X58409748Y-92336824D01*
X58325646Y-92301987D01*
X58253428Y-92246572D01*
X58198013Y-92174354D01*
X58163176Y-92090252D01*
X58150000Y-91990166D01*
X58150000Y-88009834D01*
X58163176Y-87909748D01*
X58198013Y-87825646D01*
X58253428Y-87753428D01*
X58325646Y-87698013D01*
X58409748Y-87663176D01*
X58509834Y-87650000D01*
X243490166Y-87650000D01*
X243590252Y-87663176D01*
G36*
X231590252Y-108663176D02*
G01*
X231674354Y-108698013D01*
X231746572Y-108753428D01*
X231801987Y-108825646D01*
X231836824Y-108909748D01*
X231850000Y-109009834D01*
X231850000Y-110490166D01*
X231836824Y-110590252D01*
X231801987Y-110674354D01*
X231746572Y-110746572D01*
X231674354Y-110801987D01*
X231590252Y-110836824D01*
X231490166Y-110850000D01*
X69009834Y-110850000D01*
X68909748Y-110836824D01*
X68825646Y-110801987D01*
X68753428Y-110746572D01*
X68698013Y-110674354D01*
X68663176Y-110590252D01*
X68650000Y-110490166D01*
X68650000Y-109009834D01*
X68663176Y-108909748D01*
X68698013Y-108825646D01*
X68753428Y-108753428D01*
X68825646Y-108698013D01*
X68909748Y-108663176D01*
X69009834Y-108650000D01*
X231490166Y-108650000D01*
X231590252Y-108663176D01*
G37*
X231590252Y-108663176D02*
X231674354Y-108698013D01*
X231746572Y-108753428D01*
X231801987Y-108825646D01*
X231836824Y-108909748D01*
X231850000Y-109009834D01*
X231850000Y-110490166D01*
X231836824Y-110590252D01*
X231801987Y-110674354D01*
X231746572Y-110746572D01*
X231674354Y-110801987D01*
X231590252Y-110836824D01*
X231490166Y-110850000D01*
X69009834Y-110850000D01*
X68909748Y-110836824D01*
X68825646Y-110801987D01*
X68753428Y-110746572D01*
X68698013Y-110674354D01*
X68663176Y-110590252D01*
X68650000Y-110490166D01*
X68650000Y-109009834D01*
X68663176Y-108909748D01*
X68698013Y-108825646D01*
X68753428Y-108753428D01*
X68825646Y-108698013D01*
X68909748Y-108663176D01*
X69009834Y-108650000D01*
X231490166Y-108650000D01*
X231590252Y-108663176D01*
%TO.N,GND*%
G36*
X241206237Y-50451631D02*
G01*
X242393460Y-50678106D01*
X243542926Y-51051590D01*
X244636521Y-51566197D01*
X245657000Y-52213813D01*
X246588258Y-52984217D01*
X247415620Y-53865268D01*
X248126029Y-54843063D01*
X248708291Y-55902192D01*
X249153212Y-57025934D01*
X249453787Y-58196597D01*
X249606007Y-59401548D01*
X249625000Y-60005892D01*
X249625001Y-109988200D01*
X249548369Y-111206237D01*
X249321894Y-112393458D01*
X248948410Y-113542926D01*
X248433803Y-114636521D01*
X247786187Y-115657000D01*
X247015783Y-116588258D01*
X246134736Y-117415616D01*
X245156941Y-118126027D01*
X244097808Y-118708291D01*
X242974063Y-119153212D01*
X241803403Y-119453787D01*
X240598451Y-119606007D01*
X239994108Y-119625000D01*
X60011784Y-119625000D01*
X58793763Y-119548369D01*
X57606542Y-119321894D01*
X56457074Y-118948410D01*
X55363479Y-118433803D01*
X54343000Y-117786187D01*
X53411742Y-117015783D01*
X52584384Y-116134736D01*
X51873973Y-115156941D01*
X51291709Y-114097808D01*
X50846788Y-112974063D01*
X50546213Y-111803403D01*
X50393993Y-110598451D01*
X50375000Y-109994108D01*
X50375000Y-80824999D01*
X53948307Y-80824999D01*
X53948307Y-81450001D01*
X53959868Y-81567385D01*
X53994108Y-81680259D01*
X54049710Y-81784283D01*
X54124539Y-81875461D01*
X54215717Y-81950290D01*
X54319741Y-82005892D01*
X54432615Y-82040132D01*
X54549999Y-82051693D01*
X57312500Y-82051693D01*
X57312501Y-87620749D01*
X57308389Y-87662500D01*
X57324800Y-87829129D01*
X57373403Y-87989354D01*
X57373404Y-87989355D01*
X57452333Y-88137019D01*
X57558553Y-88266448D01*
X57590981Y-88293061D01*
X57650000Y-88352080D01*
X57650000Y-92000000D01*
X57652994Y-92045684D01*
X57670031Y-92175094D01*
X57693679Y-92263349D01*
X57743629Y-92383939D01*
X57789315Y-92463068D01*
X57868775Y-92566621D01*
X57933379Y-92631225D01*
X58036932Y-92710685D01*
X58116061Y-92756371D01*
X58150001Y-92770429D01*
X58150000Y-100958259D01*
X58145889Y-101000000D01*
X58150000Y-101041741D01*
X58150000Y-101041748D01*
X58153093Y-101073146D01*
X58162300Y-101166629D01*
X58182546Y-101233371D01*
X58210903Y-101326854D01*
X58289832Y-101474518D01*
X58396052Y-101603948D01*
X58428485Y-101630565D01*
X58828480Y-102030561D01*
X58828486Y-102030566D01*
X67119439Y-110321520D01*
X67146052Y-110353948D01*
X67275481Y-110460168D01*
X67414818Y-110534646D01*
X67423145Y-110539097D01*
X67583370Y-110587700D01*
X67599013Y-110589241D01*
X67708251Y-110600000D01*
X67708258Y-110600000D01*
X67749999Y-110604111D01*
X67791740Y-110600000D01*
X68160145Y-110600000D01*
X68170031Y-110675094D01*
X68193679Y-110763349D01*
X68243629Y-110883939D01*
X68289315Y-110963068D01*
X68368775Y-111066621D01*
X68433379Y-111131225D01*
X68536932Y-111210685D01*
X68616061Y-111256371D01*
X68736651Y-111306321D01*
X68824906Y-111329969D01*
X68954316Y-111347006D01*
X69000000Y-111350000D01*
X231500000Y-111350000D01*
X231545684Y-111347006D01*
X231675094Y-111329969D01*
X231763349Y-111306321D01*
X231883939Y-111256371D01*
X231963068Y-111210685D01*
X232066621Y-111131225D01*
X232131225Y-111066621D01*
X232210685Y-110963068D01*
X232256371Y-110883939D01*
X232306321Y-110763349D01*
X232329969Y-110675094D01*
X232347006Y-110545684D01*
X232350000Y-110500000D01*
X232350000Y-109000000D01*
X232347006Y-108954316D01*
X232329969Y-108824906D01*
X232306321Y-108736651D01*
X232256371Y-108616061D01*
X232210685Y-108536932D01*
X232131225Y-108433379D01*
X232066621Y-108368775D01*
X231963068Y-108289315D01*
X231883939Y-108243629D01*
X231763349Y-108193679D01*
X231675094Y-108170031D01*
X231545684Y-108152994D01*
X231500000Y-108150000D01*
X69000000Y-108150000D01*
X68954316Y-108152994D01*
X68824906Y-108170031D01*
X68736651Y-108193679D01*
X68616061Y-108243629D01*
X68536932Y-108289315D01*
X68433379Y-108368775D01*
X68368775Y-108433379D01*
X68289315Y-108536932D01*
X68243629Y-108616061D01*
X68193679Y-108736651D01*
X68170031Y-108824906D01*
X68160145Y-108900000D01*
X68102081Y-108900000D01*
X60030566Y-100828486D01*
X60030561Y-100828480D01*
X59850000Y-100647919D01*
X59850000Y-92850000D01*
X243500000Y-92850000D01*
X243545684Y-92847006D01*
X243675094Y-92829969D01*
X243763349Y-92806321D01*
X243883939Y-92756371D01*
X243963068Y-92710685D01*
X244066621Y-92631225D01*
X244131225Y-92566621D01*
X244210685Y-92463068D01*
X244256371Y-92383939D01*
X244306321Y-92263349D01*
X244329969Y-92175094D01*
X244347006Y-92045684D01*
X244350000Y-92000000D01*
X244350000Y-88000000D01*
X244347006Y-87954316D01*
X244329969Y-87824906D01*
X244306321Y-87736651D01*
X244256371Y-87616061D01*
X244210685Y-87536932D01*
X244131225Y-87433379D01*
X244066621Y-87368775D01*
X243963068Y-87289315D01*
X243883939Y-87243629D01*
X243763349Y-87193679D01*
X243675094Y-87170031D01*
X243545684Y-87152994D01*
X243500000Y-87150000D01*
X59012500Y-87150000D01*
X59012500Y-82251693D01*
X61350000Y-82251693D01*
X61467384Y-82240132D01*
X61580258Y-82205892D01*
X61684283Y-82150289D01*
X61775461Y-82075461D01*
X61850289Y-81984283D01*
X61895339Y-81900000D01*
X62338816Y-81900000D01*
X62351520Y-82028991D01*
X62389146Y-82153024D01*
X62450246Y-82267334D01*
X62532472Y-82367528D01*
X62632666Y-82449754D01*
X62746976Y-82510854D01*
X62871009Y-82548480D01*
X63000000Y-82561184D01*
X64231500Y-82558000D01*
X64396000Y-82393500D01*
X64396000Y-81204000D01*
X64604000Y-81204000D01*
X64604000Y-82393500D01*
X64768500Y-82558000D01*
X66000000Y-82561184D01*
X66128991Y-82548480D01*
X66253024Y-82510854D01*
X66367334Y-82449754D01*
X66467528Y-82367528D01*
X66549754Y-82267334D01*
X66610854Y-82153024D01*
X66648480Y-82028991D01*
X66661184Y-81900000D01*
X66658000Y-81368500D01*
X66493500Y-81204000D01*
X64604000Y-81204000D01*
X64396000Y-81204000D01*
X62506500Y-81204000D01*
X62342000Y-81368500D01*
X62338816Y-81900000D01*
X61895339Y-81900000D01*
X61905892Y-81880258D01*
X61940132Y-81767384D01*
X61951693Y-81650000D01*
X61951693Y-80550000D01*
X61940132Y-80432616D01*
X61905892Y-80319742D01*
X61895340Y-80300000D01*
X62338816Y-80300000D01*
X62342000Y-80831500D01*
X62506500Y-80996000D01*
X64396000Y-80996000D01*
X64396000Y-79806500D01*
X64604000Y-79806500D01*
X64604000Y-80996000D01*
X66493500Y-80996000D01*
X66658000Y-80831500D01*
X66661184Y-80300000D01*
X66648480Y-80171009D01*
X66610854Y-80046976D01*
X66549754Y-79932666D01*
X66467528Y-79832472D01*
X66367334Y-79750246D01*
X66253024Y-79689146D01*
X66128991Y-79651520D01*
X66000000Y-79638816D01*
X64768500Y-79642000D01*
X64604000Y-79806500D01*
X64396000Y-79806500D01*
X64231500Y-79642000D01*
X63000000Y-79638816D01*
X62871009Y-79651520D01*
X62746976Y-79689146D01*
X62632666Y-79750246D01*
X62532472Y-79832472D01*
X62450246Y-79932666D01*
X62389146Y-80046976D01*
X62351520Y-80171009D01*
X62338816Y-80300000D01*
X61895340Y-80300000D01*
X61850289Y-80215717D01*
X61775461Y-80124539D01*
X61684283Y-80049711D01*
X61580258Y-79994108D01*
X61467384Y-79959868D01*
X61350000Y-79948307D01*
X61253773Y-79948307D01*
X62571521Y-78630560D01*
X62603948Y-78603948D01*
X62710168Y-78474519D01*
X62789097Y-78326855D01*
X62837700Y-78166629D01*
X62850000Y-78041749D01*
X62850000Y-78041741D01*
X62854111Y-78000000D01*
X62850000Y-77958259D01*
X62850000Y-72042153D01*
X62868775Y-72066621D01*
X62933379Y-72131225D01*
X63036932Y-72210685D01*
X63116061Y-72256371D01*
X63236651Y-72306321D01*
X63324906Y-72329969D01*
X63454316Y-72347006D01*
X63500000Y-72350000D01*
X233500000Y-72350000D01*
X233545684Y-72347006D01*
X233675094Y-72329969D01*
X233763349Y-72306321D01*
X233883939Y-72256371D01*
X233963068Y-72210685D01*
X234066621Y-72131225D01*
X234131225Y-72066621D01*
X234210685Y-71963068D01*
X234256371Y-71883939D01*
X234306321Y-71763349D01*
X234329969Y-71675094D01*
X234347006Y-71545684D01*
X234350000Y-71500000D01*
X234350000Y-67500000D01*
X234347006Y-67454316D01*
X234329969Y-67324906D01*
X234306321Y-67236651D01*
X234256371Y-67116061D01*
X234210685Y-67036932D01*
X234131225Y-66933379D01*
X234066621Y-66868775D01*
X233963068Y-66789315D01*
X233883939Y-66743629D01*
X233763349Y-66693679D01*
X233675094Y-66670031D01*
X233545684Y-66652994D01*
X233500000Y-66650000D01*
X80450000Y-66650000D01*
X80450000Y-60641717D01*
X80484116Y-60631368D01*
X80587060Y-60576343D01*
X80677292Y-60502292D01*
X80751343Y-60412060D01*
X80806368Y-60309116D01*
X80840252Y-60197415D01*
X80851693Y-60081250D01*
X80851693Y-59593750D01*
X80840252Y-59477585D01*
X80806368Y-59365884D01*
X80751343Y-59262940D01*
X80677292Y-59172708D01*
X80591360Y-59102186D01*
X80628991Y-59098480D01*
X80753024Y-59060854D01*
X80867334Y-58999754D01*
X80967528Y-58917528D01*
X81049754Y-58817334D01*
X81110854Y-58703024D01*
X81148480Y-58578991D01*
X81161184Y-58450000D01*
X81158000Y-58231000D01*
X80993500Y-58066500D01*
X79904000Y-58066500D01*
X79904000Y-58086500D01*
X79696000Y-58086500D01*
X79696000Y-58066500D01*
X79676000Y-58066500D01*
X79676000Y-57858500D01*
X79696000Y-57858500D01*
X79696000Y-56981500D01*
X79904000Y-56981500D01*
X79904000Y-57858500D01*
X80993500Y-57858500D01*
X81158000Y-57694000D01*
X81161184Y-57475000D01*
X81148480Y-57346009D01*
X81110854Y-57221976D01*
X81049754Y-57107666D01*
X80967528Y-57007472D01*
X80867334Y-56925246D01*
X80753024Y-56864146D01*
X80628991Y-56826520D01*
X80500000Y-56813816D01*
X80068500Y-56817000D01*
X79904000Y-56981500D01*
X79696000Y-56981500D01*
X79531500Y-56817000D01*
X79100000Y-56813816D01*
X79090514Y-56814750D01*
X79060854Y-56716976D01*
X78999754Y-56602666D01*
X78917528Y-56502472D01*
X78817334Y-56420246D01*
X78742932Y-56380477D01*
X78763504Y-56341990D01*
X78792053Y-56247875D01*
X78801693Y-56150000D01*
X78801693Y-55850000D01*
X78792053Y-55752125D01*
X78763504Y-55658010D01*
X78742932Y-55619523D01*
X78817334Y-55579754D01*
X78917528Y-55497528D01*
X78999754Y-55397334D01*
X79060854Y-55283024D01*
X79098480Y-55158991D01*
X79111184Y-55030000D01*
X79108000Y-54998500D01*
X78943500Y-54834000D01*
X77579000Y-54834000D01*
X77579000Y-54854000D01*
X77371000Y-54854000D01*
X77371000Y-54834000D01*
X76006500Y-54834000D01*
X75842000Y-54998500D01*
X75838816Y-55030000D01*
X75851520Y-55158991D01*
X75889146Y-55283024D01*
X75950246Y-55397334D01*
X76032472Y-55497528D01*
X76132666Y-55579754D01*
X76207068Y-55619523D01*
X76186496Y-55658010D01*
X76157947Y-55752125D01*
X76148307Y-55850000D01*
X76148307Y-56150000D01*
X76157947Y-56247875D01*
X76186496Y-56341990D01*
X76207068Y-56380477D01*
X76132666Y-56420246D01*
X76032472Y-56502472D01*
X75950246Y-56602666D01*
X75889146Y-56716976D01*
X75851520Y-56841009D01*
X75838816Y-56970000D01*
X75842000Y-57001500D01*
X76006500Y-57166000D01*
X77371000Y-57166000D01*
X77371000Y-57146000D01*
X77579000Y-57146000D01*
X77579000Y-57166000D01*
X77599000Y-57166000D01*
X77599000Y-57374000D01*
X77579000Y-57374000D01*
X77579000Y-58436000D01*
X77599000Y-58436000D01*
X77599000Y-58644000D01*
X77579000Y-58644000D01*
X77579000Y-58664000D01*
X77371000Y-58664000D01*
X77371000Y-58644000D01*
X76006500Y-58644000D01*
X75842000Y-58808500D01*
X75840691Y-58821452D01*
X75750000Y-58730762D01*
X75750000Y-57570000D01*
X75838816Y-57570000D01*
X75851520Y-57698991D01*
X75889146Y-57823024D01*
X75932963Y-57905000D01*
X75889146Y-57986976D01*
X75851520Y-58111009D01*
X75838816Y-58240000D01*
X75842000Y-58271500D01*
X76006500Y-58436000D01*
X77371000Y-58436000D01*
X77371000Y-57374000D01*
X76006500Y-57374000D01*
X75842000Y-57538500D01*
X75838816Y-57570000D01*
X75750000Y-57570000D01*
X75750000Y-56231924D01*
X75753144Y-56200000D01*
X75750000Y-56168076D01*
X75750000Y-56168068D01*
X75740595Y-56072578D01*
X75703427Y-55950052D01*
X75643070Y-55837132D01*
X75561843Y-55738157D01*
X75537035Y-55717797D01*
X75382201Y-55562963D01*
X75361843Y-55538157D01*
X75262868Y-55456930D01*
X75149948Y-55396573D01*
X75027422Y-55359405D01*
X74931932Y-55350000D01*
X74931921Y-55350000D01*
X74900000Y-55346856D01*
X74868079Y-55350000D01*
X73520575Y-55350000D01*
X73541990Y-55343504D01*
X73628726Y-55297142D01*
X73704751Y-55234751D01*
X73767142Y-55158726D01*
X73813504Y-55071990D01*
X73842053Y-54977875D01*
X73851693Y-54880000D01*
X73851693Y-54580000D01*
X73842053Y-54482125D01*
X73813504Y-54388010D01*
X73767142Y-54301274D01*
X73704751Y-54225249D01*
X73628726Y-54162858D01*
X73541990Y-54116496D01*
X73471126Y-54095000D01*
X73541990Y-54073504D01*
X73628726Y-54027142D01*
X73649614Y-54010000D01*
X73693300Y-54010000D01*
X73792110Y-54076022D01*
X73910402Y-54125021D01*
X74035981Y-54150000D01*
X74164019Y-54150000D01*
X74289598Y-54125021D01*
X74407890Y-54076022D01*
X74514351Y-54004888D01*
X74604888Y-53914351D01*
X74676022Y-53807890D01*
X74695859Y-53760000D01*
X75838816Y-53760000D01*
X75851520Y-53888991D01*
X75889146Y-54013024D01*
X75932963Y-54095000D01*
X75889146Y-54176976D01*
X75851520Y-54301009D01*
X75838816Y-54430000D01*
X75842000Y-54461500D01*
X76006500Y-54626000D01*
X77371000Y-54626000D01*
X77371000Y-53564000D01*
X77579000Y-53564000D01*
X77579000Y-54626000D01*
X78943500Y-54626000D01*
X79108000Y-54461500D01*
X79111184Y-54430000D01*
X79098480Y-54301009D01*
X79060854Y-54176976D01*
X79017037Y-54095000D01*
X79060854Y-54013024D01*
X79098480Y-53888991D01*
X79111184Y-53760000D01*
X79108000Y-53728500D01*
X78943500Y-53564000D01*
X77579000Y-53564000D01*
X77371000Y-53564000D01*
X76006500Y-53564000D01*
X75842000Y-53728500D01*
X75838816Y-53760000D01*
X74695859Y-53760000D01*
X74725021Y-53689598D01*
X74750000Y-53564019D01*
X74750000Y-53435981D01*
X74725021Y-53310402D01*
X74676022Y-53192110D01*
X74654568Y-53160000D01*
X75838816Y-53160000D01*
X75842000Y-53191500D01*
X76006500Y-53356000D01*
X77371000Y-53356000D01*
X77371000Y-53336000D01*
X77579000Y-53336000D01*
X77579000Y-53356000D01*
X78943500Y-53356000D01*
X79108000Y-53191500D01*
X79111184Y-53160000D01*
X79098480Y-53031009D01*
X79060854Y-52906976D01*
X78999754Y-52792666D01*
X78917528Y-52692472D01*
X78817334Y-52610246D01*
X78742932Y-52570477D01*
X78763504Y-52531990D01*
X78792053Y-52437875D01*
X78801693Y-52340000D01*
X78801693Y-52040000D01*
X78792053Y-51942125D01*
X78763504Y-51848010D01*
X78717142Y-51761274D01*
X78654751Y-51685249D01*
X78578726Y-51622858D01*
X78491990Y-51576496D01*
X78397875Y-51547947D01*
X78300000Y-51538307D01*
X76650000Y-51538307D01*
X76552125Y-51547947D01*
X76458010Y-51576496D01*
X76371274Y-51622858D01*
X76295249Y-51685249D01*
X76232858Y-51761274D01*
X76186496Y-51848010D01*
X76157947Y-51942125D01*
X76148307Y-52040000D01*
X76148307Y-52340000D01*
X76157947Y-52437875D01*
X76186496Y-52531990D01*
X76207068Y-52570477D01*
X76132666Y-52610246D01*
X76032472Y-52692472D01*
X75950246Y-52792666D01*
X75889146Y-52906976D01*
X75851520Y-53031009D01*
X75838816Y-53160000D01*
X74654568Y-53160000D01*
X74604888Y-53085649D01*
X74514351Y-52995112D01*
X74407890Y-52923978D01*
X74289598Y-52874979D01*
X74164019Y-52850000D01*
X74053674Y-52850000D01*
X74110854Y-52743024D01*
X74148480Y-52618991D01*
X74161184Y-52490000D01*
X74158000Y-52458500D01*
X73993500Y-52294000D01*
X72629000Y-52294000D01*
X72629000Y-52314000D01*
X72421000Y-52314000D01*
X72421000Y-52294000D01*
X71056500Y-52294000D01*
X70892000Y-52458500D01*
X70888816Y-52490000D01*
X70901520Y-52618991D01*
X70939146Y-52743024D01*
X71000246Y-52857334D01*
X71082472Y-52957528D01*
X71182666Y-53039754D01*
X71257068Y-53079523D01*
X71236496Y-53118010D01*
X71207947Y-53212125D01*
X71198307Y-53310000D01*
X71198307Y-53610000D01*
X71207947Y-53707875D01*
X71236496Y-53801990D01*
X71282858Y-53888726D01*
X71345249Y-53964751D01*
X71421274Y-54027142D01*
X71508010Y-54073504D01*
X71578874Y-54095000D01*
X71508010Y-54116496D01*
X71421274Y-54162858D01*
X71400386Y-54180000D01*
X69649310Y-54180000D01*
X69602292Y-54122708D01*
X69512060Y-54048657D01*
X69409116Y-53993632D01*
X69297415Y-53959748D01*
X69181250Y-53948307D01*
X68693750Y-53948307D01*
X68577585Y-53959748D01*
X68465884Y-53993632D01*
X68362940Y-54048657D01*
X68272708Y-54122708D01*
X68198657Y-54212940D01*
X68143632Y-54315884D01*
X68109748Y-54427585D01*
X68098307Y-54543750D01*
X68098307Y-55456250D01*
X68109748Y-55572415D01*
X68143632Y-55684116D01*
X68198657Y-55787060D01*
X68272708Y-55877292D01*
X68362940Y-55951343D01*
X68453970Y-56000000D01*
X68362940Y-56048657D01*
X68272708Y-56122708D01*
X68198657Y-56212940D01*
X68143632Y-56315884D01*
X68109748Y-56427585D01*
X68098307Y-56543750D01*
X68098307Y-57456250D01*
X68109748Y-57572415D01*
X68143632Y-57684116D01*
X68198657Y-57787060D01*
X68272708Y-57877292D01*
X68362940Y-57951343D01*
X68465884Y-58006368D01*
X68577585Y-58040252D01*
X68693750Y-58051693D01*
X69181250Y-58051693D01*
X69297415Y-58040252D01*
X69409116Y-58006368D01*
X69512060Y-57951343D01*
X69600745Y-57878562D01*
X70631992Y-58909810D01*
X70649210Y-58930790D01*
X70670190Y-58948008D01*
X70670195Y-58948013D01*
X70732958Y-58999521D01*
X70828506Y-59050592D01*
X70932181Y-59082042D01*
X71012982Y-59090000D01*
X71012992Y-59090000D01*
X71040000Y-59092660D01*
X71067008Y-59090000D01*
X71400386Y-59090000D01*
X71421274Y-59107142D01*
X71508010Y-59153504D01*
X71578874Y-59175000D01*
X71508010Y-59196496D01*
X71421274Y-59242858D01*
X71345249Y-59305249D01*
X71282858Y-59381274D01*
X71236496Y-59468010D01*
X71207947Y-59562125D01*
X71198307Y-59660000D01*
X71198307Y-59960000D01*
X71207947Y-60057875D01*
X71236496Y-60151990D01*
X71282858Y-60238726D01*
X71345249Y-60314751D01*
X71421274Y-60377142D01*
X71508010Y-60423504D01*
X71602125Y-60452053D01*
X71700000Y-60461693D01*
X73350000Y-60461693D01*
X73367189Y-60460000D01*
X75878078Y-60460000D01*
X75910000Y-60463144D01*
X75941921Y-60460000D01*
X76632811Y-60460000D01*
X76650000Y-60461693D01*
X78300000Y-60461693D01*
X78317189Y-60460000D01*
X78888000Y-60460000D01*
X78922708Y-60502292D01*
X79012940Y-60576343D01*
X79115884Y-60631368D01*
X79150000Y-60641717D01*
X79150001Y-66650000D01*
X63500000Y-66650000D01*
X63454316Y-66652994D01*
X63324906Y-66670031D01*
X63236651Y-66693679D01*
X63116061Y-66743629D01*
X63036932Y-66789315D01*
X62933379Y-66868775D01*
X62868775Y-66933379D01*
X62789315Y-67036932D01*
X62743629Y-67116061D01*
X62693679Y-67236651D01*
X62670031Y-67324906D01*
X62652994Y-67454316D01*
X62650000Y-67500000D01*
X62650000Y-68723274D01*
X62525481Y-68789832D01*
X62428480Y-68869438D01*
X62428475Y-68869443D01*
X62396052Y-68896052D01*
X62369443Y-68928475D01*
X61428481Y-69869439D01*
X61396053Y-69896052D01*
X61289833Y-70025481D01*
X61247891Y-70103948D01*
X61210903Y-70173146D01*
X61162300Y-70333371D01*
X61145889Y-70500000D01*
X61150001Y-70541751D01*
X61150000Y-77647919D01*
X59528481Y-79269439D01*
X59496053Y-79296052D01*
X59389833Y-79425481D01*
X59347644Y-79504411D01*
X59310903Y-79573146D01*
X59262300Y-79733371D01*
X59245889Y-79900000D01*
X59250001Y-79941751D01*
X59250001Y-79948307D01*
X58850000Y-79948307D01*
X58732616Y-79959868D01*
X58619742Y-79994108D01*
X58515717Y-80049711D01*
X58424539Y-80124539D01*
X58349711Y-80215717D01*
X58311342Y-80287500D01*
X58204248Y-80287500D01*
X58162500Y-80283388D01*
X58120751Y-80287500D01*
X57714668Y-80287500D01*
X57680259Y-80269108D01*
X57567385Y-80234868D01*
X57450001Y-80223307D01*
X54549999Y-80223307D01*
X54432615Y-80234868D01*
X54319741Y-80269108D01*
X54215717Y-80324710D01*
X54124539Y-80399539D01*
X54049710Y-80490717D01*
X53994108Y-80594741D01*
X53959868Y-80707615D01*
X53948307Y-80824999D01*
X50375000Y-80824999D01*
X50375000Y-60011779D01*
X50426072Y-59200000D01*
X51147340Y-59200000D01*
X51150001Y-59227018D01*
X51150000Y-67772992D01*
X51147340Y-67800000D01*
X51150000Y-67827008D01*
X51150000Y-67827017D01*
X51157958Y-67907818D01*
X51189408Y-68011493D01*
X51240479Y-68107042D01*
X51309210Y-68190790D01*
X51330196Y-68208013D01*
X54571987Y-71449804D01*
X54589210Y-71470790D01*
X54628406Y-71502958D01*
X54642413Y-71549133D01*
X54755699Y-71761075D01*
X54908156Y-71946844D01*
X55033852Y-72050000D01*
X53500000Y-72050000D01*
X53470736Y-72052882D01*
X53442597Y-72061418D01*
X53416664Y-72075280D01*
X53393934Y-72093934D01*
X53375280Y-72116664D01*
X53361418Y-72142597D01*
X53352882Y-72170736D01*
X53350000Y-72200000D01*
X53350000Y-78000000D01*
X53352882Y-78029264D01*
X53361418Y-78057403D01*
X53375280Y-78083336D01*
X53393934Y-78106066D01*
X53416664Y-78124720D01*
X53442597Y-78138582D01*
X53470736Y-78147118D01*
X53500000Y-78150000D01*
X58500000Y-78150000D01*
X58529264Y-78147118D01*
X58557403Y-78138582D01*
X58583336Y-78124720D01*
X58606066Y-78106066D01*
X58624720Y-78083336D01*
X58638582Y-78057403D01*
X58647118Y-78029264D01*
X58650000Y-78000000D01*
X58650000Y-72200000D01*
X58647118Y-72170736D01*
X58638582Y-72142597D01*
X58624720Y-72116664D01*
X58606066Y-72093934D01*
X58583336Y-72075280D01*
X58557403Y-72061418D01*
X58529264Y-72052882D01*
X58500000Y-72050000D01*
X56966148Y-72050000D01*
X57091844Y-71946844D01*
X57244301Y-71761075D01*
X57357587Y-71549133D01*
X57427348Y-71319162D01*
X57450903Y-71080000D01*
X57427348Y-70840838D01*
X57357587Y-70610867D01*
X57244301Y-70398925D01*
X57091844Y-70213156D01*
X56906075Y-70060699D01*
X56694133Y-69947413D01*
X56464162Y-69877652D01*
X56284935Y-69860000D01*
X55715065Y-69860000D01*
X55535838Y-69877652D01*
X55305867Y-69947413D01*
X55093925Y-70060699D01*
X54908156Y-70213156D01*
X54900411Y-70222594D01*
X53767817Y-69090000D01*
X54685638Y-69090000D01*
X54755699Y-69221075D01*
X54908156Y-69406844D01*
X55093925Y-69559301D01*
X55305867Y-69672587D01*
X55535838Y-69742348D01*
X55715065Y-69760000D01*
X56284935Y-69760000D01*
X56464162Y-69742348D01*
X56694133Y-69672587D01*
X56906075Y-69559301D01*
X57091844Y-69406844D01*
X57244301Y-69221075D01*
X57357587Y-69009133D01*
X57427348Y-68779162D01*
X57450903Y-68540000D01*
X57427348Y-68300838D01*
X57357587Y-68070867D01*
X57244301Y-67858925D01*
X57091844Y-67673156D01*
X56918020Y-67530502D01*
X57095000Y-67531184D01*
X57223991Y-67518480D01*
X57348024Y-67480854D01*
X57462334Y-67419754D01*
X57562528Y-67337528D01*
X57644754Y-67237334D01*
X57705854Y-67123024D01*
X57743480Y-66998991D01*
X57756184Y-66870000D01*
X57753000Y-66268500D01*
X57588500Y-66104000D01*
X56104000Y-66104000D01*
X56104000Y-66124000D01*
X55896000Y-66124000D01*
X55896000Y-66104000D01*
X54411500Y-66104000D01*
X54247000Y-66268500D01*
X54243816Y-66870000D01*
X54256520Y-66998991D01*
X54294146Y-67123024D01*
X54355246Y-67237334D01*
X54437472Y-67337528D01*
X54537666Y-67419754D01*
X54651976Y-67480854D01*
X54776009Y-67518480D01*
X54905000Y-67531184D01*
X55081980Y-67530502D01*
X54908156Y-67673156D01*
X54755699Y-67858925D01*
X54685638Y-67990000D01*
X53767818Y-67990000D01*
X53050000Y-67272183D01*
X53050000Y-65130000D01*
X54243816Y-65130000D01*
X54247000Y-65731500D01*
X54411500Y-65896000D01*
X55896000Y-65896000D01*
X55896000Y-64636500D01*
X56104000Y-64636500D01*
X56104000Y-65896000D01*
X57588500Y-65896000D01*
X57753000Y-65731500D01*
X57756184Y-65130000D01*
X57743480Y-65001009D01*
X57705854Y-64876976D01*
X57644754Y-64762666D01*
X57562528Y-64662472D01*
X57462334Y-64580246D01*
X57348024Y-64519146D01*
X57223991Y-64481520D01*
X57095000Y-64468816D01*
X56268500Y-64472000D01*
X56104000Y-64636500D01*
X55896000Y-64636500D01*
X55731500Y-64472000D01*
X54905000Y-64468816D01*
X54776009Y-64481520D01*
X54651976Y-64519146D01*
X54537666Y-64580246D01*
X54437472Y-64662472D01*
X54355246Y-64762666D01*
X54294146Y-64876976D01*
X54256520Y-65001009D01*
X54243816Y-65130000D01*
X53050000Y-65130000D01*
X53050000Y-59727817D01*
X57227818Y-55550000D01*
X63772183Y-55550000D01*
X65591992Y-57369810D01*
X65609210Y-57390790D01*
X65630190Y-57408008D01*
X65630195Y-57408013D01*
X65692957Y-57459521D01*
X65721917Y-57475000D01*
X65788506Y-57510592D01*
X65892181Y-57542042D01*
X65972982Y-57550000D01*
X65972991Y-57550000D01*
X65999999Y-57552660D01*
X66027007Y-57550000D01*
X66232540Y-57550000D01*
X66234748Y-57572415D01*
X66268632Y-57684116D01*
X66323657Y-57787060D01*
X66397708Y-57877292D01*
X66487940Y-57951343D01*
X66590884Y-58006368D01*
X66702585Y-58040252D01*
X66818750Y-58051693D01*
X67306250Y-58051693D01*
X67422415Y-58040252D01*
X67534116Y-58006368D01*
X67637060Y-57951343D01*
X67727292Y-57877292D01*
X67801343Y-57787060D01*
X67856368Y-57684116D01*
X67890252Y-57572415D01*
X67901693Y-57456250D01*
X67901693Y-56543750D01*
X67890252Y-56427585D01*
X67856368Y-56315884D01*
X67801343Y-56212940D01*
X67727292Y-56122708D01*
X67637060Y-56048657D01*
X67546030Y-56000000D01*
X67637060Y-55951343D01*
X67727292Y-55877292D01*
X67801343Y-55787060D01*
X67856368Y-55684116D01*
X67890252Y-55572415D01*
X67901693Y-55456250D01*
X67901693Y-54543750D01*
X67890252Y-54427585D01*
X67856368Y-54315884D01*
X67801343Y-54212940D01*
X67727292Y-54122708D01*
X67637060Y-54048657D01*
X67534116Y-53993632D01*
X67422415Y-53959748D01*
X67306250Y-53948307D01*
X66818750Y-53948307D01*
X66702585Y-53959748D01*
X66590884Y-53993632D01*
X66487940Y-54048657D01*
X66397708Y-54122708D01*
X66323657Y-54212940D01*
X66268632Y-54315884D01*
X66234748Y-54427585D01*
X66232540Y-54450000D01*
X66227818Y-54450000D01*
X65608013Y-53830196D01*
X65590790Y-53809210D01*
X65507042Y-53740479D01*
X65411494Y-53689408D01*
X65307819Y-53657958D01*
X65227018Y-53650000D01*
X65227008Y-53650000D01*
X65200000Y-53647340D01*
X65172992Y-53650000D01*
X56727011Y-53650000D01*
X56700000Y-53647340D01*
X56672989Y-53650000D01*
X56672982Y-53650000D01*
X56592181Y-53657958D01*
X56488505Y-53689408D01*
X56433109Y-53719018D01*
X56392958Y-53740479D01*
X56309210Y-53809210D01*
X56291987Y-53830196D01*
X51330191Y-58791992D01*
X51309211Y-58809210D01*
X51291993Y-58830190D01*
X51291987Y-58830196D01*
X51240479Y-58892958D01*
X51199840Y-58968991D01*
X51189409Y-58988506D01*
X51157959Y-59092181D01*
X51157648Y-59095335D01*
X51147340Y-59200000D01*
X50426072Y-59200000D01*
X50451631Y-58793763D01*
X50678106Y-57606540D01*
X51051590Y-56457074D01*
X51566197Y-55363479D01*
X52213813Y-54343000D01*
X52984217Y-53411742D01*
X53865268Y-52584380D01*
X54821000Y-51890000D01*
X70888816Y-51890000D01*
X70892000Y-51921500D01*
X71056500Y-52086000D01*
X72421000Y-52086000D01*
X72421000Y-51396500D01*
X72629000Y-51396500D01*
X72629000Y-52086000D01*
X73993500Y-52086000D01*
X74158000Y-51921500D01*
X74161184Y-51890000D01*
X74148480Y-51761009D01*
X74110854Y-51636976D01*
X74049754Y-51522666D01*
X73967528Y-51422472D01*
X73867334Y-51340246D01*
X73753024Y-51279146D01*
X73628991Y-51241520D01*
X73500000Y-51228816D01*
X72793500Y-51232000D01*
X72629000Y-51396500D01*
X72421000Y-51396500D01*
X72256500Y-51232000D01*
X71550000Y-51228816D01*
X71421009Y-51241520D01*
X71296976Y-51279146D01*
X71182666Y-51340246D01*
X71082472Y-51422472D01*
X71000246Y-51522666D01*
X70939146Y-51636976D01*
X70901520Y-51761009D01*
X70888816Y-51890000D01*
X54821000Y-51890000D01*
X54843063Y-51873971D01*
X55902192Y-51291709D01*
X57025934Y-50846788D01*
X58196597Y-50546213D01*
X59401548Y-50393993D01*
X60005892Y-50375000D01*
X239988216Y-50375000D01*
X241206237Y-50451631D01*
G37*
X241206237Y-50451631D02*
X242393460Y-50678106D01*
X243542926Y-51051590D01*
X244636521Y-51566197D01*
X245657000Y-52213813D01*
X246588258Y-52984217D01*
X247415620Y-53865268D01*
X248126029Y-54843063D01*
X248708291Y-55902192D01*
X249153212Y-57025934D01*
X249453787Y-58196597D01*
X249606007Y-59401548D01*
X249625000Y-60005892D01*
X249625001Y-109988200D01*
X249548369Y-111206237D01*
X249321894Y-112393458D01*
X248948410Y-113542926D01*
X248433803Y-114636521D01*
X247786187Y-115657000D01*
X247015783Y-116588258D01*
X246134736Y-117415616D01*
X245156941Y-118126027D01*
X244097808Y-118708291D01*
X242974063Y-119153212D01*
X241803403Y-119453787D01*
X240598451Y-119606007D01*
X239994108Y-119625000D01*
X60011784Y-119625000D01*
X58793763Y-119548369D01*
X57606542Y-119321894D01*
X56457074Y-118948410D01*
X55363479Y-118433803D01*
X54343000Y-117786187D01*
X53411742Y-117015783D01*
X52584384Y-116134736D01*
X51873973Y-115156941D01*
X51291709Y-114097808D01*
X50846788Y-112974063D01*
X50546213Y-111803403D01*
X50393993Y-110598451D01*
X50375000Y-109994108D01*
X50375000Y-80824999D01*
X53948307Y-80824999D01*
X53948307Y-81450001D01*
X53959868Y-81567385D01*
X53994108Y-81680259D01*
X54049710Y-81784283D01*
X54124539Y-81875461D01*
X54215717Y-81950290D01*
X54319741Y-82005892D01*
X54432615Y-82040132D01*
X54549999Y-82051693D01*
X57312500Y-82051693D01*
X57312501Y-87620749D01*
X57308389Y-87662500D01*
X57324800Y-87829129D01*
X57373403Y-87989354D01*
X57373404Y-87989355D01*
X57452333Y-88137019D01*
X57558553Y-88266448D01*
X57590981Y-88293061D01*
X57650000Y-88352080D01*
X57650000Y-92000000D01*
X57652994Y-92045684D01*
X57670031Y-92175094D01*
X57693679Y-92263349D01*
X57743629Y-92383939D01*
X57789315Y-92463068D01*
X57868775Y-92566621D01*
X57933379Y-92631225D01*
X58036932Y-92710685D01*
X58116061Y-92756371D01*
X58150001Y-92770429D01*
X58150000Y-100958259D01*
X58145889Y-101000000D01*
X58150000Y-101041741D01*
X58150000Y-101041748D01*
X58153093Y-101073146D01*
X58162300Y-101166629D01*
X58182546Y-101233371D01*
X58210903Y-101326854D01*
X58289832Y-101474518D01*
X58396052Y-101603948D01*
X58428485Y-101630565D01*
X58828480Y-102030561D01*
X58828486Y-102030566D01*
X67119439Y-110321520D01*
X67146052Y-110353948D01*
X67275481Y-110460168D01*
X67414818Y-110534646D01*
X67423145Y-110539097D01*
X67583370Y-110587700D01*
X67599013Y-110589241D01*
X67708251Y-110600000D01*
X67708258Y-110600000D01*
X67749999Y-110604111D01*
X67791740Y-110600000D01*
X68160145Y-110600000D01*
X68170031Y-110675094D01*
X68193679Y-110763349D01*
X68243629Y-110883939D01*
X68289315Y-110963068D01*
X68368775Y-111066621D01*
X68433379Y-111131225D01*
X68536932Y-111210685D01*
X68616061Y-111256371D01*
X68736651Y-111306321D01*
X68824906Y-111329969D01*
X68954316Y-111347006D01*
X69000000Y-111350000D01*
X231500000Y-111350000D01*
X231545684Y-111347006D01*
X231675094Y-111329969D01*
X231763349Y-111306321D01*
X231883939Y-111256371D01*
X231963068Y-111210685D01*
X232066621Y-111131225D01*
X232131225Y-111066621D01*
X232210685Y-110963068D01*
X232256371Y-110883939D01*
X232306321Y-110763349D01*
X232329969Y-110675094D01*
X232347006Y-110545684D01*
X232350000Y-110500000D01*
X232350000Y-109000000D01*
X232347006Y-108954316D01*
X232329969Y-108824906D01*
X232306321Y-108736651D01*
X232256371Y-108616061D01*
X232210685Y-108536932D01*
X232131225Y-108433379D01*
X232066621Y-108368775D01*
X231963068Y-108289315D01*
X231883939Y-108243629D01*
X231763349Y-108193679D01*
X231675094Y-108170031D01*
X231545684Y-108152994D01*
X231500000Y-108150000D01*
X69000000Y-108150000D01*
X68954316Y-108152994D01*
X68824906Y-108170031D01*
X68736651Y-108193679D01*
X68616061Y-108243629D01*
X68536932Y-108289315D01*
X68433379Y-108368775D01*
X68368775Y-108433379D01*
X68289315Y-108536932D01*
X68243629Y-108616061D01*
X68193679Y-108736651D01*
X68170031Y-108824906D01*
X68160145Y-108900000D01*
X68102081Y-108900000D01*
X60030566Y-100828486D01*
X60030561Y-100828480D01*
X59850000Y-100647919D01*
X59850000Y-92850000D01*
X243500000Y-92850000D01*
X243545684Y-92847006D01*
X243675094Y-92829969D01*
X243763349Y-92806321D01*
X243883939Y-92756371D01*
X243963068Y-92710685D01*
X244066621Y-92631225D01*
X244131225Y-92566621D01*
X244210685Y-92463068D01*
X244256371Y-92383939D01*
X244306321Y-92263349D01*
X244329969Y-92175094D01*
X244347006Y-92045684D01*
X244350000Y-92000000D01*
X244350000Y-88000000D01*
X244347006Y-87954316D01*
X244329969Y-87824906D01*
X244306321Y-87736651D01*
X244256371Y-87616061D01*
X244210685Y-87536932D01*
X244131225Y-87433379D01*
X244066621Y-87368775D01*
X243963068Y-87289315D01*
X243883939Y-87243629D01*
X243763349Y-87193679D01*
X243675094Y-87170031D01*
X243545684Y-87152994D01*
X243500000Y-87150000D01*
X59012500Y-87150000D01*
X59012500Y-82251693D01*
X61350000Y-82251693D01*
X61467384Y-82240132D01*
X61580258Y-82205892D01*
X61684283Y-82150289D01*
X61775461Y-82075461D01*
X61850289Y-81984283D01*
X61895339Y-81900000D01*
X62338816Y-81900000D01*
X62351520Y-82028991D01*
X62389146Y-82153024D01*
X62450246Y-82267334D01*
X62532472Y-82367528D01*
X62632666Y-82449754D01*
X62746976Y-82510854D01*
X62871009Y-82548480D01*
X63000000Y-82561184D01*
X64231500Y-82558000D01*
X64396000Y-82393500D01*
X64396000Y-81204000D01*
X64604000Y-81204000D01*
X64604000Y-82393500D01*
X64768500Y-82558000D01*
X66000000Y-82561184D01*
X66128991Y-82548480D01*
X66253024Y-82510854D01*
X66367334Y-82449754D01*
X66467528Y-82367528D01*
X66549754Y-82267334D01*
X66610854Y-82153024D01*
X66648480Y-82028991D01*
X66661184Y-81900000D01*
X66658000Y-81368500D01*
X66493500Y-81204000D01*
X64604000Y-81204000D01*
X64396000Y-81204000D01*
X62506500Y-81204000D01*
X62342000Y-81368500D01*
X62338816Y-81900000D01*
X61895339Y-81900000D01*
X61905892Y-81880258D01*
X61940132Y-81767384D01*
X61951693Y-81650000D01*
X61951693Y-80550000D01*
X61940132Y-80432616D01*
X61905892Y-80319742D01*
X61895340Y-80300000D01*
X62338816Y-80300000D01*
X62342000Y-80831500D01*
X62506500Y-80996000D01*
X64396000Y-80996000D01*
X64396000Y-79806500D01*
X64604000Y-79806500D01*
X64604000Y-80996000D01*
X66493500Y-80996000D01*
X66658000Y-80831500D01*
X66661184Y-80300000D01*
X66648480Y-80171009D01*
X66610854Y-80046976D01*
X66549754Y-79932666D01*
X66467528Y-79832472D01*
X66367334Y-79750246D01*
X66253024Y-79689146D01*
X66128991Y-79651520D01*
X66000000Y-79638816D01*
X64768500Y-79642000D01*
X64604000Y-79806500D01*
X64396000Y-79806500D01*
X64231500Y-79642000D01*
X63000000Y-79638816D01*
X62871009Y-79651520D01*
X62746976Y-79689146D01*
X62632666Y-79750246D01*
X62532472Y-79832472D01*
X62450246Y-79932666D01*
X62389146Y-80046976D01*
X62351520Y-80171009D01*
X62338816Y-80300000D01*
X61895340Y-80300000D01*
X61850289Y-80215717D01*
X61775461Y-80124539D01*
X61684283Y-80049711D01*
X61580258Y-79994108D01*
X61467384Y-79959868D01*
X61350000Y-79948307D01*
X61253773Y-79948307D01*
X62571521Y-78630560D01*
X62603948Y-78603948D01*
X62710168Y-78474519D01*
X62789097Y-78326855D01*
X62837700Y-78166629D01*
X62850000Y-78041749D01*
X62850000Y-78041741D01*
X62854111Y-78000000D01*
X62850000Y-77958259D01*
X62850000Y-72042153D01*
X62868775Y-72066621D01*
X62933379Y-72131225D01*
X63036932Y-72210685D01*
X63116061Y-72256371D01*
X63236651Y-72306321D01*
X63324906Y-72329969D01*
X63454316Y-72347006D01*
X63500000Y-72350000D01*
X233500000Y-72350000D01*
X233545684Y-72347006D01*
X233675094Y-72329969D01*
X233763349Y-72306321D01*
X233883939Y-72256371D01*
X233963068Y-72210685D01*
X234066621Y-72131225D01*
X234131225Y-72066621D01*
X234210685Y-71963068D01*
X234256371Y-71883939D01*
X234306321Y-71763349D01*
X234329969Y-71675094D01*
X234347006Y-71545684D01*
X234350000Y-71500000D01*
X234350000Y-67500000D01*
X234347006Y-67454316D01*
X234329969Y-67324906D01*
X234306321Y-67236651D01*
X234256371Y-67116061D01*
X234210685Y-67036932D01*
X234131225Y-66933379D01*
X234066621Y-66868775D01*
X233963068Y-66789315D01*
X233883939Y-66743629D01*
X233763349Y-66693679D01*
X233675094Y-66670031D01*
X233545684Y-66652994D01*
X233500000Y-66650000D01*
X80450000Y-66650000D01*
X80450000Y-60641717D01*
X80484116Y-60631368D01*
X80587060Y-60576343D01*
X80677292Y-60502292D01*
X80751343Y-60412060D01*
X80806368Y-60309116D01*
X80840252Y-60197415D01*
X80851693Y-60081250D01*
X80851693Y-59593750D01*
X80840252Y-59477585D01*
X80806368Y-59365884D01*
X80751343Y-59262940D01*
X80677292Y-59172708D01*
X80591360Y-59102186D01*
X80628991Y-59098480D01*
X80753024Y-59060854D01*
X80867334Y-58999754D01*
X80967528Y-58917528D01*
X81049754Y-58817334D01*
X81110854Y-58703024D01*
X81148480Y-58578991D01*
X81161184Y-58450000D01*
X81158000Y-58231000D01*
X80993500Y-58066500D01*
X79904000Y-58066500D01*
X79904000Y-58086500D01*
X79696000Y-58086500D01*
X79696000Y-58066500D01*
X79676000Y-58066500D01*
X79676000Y-57858500D01*
X79696000Y-57858500D01*
X79696000Y-56981500D01*
X79904000Y-56981500D01*
X79904000Y-57858500D01*
X80993500Y-57858500D01*
X81158000Y-57694000D01*
X81161184Y-57475000D01*
X81148480Y-57346009D01*
X81110854Y-57221976D01*
X81049754Y-57107666D01*
X80967528Y-57007472D01*
X80867334Y-56925246D01*
X80753024Y-56864146D01*
X80628991Y-56826520D01*
X80500000Y-56813816D01*
X80068500Y-56817000D01*
X79904000Y-56981500D01*
X79696000Y-56981500D01*
X79531500Y-56817000D01*
X79100000Y-56813816D01*
X79090514Y-56814750D01*
X79060854Y-56716976D01*
X78999754Y-56602666D01*
X78917528Y-56502472D01*
X78817334Y-56420246D01*
X78742932Y-56380477D01*
X78763504Y-56341990D01*
X78792053Y-56247875D01*
X78801693Y-56150000D01*
X78801693Y-55850000D01*
X78792053Y-55752125D01*
X78763504Y-55658010D01*
X78742932Y-55619523D01*
X78817334Y-55579754D01*
X78917528Y-55497528D01*
X78999754Y-55397334D01*
X79060854Y-55283024D01*
X79098480Y-55158991D01*
X79111184Y-55030000D01*
X79108000Y-54998500D01*
X78943500Y-54834000D01*
X77579000Y-54834000D01*
X77579000Y-54854000D01*
X77371000Y-54854000D01*
X77371000Y-54834000D01*
X76006500Y-54834000D01*
X75842000Y-54998500D01*
X75838816Y-55030000D01*
X75851520Y-55158991D01*
X75889146Y-55283024D01*
X75950246Y-55397334D01*
X76032472Y-55497528D01*
X76132666Y-55579754D01*
X76207068Y-55619523D01*
X76186496Y-55658010D01*
X76157947Y-55752125D01*
X76148307Y-55850000D01*
X76148307Y-56150000D01*
X76157947Y-56247875D01*
X76186496Y-56341990D01*
X76207068Y-56380477D01*
X76132666Y-56420246D01*
X76032472Y-56502472D01*
X75950246Y-56602666D01*
X75889146Y-56716976D01*
X75851520Y-56841009D01*
X75838816Y-56970000D01*
X75842000Y-57001500D01*
X76006500Y-57166000D01*
X77371000Y-57166000D01*
X77371000Y-57146000D01*
X77579000Y-57146000D01*
X77579000Y-57166000D01*
X77599000Y-57166000D01*
X77599000Y-57374000D01*
X77579000Y-57374000D01*
X77579000Y-58436000D01*
X77599000Y-58436000D01*
X77599000Y-58644000D01*
X77579000Y-58644000D01*
X77579000Y-58664000D01*
X77371000Y-58664000D01*
X77371000Y-58644000D01*
X76006500Y-58644000D01*
X75842000Y-58808500D01*
X75840691Y-58821452D01*
X75750000Y-58730762D01*
X75750000Y-57570000D01*
X75838816Y-57570000D01*
X75851520Y-57698991D01*
X75889146Y-57823024D01*
X75932963Y-57905000D01*
X75889146Y-57986976D01*
X75851520Y-58111009D01*
X75838816Y-58240000D01*
X75842000Y-58271500D01*
X76006500Y-58436000D01*
X77371000Y-58436000D01*
X77371000Y-57374000D01*
X76006500Y-57374000D01*
X75842000Y-57538500D01*
X75838816Y-57570000D01*
X75750000Y-57570000D01*
X75750000Y-56231924D01*
X75753144Y-56200000D01*
X75750000Y-56168076D01*
X75750000Y-56168068D01*
X75740595Y-56072578D01*
X75703427Y-55950052D01*
X75643070Y-55837132D01*
X75561843Y-55738157D01*
X75537035Y-55717797D01*
X75382201Y-55562963D01*
X75361843Y-55538157D01*
X75262868Y-55456930D01*
X75149948Y-55396573D01*
X75027422Y-55359405D01*
X74931932Y-55350000D01*
X74931921Y-55350000D01*
X74900000Y-55346856D01*
X74868079Y-55350000D01*
X73520575Y-55350000D01*
X73541990Y-55343504D01*
X73628726Y-55297142D01*
X73704751Y-55234751D01*
X73767142Y-55158726D01*
X73813504Y-55071990D01*
X73842053Y-54977875D01*
X73851693Y-54880000D01*
X73851693Y-54580000D01*
X73842053Y-54482125D01*
X73813504Y-54388010D01*
X73767142Y-54301274D01*
X73704751Y-54225249D01*
X73628726Y-54162858D01*
X73541990Y-54116496D01*
X73471126Y-54095000D01*
X73541990Y-54073504D01*
X73628726Y-54027142D01*
X73649614Y-54010000D01*
X73693300Y-54010000D01*
X73792110Y-54076022D01*
X73910402Y-54125021D01*
X74035981Y-54150000D01*
X74164019Y-54150000D01*
X74289598Y-54125021D01*
X74407890Y-54076022D01*
X74514351Y-54004888D01*
X74604888Y-53914351D01*
X74676022Y-53807890D01*
X74695859Y-53760000D01*
X75838816Y-53760000D01*
X75851520Y-53888991D01*
X75889146Y-54013024D01*
X75932963Y-54095000D01*
X75889146Y-54176976D01*
X75851520Y-54301009D01*
X75838816Y-54430000D01*
X75842000Y-54461500D01*
X76006500Y-54626000D01*
X77371000Y-54626000D01*
X77371000Y-53564000D01*
X77579000Y-53564000D01*
X77579000Y-54626000D01*
X78943500Y-54626000D01*
X79108000Y-54461500D01*
X79111184Y-54430000D01*
X79098480Y-54301009D01*
X79060854Y-54176976D01*
X79017037Y-54095000D01*
X79060854Y-54013024D01*
X79098480Y-53888991D01*
X79111184Y-53760000D01*
X79108000Y-53728500D01*
X78943500Y-53564000D01*
X77579000Y-53564000D01*
X77371000Y-53564000D01*
X76006500Y-53564000D01*
X75842000Y-53728500D01*
X75838816Y-53760000D01*
X74695859Y-53760000D01*
X74725021Y-53689598D01*
X74750000Y-53564019D01*
X74750000Y-53435981D01*
X74725021Y-53310402D01*
X74676022Y-53192110D01*
X74654568Y-53160000D01*
X75838816Y-53160000D01*
X75842000Y-53191500D01*
X76006500Y-53356000D01*
X77371000Y-53356000D01*
X77371000Y-53336000D01*
X77579000Y-53336000D01*
X77579000Y-53356000D01*
X78943500Y-53356000D01*
X79108000Y-53191500D01*
X79111184Y-53160000D01*
X79098480Y-53031009D01*
X79060854Y-52906976D01*
X78999754Y-52792666D01*
X78917528Y-52692472D01*
X78817334Y-52610246D01*
X78742932Y-52570477D01*
X78763504Y-52531990D01*
X78792053Y-52437875D01*
X78801693Y-52340000D01*
X78801693Y-52040000D01*
X78792053Y-51942125D01*
X78763504Y-51848010D01*
X78717142Y-51761274D01*
X78654751Y-51685249D01*
X78578726Y-51622858D01*
X78491990Y-51576496D01*
X78397875Y-51547947D01*
X78300000Y-51538307D01*
X76650000Y-51538307D01*
X76552125Y-51547947D01*
X76458010Y-51576496D01*
X76371274Y-51622858D01*
X76295249Y-51685249D01*
X76232858Y-51761274D01*
X76186496Y-51848010D01*
X76157947Y-51942125D01*
X76148307Y-52040000D01*
X76148307Y-52340000D01*
X76157947Y-52437875D01*
X76186496Y-52531990D01*
X76207068Y-52570477D01*
X76132666Y-52610246D01*
X76032472Y-52692472D01*
X75950246Y-52792666D01*
X75889146Y-52906976D01*
X75851520Y-53031009D01*
X75838816Y-53160000D01*
X74654568Y-53160000D01*
X74604888Y-53085649D01*
X74514351Y-52995112D01*
X74407890Y-52923978D01*
X74289598Y-52874979D01*
X74164019Y-52850000D01*
X74053674Y-52850000D01*
X74110854Y-52743024D01*
X74148480Y-52618991D01*
X74161184Y-52490000D01*
X74158000Y-52458500D01*
X73993500Y-52294000D01*
X72629000Y-52294000D01*
X72629000Y-52314000D01*
X72421000Y-52314000D01*
X72421000Y-52294000D01*
X71056500Y-52294000D01*
X70892000Y-52458500D01*
X70888816Y-52490000D01*
X70901520Y-52618991D01*
X70939146Y-52743024D01*
X71000246Y-52857334D01*
X71082472Y-52957528D01*
X71182666Y-53039754D01*
X71257068Y-53079523D01*
X71236496Y-53118010D01*
X71207947Y-53212125D01*
X71198307Y-53310000D01*
X71198307Y-53610000D01*
X71207947Y-53707875D01*
X71236496Y-53801990D01*
X71282858Y-53888726D01*
X71345249Y-53964751D01*
X71421274Y-54027142D01*
X71508010Y-54073504D01*
X71578874Y-54095000D01*
X71508010Y-54116496D01*
X71421274Y-54162858D01*
X71400386Y-54180000D01*
X69649310Y-54180000D01*
X69602292Y-54122708D01*
X69512060Y-54048657D01*
X69409116Y-53993632D01*
X69297415Y-53959748D01*
X69181250Y-53948307D01*
X68693750Y-53948307D01*
X68577585Y-53959748D01*
X68465884Y-53993632D01*
X68362940Y-54048657D01*
X68272708Y-54122708D01*
X68198657Y-54212940D01*
X68143632Y-54315884D01*
X68109748Y-54427585D01*
X68098307Y-54543750D01*
X68098307Y-55456250D01*
X68109748Y-55572415D01*
X68143632Y-55684116D01*
X68198657Y-55787060D01*
X68272708Y-55877292D01*
X68362940Y-55951343D01*
X68453970Y-56000000D01*
X68362940Y-56048657D01*
X68272708Y-56122708D01*
X68198657Y-56212940D01*
X68143632Y-56315884D01*
X68109748Y-56427585D01*
X68098307Y-56543750D01*
X68098307Y-57456250D01*
X68109748Y-57572415D01*
X68143632Y-57684116D01*
X68198657Y-57787060D01*
X68272708Y-57877292D01*
X68362940Y-57951343D01*
X68465884Y-58006368D01*
X68577585Y-58040252D01*
X68693750Y-58051693D01*
X69181250Y-58051693D01*
X69297415Y-58040252D01*
X69409116Y-58006368D01*
X69512060Y-57951343D01*
X69600745Y-57878562D01*
X70631992Y-58909810D01*
X70649210Y-58930790D01*
X70670190Y-58948008D01*
X70670195Y-58948013D01*
X70732958Y-58999521D01*
X70828506Y-59050592D01*
X70932181Y-59082042D01*
X71012982Y-59090000D01*
X71012992Y-59090000D01*
X71040000Y-59092660D01*
X71067008Y-59090000D01*
X71400386Y-59090000D01*
X71421274Y-59107142D01*
X71508010Y-59153504D01*
X71578874Y-59175000D01*
X71508010Y-59196496D01*
X71421274Y-59242858D01*
X71345249Y-59305249D01*
X71282858Y-59381274D01*
X71236496Y-59468010D01*
X71207947Y-59562125D01*
X71198307Y-59660000D01*
X71198307Y-59960000D01*
X71207947Y-60057875D01*
X71236496Y-60151990D01*
X71282858Y-60238726D01*
X71345249Y-60314751D01*
X71421274Y-60377142D01*
X71508010Y-60423504D01*
X71602125Y-60452053D01*
X71700000Y-60461693D01*
X73350000Y-60461693D01*
X73367189Y-60460000D01*
X75878078Y-60460000D01*
X75910000Y-60463144D01*
X75941921Y-60460000D01*
X76632811Y-60460000D01*
X76650000Y-60461693D01*
X78300000Y-60461693D01*
X78317189Y-60460000D01*
X78888000Y-60460000D01*
X78922708Y-60502292D01*
X79012940Y-60576343D01*
X79115884Y-60631368D01*
X79150000Y-60641717D01*
X79150001Y-66650000D01*
X63500000Y-66650000D01*
X63454316Y-66652994D01*
X63324906Y-66670031D01*
X63236651Y-66693679D01*
X63116061Y-66743629D01*
X63036932Y-66789315D01*
X62933379Y-66868775D01*
X62868775Y-66933379D01*
X62789315Y-67036932D01*
X62743629Y-67116061D01*
X62693679Y-67236651D01*
X62670031Y-67324906D01*
X62652994Y-67454316D01*
X62650000Y-67500000D01*
X62650000Y-68723274D01*
X62525481Y-68789832D01*
X62428480Y-68869438D01*
X62428475Y-68869443D01*
X62396052Y-68896052D01*
X62369443Y-68928475D01*
X61428481Y-69869439D01*
X61396053Y-69896052D01*
X61289833Y-70025481D01*
X61247891Y-70103948D01*
X61210903Y-70173146D01*
X61162300Y-70333371D01*
X61145889Y-70500000D01*
X61150001Y-70541751D01*
X61150000Y-77647919D01*
X59528481Y-79269439D01*
X59496053Y-79296052D01*
X59389833Y-79425481D01*
X59347644Y-79504411D01*
X59310903Y-79573146D01*
X59262300Y-79733371D01*
X59245889Y-79900000D01*
X59250001Y-79941751D01*
X59250001Y-79948307D01*
X58850000Y-79948307D01*
X58732616Y-79959868D01*
X58619742Y-79994108D01*
X58515717Y-80049711D01*
X58424539Y-80124539D01*
X58349711Y-80215717D01*
X58311342Y-80287500D01*
X58204248Y-80287500D01*
X58162500Y-80283388D01*
X58120751Y-80287500D01*
X57714668Y-80287500D01*
X57680259Y-80269108D01*
X57567385Y-80234868D01*
X57450001Y-80223307D01*
X54549999Y-80223307D01*
X54432615Y-80234868D01*
X54319741Y-80269108D01*
X54215717Y-80324710D01*
X54124539Y-80399539D01*
X54049710Y-80490717D01*
X53994108Y-80594741D01*
X53959868Y-80707615D01*
X53948307Y-80824999D01*
X50375000Y-80824999D01*
X50375000Y-60011779D01*
X50426072Y-59200000D01*
X51147340Y-59200000D01*
X51150001Y-59227018D01*
X51150000Y-67772992D01*
X51147340Y-67800000D01*
X51150000Y-67827008D01*
X51150000Y-67827017D01*
X51157958Y-67907818D01*
X51189408Y-68011493D01*
X51240479Y-68107042D01*
X51309210Y-68190790D01*
X51330196Y-68208013D01*
X54571987Y-71449804D01*
X54589210Y-71470790D01*
X54628406Y-71502958D01*
X54642413Y-71549133D01*
X54755699Y-71761075D01*
X54908156Y-71946844D01*
X55033852Y-72050000D01*
X53500000Y-72050000D01*
X53470736Y-72052882D01*
X53442597Y-72061418D01*
X53416664Y-72075280D01*
X53393934Y-72093934D01*
X53375280Y-72116664D01*
X53361418Y-72142597D01*
X53352882Y-72170736D01*
X53350000Y-72200000D01*
X53350000Y-78000000D01*
X53352882Y-78029264D01*
X53361418Y-78057403D01*
X53375280Y-78083336D01*
X53393934Y-78106066D01*
X53416664Y-78124720D01*
X53442597Y-78138582D01*
X53470736Y-78147118D01*
X53500000Y-78150000D01*
X58500000Y-78150000D01*
X58529264Y-78147118D01*
X58557403Y-78138582D01*
X58583336Y-78124720D01*
X58606066Y-78106066D01*
X58624720Y-78083336D01*
X58638582Y-78057403D01*
X58647118Y-78029264D01*
X58650000Y-78000000D01*
X58650000Y-72200000D01*
X58647118Y-72170736D01*
X58638582Y-72142597D01*
X58624720Y-72116664D01*
X58606066Y-72093934D01*
X58583336Y-72075280D01*
X58557403Y-72061418D01*
X58529264Y-72052882D01*
X58500000Y-72050000D01*
X56966148Y-72050000D01*
X57091844Y-71946844D01*
X57244301Y-71761075D01*
X57357587Y-71549133D01*
X57427348Y-71319162D01*
X57450903Y-71080000D01*
X57427348Y-70840838D01*
X57357587Y-70610867D01*
X57244301Y-70398925D01*
X57091844Y-70213156D01*
X56906075Y-70060699D01*
X56694133Y-69947413D01*
X56464162Y-69877652D01*
X56284935Y-69860000D01*
X55715065Y-69860000D01*
X55535838Y-69877652D01*
X55305867Y-69947413D01*
X55093925Y-70060699D01*
X54908156Y-70213156D01*
X54900411Y-70222594D01*
X53767817Y-69090000D01*
X54685638Y-69090000D01*
X54755699Y-69221075D01*
X54908156Y-69406844D01*
X55093925Y-69559301D01*
X55305867Y-69672587D01*
X55535838Y-69742348D01*
X55715065Y-69760000D01*
X56284935Y-69760000D01*
X56464162Y-69742348D01*
X56694133Y-69672587D01*
X56906075Y-69559301D01*
X57091844Y-69406844D01*
X57244301Y-69221075D01*
X57357587Y-69009133D01*
X57427348Y-68779162D01*
X57450903Y-68540000D01*
X57427348Y-68300838D01*
X57357587Y-68070867D01*
X57244301Y-67858925D01*
X57091844Y-67673156D01*
X56918020Y-67530502D01*
X57095000Y-67531184D01*
X57223991Y-67518480D01*
X57348024Y-67480854D01*
X57462334Y-67419754D01*
X57562528Y-67337528D01*
X57644754Y-67237334D01*
X57705854Y-67123024D01*
X57743480Y-66998991D01*
X57756184Y-66870000D01*
X57753000Y-66268500D01*
X57588500Y-66104000D01*
X56104000Y-66104000D01*
X56104000Y-66124000D01*
X55896000Y-66124000D01*
X55896000Y-66104000D01*
X54411500Y-66104000D01*
X54247000Y-66268500D01*
X54243816Y-66870000D01*
X54256520Y-66998991D01*
X54294146Y-67123024D01*
X54355246Y-67237334D01*
X54437472Y-67337528D01*
X54537666Y-67419754D01*
X54651976Y-67480854D01*
X54776009Y-67518480D01*
X54905000Y-67531184D01*
X55081980Y-67530502D01*
X54908156Y-67673156D01*
X54755699Y-67858925D01*
X54685638Y-67990000D01*
X53767818Y-67990000D01*
X53050000Y-67272183D01*
X53050000Y-65130000D01*
X54243816Y-65130000D01*
X54247000Y-65731500D01*
X54411500Y-65896000D01*
X55896000Y-65896000D01*
X55896000Y-64636500D01*
X56104000Y-64636500D01*
X56104000Y-65896000D01*
X57588500Y-65896000D01*
X57753000Y-65731500D01*
X57756184Y-65130000D01*
X57743480Y-65001009D01*
X57705854Y-64876976D01*
X57644754Y-64762666D01*
X57562528Y-64662472D01*
X57462334Y-64580246D01*
X57348024Y-64519146D01*
X57223991Y-64481520D01*
X57095000Y-64468816D01*
X56268500Y-64472000D01*
X56104000Y-64636500D01*
X55896000Y-64636500D01*
X55731500Y-64472000D01*
X54905000Y-64468816D01*
X54776009Y-64481520D01*
X54651976Y-64519146D01*
X54537666Y-64580246D01*
X54437472Y-64662472D01*
X54355246Y-64762666D01*
X54294146Y-64876976D01*
X54256520Y-65001009D01*
X54243816Y-65130000D01*
X53050000Y-65130000D01*
X53050000Y-59727817D01*
X57227818Y-55550000D01*
X63772183Y-55550000D01*
X65591992Y-57369810D01*
X65609210Y-57390790D01*
X65630190Y-57408008D01*
X65630195Y-57408013D01*
X65692957Y-57459521D01*
X65721917Y-57475000D01*
X65788506Y-57510592D01*
X65892181Y-57542042D01*
X65972982Y-57550000D01*
X65972991Y-57550000D01*
X65999999Y-57552660D01*
X66027007Y-57550000D01*
X66232540Y-57550000D01*
X66234748Y-57572415D01*
X66268632Y-57684116D01*
X66323657Y-57787060D01*
X66397708Y-57877292D01*
X66487940Y-57951343D01*
X66590884Y-58006368D01*
X66702585Y-58040252D01*
X66818750Y-58051693D01*
X67306250Y-58051693D01*
X67422415Y-58040252D01*
X67534116Y-58006368D01*
X67637060Y-57951343D01*
X67727292Y-57877292D01*
X67801343Y-57787060D01*
X67856368Y-57684116D01*
X67890252Y-57572415D01*
X67901693Y-57456250D01*
X67901693Y-56543750D01*
X67890252Y-56427585D01*
X67856368Y-56315884D01*
X67801343Y-56212940D01*
X67727292Y-56122708D01*
X67637060Y-56048657D01*
X67546030Y-56000000D01*
X67637060Y-55951343D01*
X67727292Y-55877292D01*
X67801343Y-55787060D01*
X67856368Y-55684116D01*
X67890252Y-55572415D01*
X67901693Y-55456250D01*
X67901693Y-54543750D01*
X67890252Y-54427585D01*
X67856368Y-54315884D01*
X67801343Y-54212940D01*
X67727292Y-54122708D01*
X67637060Y-54048657D01*
X67534116Y-53993632D01*
X67422415Y-53959748D01*
X67306250Y-53948307D01*
X66818750Y-53948307D01*
X66702585Y-53959748D01*
X66590884Y-53993632D01*
X66487940Y-54048657D01*
X66397708Y-54122708D01*
X66323657Y-54212940D01*
X66268632Y-54315884D01*
X66234748Y-54427585D01*
X66232540Y-54450000D01*
X66227818Y-54450000D01*
X65608013Y-53830196D01*
X65590790Y-53809210D01*
X65507042Y-53740479D01*
X65411494Y-53689408D01*
X65307819Y-53657958D01*
X65227018Y-53650000D01*
X65227008Y-53650000D01*
X65200000Y-53647340D01*
X65172992Y-53650000D01*
X56727011Y-53650000D01*
X56700000Y-53647340D01*
X56672989Y-53650000D01*
X56672982Y-53650000D01*
X56592181Y-53657958D01*
X56488505Y-53689408D01*
X56433109Y-53719018D01*
X56392958Y-53740479D01*
X56309210Y-53809210D01*
X56291987Y-53830196D01*
X51330191Y-58791992D01*
X51309211Y-58809210D01*
X51291993Y-58830190D01*
X51291987Y-58830196D01*
X51240479Y-58892958D01*
X51199840Y-58968991D01*
X51189409Y-58988506D01*
X51157959Y-59092181D01*
X51157648Y-59095335D01*
X51147340Y-59200000D01*
X50426072Y-59200000D01*
X50451631Y-58793763D01*
X50678106Y-57606540D01*
X51051590Y-56457074D01*
X51566197Y-55363479D01*
X52213813Y-54343000D01*
X52984217Y-53411742D01*
X53865268Y-52584380D01*
X54821000Y-51890000D01*
X70888816Y-51890000D01*
X70892000Y-51921500D01*
X71056500Y-52086000D01*
X72421000Y-52086000D01*
X72421000Y-51396500D01*
X72629000Y-51396500D01*
X72629000Y-52086000D01*
X73993500Y-52086000D01*
X74158000Y-51921500D01*
X74161184Y-51890000D01*
X74148480Y-51761009D01*
X74110854Y-51636976D01*
X74049754Y-51522666D01*
X73967528Y-51422472D01*
X73867334Y-51340246D01*
X73753024Y-51279146D01*
X73628991Y-51241520D01*
X73500000Y-51228816D01*
X72793500Y-51232000D01*
X72629000Y-51396500D01*
X72421000Y-51396500D01*
X72256500Y-51232000D01*
X71550000Y-51228816D01*
X71421009Y-51241520D01*
X71296976Y-51279146D01*
X71182666Y-51340246D01*
X71082472Y-51422472D01*
X71000246Y-51522666D01*
X70939146Y-51636976D01*
X70901520Y-51761009D01*
X70888816Y-51890000D01*
X54821000Y-51890000D01*
X54843063Y-51873971D01*
X55902192Y-51291709D01*
X57025934Y-50846788D01*
X58196597Y-50546213D01*
X59401548Y-50393993D01*
X60005892Y-50375000D01*
X239988216Y-50375000D01*
X241206237Y-50451631D01*
G36*
X71421274Y-55297142D02*
G01*
X71508010Y-55343504D01*
X71578874Y-55365000D01*
X71508010Y-55386496D01*
X71421274Y-55432858D01*
X71345249Y-55495249D01*
X71282858Y-55571274D01*
X71236496Y-55658010D01*
X71207947Y-55752125D01*
X71198307Y-55850000D01*
X71198307Y-56150000D01*
X71207947Y-56247875D01*
X71236496Y-56341990D01*
X71282858Y-56428726D01*
X71345249Y-56504751D01*
X71421274Y-56567142D01*
X71508010Y-56613504D01*
X71578874Y-56635000D01*
X71508010Y-56656496D01*
X71421274Y-56702858D01*
X71345249Y-56765249D01*
X71282858Y-56841274D01*
X71236496Y-56928010D01*
X71207947Y-57022125D01*
X71198307Y-57120000D01*
X71198307Y-57420000D01*
X71207947Y-57517875D01*
X71236496Y-57611990D01*
X71282858Y-57698726D01*
X71345249Y-57774751D01*
X71421274Y-57837142D01*
X71508010Y-57883504D01*
X71578874Y-57905000D01*
X71508010Y-57926496D01*
X71421274Y-57972858D01*
X71400386Y-57990000D01*
X71267818Y-57990000D01*
X69908012Y-56630195D01*
X69890790Y-56609210D01*
X69807042Y-56540479D01*
X69774666Y-56523174D01*
X69765252Y-56427585D01*
X69731368Y-56315884D01*
X69676343Y-56212940D01*
X69602292Y-56122708D01*
X69512060Y-56048657D01*
X69421030Y-56000000D01*
X69512060Y-55951343D01*
X69602292Y-55877292D01*
X69676343Y-55787060D01*
X69731368Y-55684116D01*
X69765252Y-55572415D01*
X69776693Y-55456250D01*
X69776693Y-55280000D01*
X71400386Y-55280000D01*
X71421274Y-55297142D01*
G37*
X71421274Y-55297142D02*
X71508010Y-55343504D01*
X71578874Y-55365000D01*
X71508010Y-55386496D01*
X71421274Y-55432858D01*
X71345249Y-55495249D01*
X71282858Y-55571274D01*
X71236496Y-55658010D01*
X71207947Y-55752125D01*
X71198307Y-55850000D01*
X71198307Y-56150000D01*
X71207947Y-56247875D01*
X71236496Y-56341990D01*
X71282858Y-56428726D01*
X71345249Y-56504751D01*
X71421274Y-56567142D01*
X71508010Y-56613504D01*
X71578874Y-56635000D01*
X71508010Y-56656496D01*
X71421274Y-56702858D01*
X71345249Y-56765249D01*
X71282858Y-56841274D01*
X71236496Y-56928010D01*
X71207947Y-57022125D01*
X71198307Y-57120000D01*
X71198307Y-57420000D01*
X71207947Y-57517875D01*
X71236496Y-57611990D01*
X71282858Y-57698726D01*
X71345249Y-57774751D01*
X71421274Y-57837142D01*
X71508010Y-57883504D01*
X71578874Y-57905000D01*
X71508010Y-57926496D01*
X71421274Y-57972858D01*
X71400386Y-57990000D01*
X71267818Y-57990000D01*
X69908012Y-56630195D01*
X69890790Y-56609210D01*
X69807042Y-56540479D01*
X69774666Y-56523174D01*
X69765252Y-56427585D01*
X69731368Y-56315884D01*
X69676343Y-56212940D01*
X69602292Y-56122708D01*
X69512060Y-56048657D01*
X69421030Y-56000000D01*
X69512060Y-55951343D01*
X69602292Y-55877292D01*
X69676343Y-55787060D01*
X69731368Y-55684116D01*
X69765252Y-55572415D01*
X69776693Y-55456250D01*
X69776693Y-55280000D01*
X71400386Y-55280000D01*
X71421274Y-55297142D01*
%TD*%
M02*
