%TF.GenerationSoftware,KiCad,Pcbnew,(5.1.6-0-10_14)*%
%TF.CreationDate,2020-11-10T16:11:36-05:00*%
%TF.ProjectId,honeylight,686f6e65-796c-4696-9768-742e6b696361,0.1.0*%
%TF.SameCoordinates,Original*%
%TF.FileFunction,Soldermask,Top*%
%TF.FilePolarity,Negative*%
%FSLAX46Y46*%
G04 Gerber Fmt 4.6, Leading zero omitted, Abs format (unit mm)*
G04 Created by KiCad (PCBNEW (5.1.6-0-10_14)) date 2020-11-10 16:11:36*
%MOMM*%
%LPD*%
G01*
G04 APERTURE LIST*
%ADD10O,2.290000X1.840000*%
%ADD11C,6.500000*%
%ADD12R,2.100000X1.200000*%
G04 APERTURE END LIST*
D10*
%TO.C,J1*%
X56000000Y-73620000D03*
X56000000Y-71080000D03*
X56000000Y-68540000D03*
G36*
G01*
X55119367Y-65080000D02*
X56880633Y-65080000D01*
G75*
G02*
X57145000Y-65344367I0J-264367D01*
G01*
X57145000Y-66655633D01*
G75*
G02*
X56880633Y-66920000I-264367J0D01*
G01*
X55119367Y-66920000D01*
G75*
G02*
X54855000Y-66655633I0J264367D01*
G01*
X54855000Y-65344367D01*
G75*
G02*
X55119367Y-65080000I264367J0D01*
G01*
G37*
%TD*%
D11*
%TO.C,H8*%
X240000000Y-110000000D03*
%TD*%
%TO.C,H7*%
X240000000Y-60000000D03*
%TD*%
%TO.C,H6*%
X162000000Y-115000000D03*
%TD*%
%TO.C,H5*%
X162000000Y-55000000D03*
%TD*%
%TO.C,H4*%
X138000000Y-115000000D03*
%TD*%
%TO.C,H3*%
X138000000Y-55000000D03*
%TD*%
%TO.C,H2*%
X60000000Y-110000000D03*
%TD*%
%TO.C,H1*%
X60000000Y-60000000D03*
%TD*%
D12*
%TO.C,D74*%
X218400000Y-83300000D03*
X218400000Y-85000000D03*
X218400000Y-86700000D03*
X213600000Y-86700000D03*
X213600000Y-85000000D03*
X213600000Y-83300000D03*
%TD*%
%TO.C,D67*%
X134400000Y-83300000D03*
X134400000Y-85000000D03*
X134400000Y-86700000D03*
X129600000Y-86700000D03*
X129600000Y-85000000D03*
X129600000Y-83300000D03*
%TD*%
%TO.C,D73*%
X206400000Y-83300000D03*
X206400000Y-85000000D03*
X206400000Y-86700000D03*
X201600000Y-86700000D03*
X201600000Y-85000000D03*
X201600000Y-83300000D03*
%TD*%
%TO.C,D66*%
X122400000Y-83300000D03*
X122400000Y-85000000D03*
X122400000Y-86700000D03*
X117600000Y-86700000D03*
X117600000Y-85000000D03*
X117600000Y-83300000D03*
%TD*%
%TO.C,D72*%
X194400000Y-83300000D03*
X194400000Y-85000000D03*
X194400000Y-86700000D03*
X189600000Y-86700000D03*
X189600000Y-85000000D03*
X189600000Y-83300000D03*
%TD*%
%TO.C,D65*%
X110400000Y-83300000D03*
X110400000Y-85000000D03*
X110400000Y-86700000D03*
X105600000Y-86700000D03*
X105600000Y-85000000D03*
X105600000Y-83300000D03*
%TD*%
%TO.C,D71*%
X182400000Y-83300000D03*
X182400000Y-85000000D03*
X182400000Y-86700000D03*
X177600000Y-86700000D03*
X177600000Y-85000000D03*
X177600000Y-83300000D03*
%TD*%
%TO.C,D64*%
X98400000Y-83300000D03*
X98400000Y-85000000D03*
X98400000Y-86700000D03*
X93600000Y-86700000D03*
X93600000Y-85000000D03*
X93600000Y-83300000D03*
%TD*%
%TO.C,D70*%
X170400000Y-83300000D03*
X170400000Y-85000000D03*
X170400000Y-86700000D03*
X165600000Y-86700000D03*
X165600000Y-85000000D03*
X165600000Y-83300000D03*
%TD*%
%TO.C,D63*%
X86400000Y-83300000D03*
X86400000Y-85000000D03*
X86400000Y-86700000D03*
X81600000Y-86700000D03*
X81600000Y-85000000D03*
X81600000Y-83300000D03*
%TD*%
%TO.C,D69*%
X158400000Y-83300000D03*
X158400000Y-85000000D03*
X158400000Y-86700000D03*
X153600000Y-86700000D03*
X153600000Y-85000000D03*
X153600000Y-83300000D03*
%TD*%
%TO.C,D62*%
X74400000Y-83300000D03*
X74400000Y-85000000D03*
X74400000Y-86700000D03*
X69600000Y-86700000D03*
X69600000Y-85000000D03*
X69600000Y-83300000D03*
%TD*%
%TO.C,D68*%
X146400000Y-83300000D03*
X146400000Y-85000000D03*
X146400000Y-86700000D03*
X141600000Y-86700000D03*
X141600000Y-85000000D03*
X141600000Y-83300000D03*
%TD*%
%TO.C,D61*%
X62400000Y-83300000D03*
X62400000Y-85000000D03*
X62400000Y-86700000D03*
X57600000Y-86700000D03*
X57600000Y-85000000D03*
X57600000Y-83300000D03*
%TD*%
%TO.C,D60*%
X75599999Y-76400000D03*
X75599999Y-74700000D03*
X75599999Y-73000000D03*
X80399999Y-73000000D03*
X80399999Y-74700000D03*
X80399999Y-76400000D03*
%TD*%
%TO.C,D53*%
X159600000Y-76400000D03*
X159600000Y-74700000D03*
X159600000Y-73000000D03*
X164400000Y-73000000D03*
X164400000Y-74700000D03*
X164400000Y-76400000D03*
%TD*%
%TO.C,D59*%
X87600000Y-76400000D03*
X87600000Y-74700000D03*
X87600000Y-73000000D03*
X92400000Y-73000000D03*
X92400000Y-74700000D03*
X92400000Y-76400000D03*
%TD*%
%TO.C,D52*%
X171600000Y-76400000D03*
X171600000Y-74700000D03*
X171600000Y-73000000D03*
X176400000Y-73000000D03*
X176400000Y-74700000D03*
X176400000Y-76400000D03*
%TD*%
%TO.C,D58*%
X99600000Y-76400000D03*
X99600000Y-74700000D03*
X99600000Y-73000000D03*
X104400000Y-73000000D03*
X104400000Y-74700000D03*
X104400000Y-76400000D03*
%TD*%
%TO.C,D51*%
X183600000Y-76400000D03*
X183600000Y-74700000D03*
X183600000Y-73000000D03*
X188400000Y-73000000D03*
X188400000Y-74700000D03*
X188400000Y-76400000D03*
%TD*%
%TO.C,D57*%
X111600000Y-76400000D03*
X111600000Y-74700000D03*
X111600000Y-73000000D03*
X116400000Y-73000000D03*
X116400000Y-74700000D03*
X116400000Y-76400000D03*
%TD*%
%TO.C,D50*%
X195600001Y-76400000D03*
X195600001Y-74700000D03*
X195600001Y-73000000D03*
X200400001Y-73000000D03*
X200400001Y-74700000D03*
X200400001Y-76400000D03*
%TD*%
%TO.C,D56*%
X123600000Y-76400000D03*
X123600000Y-74700000D03*
X123600000Y-73000000D03*
X128400000Y-73000000D03*
X128400000Y-74700000D03*
X128400000Y-76400000D03*
%TD*%
%TO.C,D49*%
X207599999Y-76400000D03*
X207599999Y-74700000D03*
X207599999Y-73000000D03*
X212399999Y-73000000D03*
X212399999Y-74700000D03*
X212399999Y-76400000D03*
%TD*%
%TO.C,D55*%
X135600001Y-76400000D03*
X135600001Y-74700000D03*
X135600001Y-73000000D03*
X140400001Y-73000000D03*
X140400001Y-74700000D03*
X140400001Y-76400000D03*
%TD*%
%TO.C,D48*%
X219600000Y-76400000D03*
X219600000Y-74700000D03*
X219600000Y-73000000D03*
X224400000Y-73000000D03*
X224400000Y-74700000D03*
X224400000Y-76400000D03*
%TD*%
%TO.C,D54*%
X147600000Y-76400000D03*
X147600000Y-74700000D03*
X147600000Y-73000000D03*
X152400000Y-73000000D03*
X152400000Y-74700000D03*
X152400000Y-76400000D03*
%TD*%
%TO.C,D47*%
X231600000Y-76400000D03*
X231600000Y-74700000D03*
X231600000Y-73000000D03*
X236400000Y-73000000D03*
X236400000Y-74700000D03*
X236400000Y-76400000D03*
%TD*%
%TO.C,D46*%
X230400000Y-62500000D03*
X230400000Y-64200000D03*
X230400000Y-65900000D03*
X225600000Y-65900000D03*
X225600000Y-64200000D03*
X225600000Y-62500000D03*
%TD*%
%TO.C,D39*%
X146400000Y-62500000D03*
X146400000Y-64200000D03*
X146400000Y-65900000D03*
X141600000Y-65900000D03*
X141600000Y-64200000D03*
X141600000Y-62500000D03*
%TD*%
%TO.C,D45*%
X218400000Y-62500000D03*
X218400000Y-64200000D03*
X218400000Y-65900000D03*
X213600000Y-65900000D03*
X213600000Y-64200000D03*
X213600000Y-62500000D03*
%TD*%
%TO.C,D38*%
X134400000Y-62500000D03*
X134400000Y-64200000D03*
X134400000Y-65900000D03*
X129600000Y-65900000D03*
X129600000Y-64200000D03*
X129600000Y-62500000D03*
%TD*%
%TO.C,D44*%
X206400000Y-62500000D03*
X206400000Y-64200000D03*
X206400000Y-65900000D03*
X201600000Y-65900000D03*
X201600000Y-64200000D03*
X201600000Y-62500000D03*
%TD*%
%TO.C,D37*%
X122400000Y-62500000D03*
X122400000Y-64200000D03*
X122400000Y-65900000D03*
X117600000Y-65900000D03*
X117600000Y-64200000D03*
X117600000Y-62500000D03*
%TD*%
%TO.C,D43*%
X194400000Y-62500000D03*
X194400000Y-64200000D03*
X194400000Y-65900000D03*
X189600000Y-65900000D03*
X189600000Y-64200000D03*
X189600000Y-62500000D03*
%TD*%
%TO.C,D36*%
X110400000Y-62500000D03*
X110400000Y-64200000D03*
X110400000Y-65900000D03*
X105600000Y-65900000D03*
X105600000Y-64200000D03*
X105600000Y-62500000D03*
%TD*%
%TO.C,D42*%
X182400000Y-62500000D03*
X182400000Y-64200000D03*
X182400000Y-65900000D03*
X177600000Y-65900000D03*
X177600000Y-64200000D03*
X177600000Y-62500000D03*
%TD*%
%TO.C,D35*%
X98400000Y-62500000D03*
X98400000Y-64200000D03*
X98400000Y-65900000D03*
X93600000Y-65900000D03*
X93600000Y-64200000D03*
X93600000Y-62500000D03*
%TD*%
%TO.C,D41*%
X170400000Y-62500000D03*
X170400000Y-64200000D03*
X170400000Y-65900000D03*
X165600000Y-65900000D03*
X165600000Y-64200000D03*
X165600000Y-62500000D03*
%TD*%
%TO.C,D34*%
X86400000Y-62500000D03*
X86400000Y-64200000D03*
X86400000Y-65900000D03*
X81600000Y-65900000D03*
X81600000Y-64200000D03*
X81600000Y-62500000D03*
%TD*%
%TO.C,D40*%
X158400000Y-62500000D03*
X158400000Y-64200000D03*
X158400000Y-65900000D03*
X153600000Y-65900000D03*
X153600000Y-64200000D03*
X153600000Y-62500000D03*
%TD*%
%TO.C,D33*%
X74400000Y-62500000D03*
X74400000Y-64200000D03*
X74400000Y-65900000D03*
X69600000Y-65900000D03*
X69600000Y-64200000D03*
X69600000Y-62500000D03*
%TD*%
%TO.C,D32*%
X230400000Y-104100000D03*
X230400000Y-105800000D03*
X230400000Y-107500000D03*
X225600000Y-107500000D03*
X225600000Y-105800000D03*
X225600000Y-104100000D03*
%TD*%
%TO.C,D25*%
X146400000Y-104100000D03*
X146400000Y-105800000D03*
X146400000Y-107500000D03*
X141600000Y-107500000D03*
X141600000Y-105800000D03*
X141600000Y-104100000D03*
%TD*%
%TO.C,D31*%
X218400000Y-104100000D03*
X218400000Y-105800000D03*
X218400000Y-107500000D03*
X213600000Y-107500000D03*
X213600000Y-105800000D03*
X213600000Y-104100000D03*
%TD*%
%TO.C,D24*%
X134400000Y-104100000D03*
X134400000Y-105800000D03*
X134400000Y-107500000D03*
X129600000Y-107500000D03*
X129600000Y-105800000D03*
X129600000Y-104100000D03*
%TD*%
%TO.C,D30*%
X206400000Y-104100000D03*
X206400000Y-105800000D03*
X206400000Y-107500000D03*
X201600000Y-107500000D03*
X201600000Y-105800000D03*
X201600000Y-104100000D03*
%TD*%
%TO.C,D23*%
X122400000Y-104100000D03*
X122400000Y-105800000D03*
X122400000Y-107500000D03*
X117600000Y-107500000D03*
X117600000Y-105800000D03*
X117600000Y-104100000D03*
%TD*%
%TO.C,D29*%
X194400000Y-104100000D03*
X194400000Y-105800000D03*
X194400000Y-107500000D03*
X189600000Y-107500000D03*
X189600000Y-105800000D03*
X189600000Y-104100000D03*
%TD*%
%TO.C,D22*%
X110400000Y-104100000D03*
X110400000Y-105800000D03*
X110400000Y-107500000D03*
X105600000Y-107500000D03*
X105600000Y-105800000D03*
X105600000Y-104100000D03*
%TD*%
%TO.C,D28*%
X182400000Y-104100000D03*
X182400000Y-105800000D03*
X182400000Y-107500000D03*
X177600000Y-107500000D03*
X177600000Y-105800000D03*
X177600000Y-104100000D03*
%TD*%
%TO.C,D21*%
X98400000Y-104100000D03*
X98400000Y-105800000D03*
X98400000Y-107500000D03*
X93600000Y-107500000D03*
X93600000Y-105800000D03*
X93600000Y-104100000D03*
%TD*%
%TO.C,D27*%
X170400000Y-104100000D03*
X170400000Y-105800000D03*
X170400000Y-107500000D03*
X165600000Y-107500000D03*
X165600000Y-105800000D03*
X165600000Y-104100000D03*
%TD*%
%TO.C,D20*%
X86400000Y-104100000D03*
X86400000Y-105800000D03*
X86400000Y-107500000D03*
X81600000Y-107500000D03*
X81600000Y-105800000D03*
X81600000Y-104100000D03*
%TD*%
%TO.C,D26*%
X158400000Y-104100000D03*
X158400000Y-105800000D03*
X158400000Y-107500000D03*
X153600000Y-107500000D03*
X153600000Y-105800000D03*
X153600000Y-104100000D03*
%TD*%
%TO.C,D19*%
X74400000Y-104100000D03*
X74400000Y-105800000D03*
X74400000Y-107500000D03*
X69600000Y-107500000D03*
X69600000Y-105800000D03*
X69600000Y-104100000D03*
%TD*%
%TO.C,D18*%
X75600000Y-97100000D03*
X75600000Y-95400000D03*
X75600000Y-93700000D03*
X80400000Y-93700000D03*
X80400000Y-95400000D03*
X80400000Y-97100000D03*
%TD*%
%TO.C,D11*%
X159600000Y-97100000D03*
X159600000Y-95400000D03*
X159600000Y-93700000D03*
X164400000Y-93700000D03*
X164400000Y-95400000D03*
X164400000Y-97100000D03*
%TD*%
%TO.C,D17*%
X87600001Y-97100000D03*
X87600001Y-95400000D03*
X87600001Y-93700000D03*
X92400001Y-93700000D03*
X92400001Y-95400000D03*
X92400001Y-97100000D03*
%TD*%
%TO.C,D10*%
X171600000Y-97100000D03*
X171600000Y-95400000D03*
X171600000Y-93700000D03*
X176400000Y-93700000D03*
X176400000Y-95400000D03*
X176400000Y-97100000D03*
%TD*%
%TO.C,D16*%
X99600000Y-97100000D03*
X99600000Y-95400000D03*
X99600000Y-93700000D03*
X104400000Y-93700000D03*
X104400000Y-95400000D03*
X104400000Y-97100000D03*
%TD*%
%TO.C,D9*%
X183600001Y-97100000D03*
X183600001Y-95400000D03*
X183600001Y-93700000D03*
X188400001Y-93700000D03*
X188400001Y-95400000D03*
X188400001Y-97100000D03*
%TD*%
%TO.C,D15*%
X111600000Y-97100000D03*
X111600000Y-95400000D03*
X111600000Y-93700000D03*
X116400000Y-93700000D03*
X116400000Y-95400000D03*
X116400000Y-97100000D03*
%TD*%
%TO.C,D8*%
X195600000Y-97100000D03*
X195600000Y-95400000D03*
X195600000Y-93700000D03*
X200400000Y-93700000D03*
X200400000Y-95400000D03*
X200400000Y-97100000D03*
%TD*%
%TO.C,D14*%
X123600001Y-97100000D03*
X123600001Y-95400000D03*
X123600001Y-93700000D03*
X128400001Y-93700000D03*
X128400001Y-95400000D03*
X128400001Y-97100000D03*
%TD*%
%TO.C,D7*%
X207600000Y-97100000D03*
X207600000Y-95400000D03*
X207600000Y-93700000D03*
X212400000Y-93700000D03*
X212400000Y-95400000D03*
X212400000Y-97100000D03*
%TD*%
%TO.C,D13*%
X135600000Y-97100000D03*
X135600000Y-95400000D03*
X135600000Y-93700000D03*
X140400000Y-93700000D03*
X140400000Y-95400000D03*
X140400000Y-97100000D03*
%TD*%
%TO.C,D6*%
X219600001Y-97100000D03*
X219600001Y-95400000D03*
X219600001Y-93700000D03*
X224400001Y-93700000D03*
X224400001Y-95400000D03*
X224400001Y-97100000D03*
%TD*%
%TO.C,D12*%
X147599999Y-97100000D03*
X147599999Y-95400000D03*
X147599999Y-93700000D03*
X152399999Y-93700000D03*
X152399999Y-95400000D03*
X152399999Y-97100000D03*
%TD*%
%TO.C,D5*%
X231600000Y-97100000D03*
X231600000Y-95400000D03*
X231600000Y-93700000D03*
X236400000Y-93700000D03*
X236400000Y-95400000D03*
X236400000Y-97100000D03*
%TD*%
%TO.C,D4*%
X63600000Y-97100000D03*
X63600000Y-95400000D03*
X63600000Y-93700000D03*
X68400000Y-93700000D03*
X68400000Y-95400000D03*
X68400000Y-97100000D03*
%TD*%
%TO.C,D3*%
X242400000Y-83300000D03*
X242400000Y-85000000D03*
X242400000Y-86700000D03*
X237600000Y-86700000D03*
X237600000Y-85000000D03*
X237600000Y-83300000D03*
%TD*%
%TO.C,D2*%
X230400000Y-83300000D03*
X230400000Y-85000000D03*
X230400000Y-86700000D03*
X225600000Y-86700000D03*
X225600000Y-85000000D03*
X225600000Y-83300000D03*
%TD*%
%TO.C,D1*%
X63600000Y-76400000D03*
X63600000Y-74700000D03*
X63600000Y-73000000D03*
X68400000Y-73000000D03*
X68400000Y-74700000D03*
X68400000Y-76400000D03*
%TD*%
%TO.C,C76*%
G36*
G01*
X215600000Y-88518750D02*
X215600000Y-89481250D01*
G75*
G02*
X215331250Y-89750000I-268750J0D01*
G01*
X214793750Y-89750000D01*
G75*
G02*
X214525000Y-89481250I0J268750D01*
G01*
X214525000Y-88518750D01*
G75*
G02*
X214793750Y-88250000I268750J0D01*
G01*
X215331250Y-88250000D01*
G75*
G02*
X215600000Y-88518750I0J-268750D01*
G01*
G37*
G36*
G01*
X217475000Y-88518750D02*
X217475000Y-89481250D01*
G75*
G02*
X217206250Y-89750000I-268750J0D01*
G01*
X216668750Y-89750000D01*
G75*
G02*
X216400000Y-89481250I0J268750D01*
G01*
X216400000Y-88518750D01*
G75*
G02*
X216668750Y-88250000I268750J0D01*
G01*
X217206250Y-88250000D01*
G75*
G02*
X217475000Y-88518750I0J-268750D01*
G01*
G37*
%TD*%
%TO.C,C69*%
G36*
G01*
X131600000Y-88518750D02*
X131600000Y-89481250D01*
G75*
G02*
X131331250Y-89750000I-268750J0D01*
G01*
X130793750Y-89750000D01*
G75*
G02*
X130525000Y-89481250I0J268750D01*
G01*
X130525000Y-88518750D01*
G75*
G02*
X130793750Y-88250000I268750J0D01*
G01*
X131331250Y-88250000D01*
G75*
G02*
X131600000Y-88518750I0J-268750D01*
G01*
G37*
G36*
G01*
X133475000Y-88518750D02*
X133475000Y-89481250D01*
G75*
G02*
X133206250Y-89750000I-268750J0D01*
G01*
X132668750Y-89750000D01*
G75*
G02*
X132400000Y-89481250I0J268750D01*
G01*
X132400000Y-88518750D01*
G75*
G02*
X132668750Y-88250000I268750J0D01*
G01*
X133206250Y-88250000D01*
G75*
G02*
X133475000Y-88518750I0J-268750D01*
G01*
G37*
%TD*%
%TO.C,C75*%
G36*
G01*
X203600000Y-88518750D02*
X203600000Y-89481250D01*
G75*
G02*
X203331250Y-89750000I-268750J0D01*
G01*
X202793750Y-89750000D01*
G75*
G02*
X202525000Y-89481250I0J268750D01*
G01*
X202525000Y-88518750D01*
G75*
G02*
X202793750Y-88250000I268750J0D01*
G01*
X203331250Y-88250000D01*
G75*
G02*
X203600000Y-88518750I0J-268750D01*
G01*
G37*
G36*
G01*
X205475000Y-88518750D02*
X205475000Y-89481250D01*
G75*
G02*
X205206250Y-89750000I-268750J0D01*
G01*
X204668750Y-89750000D01*
G75*
G02*
X204400000Y-89481250I0J268750D01*
G01*
X204400000Y-88518750D01*
G75*
G02*
X204668750Y-88250000I268750J0D01*
G01*
X205206250Y-88250000D01*
G75*
G02*
X205475000Y-88518750I0J-268750D01*
G01*
G37*
%TD*%
%TO.C,C68*%
G36*
G01*
X119600000Y-88518750D02*
X119600000Y-89481250D01*
G75*
G02*
X119331250Y-89750000I-268750J0D01*
G01*
X118793750Y-89750000D01*
G75*
G02*
X118525000Y-89481250I0J268750D01*
G01*
X118525000Y-88518750D01*
G75*
G02*
X118793750Y-88250000I268750J0D01*
G01*
X119331250Y-88250000D01*
G75*
G02*
X119600000Y-88518750I0J-268750D01*
G01*
G37*
G36*
G01*
X121475000Y-88518750D02*
X121475000Y-89481250D01*
G75*
G02*
X121206250Y-89750000I-268750J0D01*
G01*
X120668750Y-89750000D01*
G75*
G02*
X120400000Y-89481250I0J268750D01*
G01*
X120400000Y-88518750D01*
G75*
G02*
X120668750Y-88250000I268750J0D01*
G01*
X121206250Y-88250000D01*
G75*
G02*
X121475000Y-88518750I0J-268750D01*
G01*
G37*
%TD*%
%TO.C,C74*%
G36*
G01*
X191600000Y-88518750D02*
X191600000Y-89481250D01*
G75*
G02*
X191331250Y-89750000I-268750J0D01*
G01*
X190793750Y-89750000D01*
G75*
G02*
X190525000Y-89481250I0J268750D01*
G01*
X190525000Y-88518750D01*
G75*
G02*
X190793750Y-88250000I268750J0D01*
G01*
X191331250Y-88250000D01*
G75*
G02*
X191600000Y-88518750I0J-268750D01*
G01*
G37*
G36*
G01*
X193475000Y-88518750D02*
X193475000Y-89481250D01*
G75*
G02*
X193206250Y-89750000I-268750J0D01*
G01*
X192668750Y-89750000D01*
G75*
G02*
X192400000Y-89481250I0J268750D01*
G01*
X192400000Y-88518750D01*
G75*
G02*
X192668750Y-88250000I268750J0D01*
G01*
X193206250Y-88250000D01*
G75*
G02*
X193475000Y-88518750I0J-268750D01*
G01*
G37*
%TD*%
%TO.C,C67*%
G36*
G01*
X107600000Y-88518750D02*
X107600000Y-89481250D01*
G75*
G02*
X107331250Y-89750000I-268750J0D01*
G01*
X106793750Y-89750000D01*
G75*
G02*
X106525000Y-89481250I0J268750D01*
G01*
X106525000Y-88518750D01*
G75*
G02*
X106793750Y-88250000I268750J0D01*
G01*
X107331250Y-88250000D01*
G75*
G02*
X107600000Y-88518750I0J-268750D01*
G01*
G37*
G36*
G01*
X109475000Y-88518750D02*
X109475000Y-89481250D01*
G75*
G02*
X109206250Y-89750000I-268750J0D01*
G01*
X108668750Y-89750000D01*
G75*
G02*
X108400000Y-89481250I0J268750D01*
G01*
X108400000Y-88518750D01*
G75*
G02*
X108668750Y-88250000I268750J0D01*
G01*
X109206250Y-88250000D01*
G75*
G02*
X109475000Y-88518750I0J-268750D01*
G01*
G37*
%TD*%
%TO.C,C73*%
G36*
G01*
X179600000Y-88518750D02*
X179600000Y-89481250D01*
G75*
G02*
X179331250Y-89750000I-268750J0D01*
G01*
X178793750Y-89750000D01*
G75*
G02*
X178525000Y-89481250I0J268750D01*
G01*
X178525000Y-88518750D01*
G75*
G02*
X178793750Y-88250000I268750J0D01*
G01*
X179331250Y-88250000D01*
G75*
G02*
X179600000Y-88518750I0J-268750D01*
G01*
G37*
G36*
G01*
X181475000Y-88518750D02*
X181475000Y-89481250D01*
G75*
G02*
X181206250Y-89750000I-268750J0D01*
G01*
X180668750Y-89750000D01*
G75*
G02*
X180400000Y-89481250I0J268750D01*
G01*
X180400000Y-88518750D01*
G75*
G02*
X180668750Y-88250000I268750J0D01*
G01*
X181206250Y-88250000D01*
G75*
G02*
X181475000Y-88518750I0J-268750D01*
G01*
G37*
%TD*%
%TO.C,C66*%
G36*
G01*
X95600000Y-88518750D02*
X95600000Y-89481250D01*
G75*
G02*
X95331250Y-89750000I-268750J0D01*
G01*
X94793750Y-89750000D01*
G75*
G02*
X94525000Y-89481250I0J268750D01*
G01*
X94525000Y-88518750D01*
G75*
G02*
X94793750Y-88250000I268750J0D01*
G01*
X95331250Y-88250000D01*
G75*
G02*
X95600000Y-88518750I0J-268750D01*
G01*
G37*
G36*
G01*
X97475000Y-88518750D02*
X97475000Y-89481250D01*
G75*
G02*
X97206250Y-89750000I-268750J0D01*
G01*
X96668750Y-89750000D01*
G75*
G02*
X96400000Y-89481250I0J268750D01*
G01*
X96400000Y-88518750D01*
G75*
G02*
X96668750Y-88250000I268750J0D01*
G01*
X97206250Y-88250000D01*
G75*
G02*
X97475000Y-88518750I0J-268750D01*
G01*
G37*
%TD*%
%TO.C,C72*%
G36*
G01*
X167500000Y-88518750D02*
X167500000Y-89481250D01*
G75*
G02*
X167231250Y-89750000I-268750J0D01*
G01*
X166693750Y-89750000D01*
G75*
G02*
X166425000Y-89481250I0J268750D01*
G01*
X166425000Y-88518750D01*
G75*
G02*
X166693750Y-88250000I268750J0D01*
G01*
X167231250Y-88250000D01*
G75*
G02*
X167500000Y-88518750I0J-268750D01*
G01*
G37*
G36*
G01*
X169375000Y-88518750D02*
X169375000Y-89481250D01*
G75*
G02*
X169106250Y-89750000I-268750J0D01*
G01*
X168568750Y-89750000D01*
G75*
G02*
X168300000Y-89481250I0J268750D01*
G01*
X168300000Y-88518750D01*
G75*
G02*
X168568750Y-88250000I268750J0D01*
G01*
X169106250Y-88250000D01*
G75*
G02*
X169375000Y-88518750I0J-268750D01*
G01*
G37*
%TD*%
%TO.C,C65*%
G36*
G01*
X83600000Y-88518750D02*
X83600000Y-89481250D01*
G75*
G02*
X83331250Y-89750000I-268750J0D01*
G01*
X82793750Y-89750000D01*
G75*
G02*
X82525000Y-89481250I0J268750D01*
G01*
X82525000Y-88518750D01*
G75*
G02*
X82793750Y-88250000I268750J0D01*
G01*
X83331250Y-88250000D01*
G75*
G02*
X83600000Y-88518750I0J-268750D01*
G01*
G37*
G36*
G01*
X85475000Y-88518750D02*
X85475000Y-89481250D01*
G75*
G02*
X85206250Y-89750000I-268750J0D01*
G01*
X84668750Y-89750000D01*
G75*
G02*
X84400000Y-89481250I0J268750D01*
G01*
X84400000Y-88518750D01*
G75*
G02*
X84668750Y-88250000I268750J0D01*
G01*
X85206250Y-88250000D01*
G75*
G02*
X85475000Y-88518750I0J-268750D01*
G01*
G37*
%TD*%
%TO.C,C71*%
G36*
G01*
X155600000Y-88518750D02*
X155600000Y-89481250D01*
G75*
G02*
X155331250Y-89750000I-268750J0D01*
G01*
X154793750Y-89750000D01*
G75*
G02*
X154525000Y-89481250I0J268750D01*
G01*
X154525000Y-88518750D01*
G75*
G02*
X154793750Y-88250000I268750J0D01*
G01*
X155331250Y-88250000D01*
G75*
G02*
X155600000Y-88518750I0J-268750D01*
G01*
G37*
G36*
G01*
X157475000Y-88518750D02*
X157475000Y-89481250D01*
G75*
G02*
X157206250Y-89750000I-268750J0D01*
G01*
X156668750Y-89750000D01*
G75*
G02*
X156400000Y-89481250I0J268750D01*
G01*
X156400000Y-88518750D01*
G75*
G02*
X156668750Y-88250000I268750J0D01*
G01*
X157206250Y-88250000D01*
G75*
G02*
X157475000Y-88518750I0J-268750D01*
G01*
G37*
%TD*%
%TO.C,C64*%
G36*
G01*
X71600000Y-88518750D02*
X71600000Y-89481250D01*
G75*
G02*
X71331250Y-89750000I-268750J0D01*
G01*
X70793750Y-89750000D01*
G75*
G02*
X70525000Y-89481250I0J268750D01*
G01*
X70525000Y-88518750D01*
G75*
G02*
X70793750Y-88250000I268750J0D01*
G01*
X71331250Y-88250000D01*
G75*
G02*
X71600000Y-88518750I0J-268750D01*
G01*
G37*
G36*
G01*
X73475000Y-88518750D02*
X73475000Y-89481250D01*
G75*
G02*
X73206250Y-89750000I-268750J0D01*
G01*
X72668750Y-89750000D01*
G75*
G02*
X72400000Y-89481250I0J268750D01*
G01*
X72400000Y-88518750D01*
G75*
G02*
X72668750Y-88250000I268750J0D01*
G01*
X73206250Y-88250000D01*
G75*
G02*
X73475000Y-88518750I0J-268750D01*
G01*
G37*
%TD*%
%TO.C,C70*%
G36*
G01*
X143600000Y-88518750D02*
X143600000Y-89481250D01*
G75*
G02*
X143331250Y-89750000I-268750J0D01*
G01*
X142793750Y-89750000D01*
G75*
G02*
X142525000Y-89481250I0J268750D01*
G01*
X142525000Y-88518750D01*
G75*
G02*
X142793750Y-88250000I268750J0D01*
G01*
X143331250Y-88250000D01*
G75*
G02*
X143600000Y-88518750I0J-268750D01*
G01*
G37*
G36*
G01*
X145475000Y-88518750D02*
X145475000Y-89481250D01*
G75*
G02*
X145206250Y-89750000I-268750J0D01*
G01*
X144668750Y-89750000D01*
G75*
G02*
X144400000Y-89481250I0J268750D01*
G01*
X144400000Y-88518750D01*
G75*
G02*
X144668750Y-88250000I268750J0D01*
G01*
X145206250Y-88250000D01*
G75*
G02*
X145475000Y-88518750I0J-268750D01*
G01*
G37*
%TD*%
%TO.C,C63*%
G36*
G01*
X59600000Y-88518750D02*
X59600000Y-89481250D01*
G75*
G02*
X59331250Y-89750000I-268750J0D01*
G01*
X58793750Y-89750000D01*
G75*
G02*
X58525000Y-89481250I0J268750D01*
G01*
X58525000Y-88518750D01*
G75*
G02*
X58793750Y-88250000I268750J0D01*
G01*
X59331250Y-88250000D01*
G75*
G02*
X59600000Y-88518750I0J-268750D01*
G01*
G37*
G36*
G01*
X61475000Y-88518750D02*
X61475000Y-89481250D01*
G75*
G02*
X61206250Y-89750000I-268750J0D01*
G01*
X60668750Y-89750000D01*
G75*
G02*
X60400000Y-89481250I0J268750D01*
G01*
X60400000Y-88518750D01*
G75*
G02*
X60668750Y-88250000I268750J0D01*
G01*
X61206250Y-88250000D01*
G75*
G02*
X61475000Y-88518750I0J-268750D01*
G01*
G37*
%TD*%
%TO.C,C62*%
G36*
G01*
X78400000Y-71181250D02*
X78400000Y-70218750D01*
G75*
G02*
X78668750Y-69950000I268750J0D01*
G01*
X79206250Y-69950000D01*
G75*
G02*
X79475000Y-70218750I0J-268750D01*
G01*
X79475000Y-71181250D01*
G75*
G02*
X79206250Y-71450000I-268750J0D01*
G01*
X78668750Y-71450000D01*
G75*
G02*
X78400000Y-71181250I0J268750D01*
G01*
G37*
G36*
G01*
X76525000Y-71181250D02*
X76525000Y-70218750D01*
G75*
G02*
X76793750Y-69950000I268750J0D01*
G01*
X77331250Y-69950000D01*
G75*
G02*
X77600000Y-70218750I0J-268750D01*
G01*
X77600000Y-71181250D01*
G75*
G02*
X77331250Y-71450000I-268750J0D01*
G01*
X76793750Y-71450000D01*
G75*
G02*
X76525000Y-71181250I0J268750D01*
G01*
G37*
%TD*%
%TO.C,C55*%
G36*
G01*
X162400000Y-71181250D02*
X162400000Y-70218750D01*
G75*
G02*
X162668750Y-69950000I268750J0D01*
G01*
X163206250Y-69950000D01*
G75*
G02*
X163475000Y-70218750I0J-268750D01*
G01*
X163475000Y-71181250D01*
G75*
G02*
X163206250Y-71450000I-268750J0D01*
G01*
X162668750Y-71450000D01*
G75*
G02*
X162400000Y-71181250I0J268750D01*
G01*
G37*
G36*
G01*
X160525000Y-71181250D02*
X160525000Y-70218750D01*
G75*
G02*
X160793750Y-69950000I268750J0D01*
G01*
X161331250Y-69950000D01*
G75*
G02*
X161600000Y-70218750I0J-268750D01*
G01*
X161600000Y-71181250D01*
G75*
G02*
X161331250Y-71450000I-268750J0D01*
G01*
X160793750Y-71450000D01*
G75*
G02*
X160525000Y-71181250I0J268750D01*
G01*
G37*
%TD*%
%TO.C,C61*%
G36*
G01*
X90400000Y-71181250D02*
X90400000Y-70218750D01*
G75*
G02*
X90668750Y-69950000I268750J0D01*
G01*
X91206250Y-69950000D01*
G75*
G02*
X91475000Y-70218750I0J-268750D01*
G01*
X91475000Y-71181250D01*
G75*
G02*
X91206250Y-71450000I-268750J0D01*
G01*
X90668750Y-71450000D01*
G75*
G02*
X90400000Y-71181250I0J268750D01*
G01*
G37*
G36*
G01*
X88525000Y-71181250D02*
X88525000Y-70218750D01*
G75*
G02*
X88793750Y-69950000I268750J0D01*
G01*
X89331250Y-69950000D01*
G75*
G02*
X89600000Y-70218750I0J-268750D01*
G01*
X89600000Y-71181250D01*
G75*
G02*
X89331250Y-71450000I-268750J0D01*
G01*
X88793750Y-71450000D01*
G75*
G02*
X88525000Y-71181250I0J268750D01*
G01*
G37*
%TD*%
%TO.C,C54*%
G36*
G01*
X174400000Y-71181250D02*
X174400000Y-70218750D01*
G75*
G02*
X174668750Y-69950000I268750J0D01*
G01*
X175206250Y-69950000D01*
G75*
G02*
X175475000Y-70218750I0J-268750D01*
G01*
X175475000Y-71181250D01*
G75*
G02*
X175206250Y-71450000I-268750J0D01*
G01*
X174668750Y-71450000D01*
G75*
G02*
X174400000Y-71181250I0J268750D01*
G01*
G37*
G36*
G01*
X172525000Y-71181250D02*
X172525000Y-70218750D01*
G75*
G02*
X172793750Y-69950000I268750J0D01*
G01*
X173331250Y-69950000D01*
G75*
G02*
X173600000Y-70218750I0J-268750D01*
G01*
X173600000Y-71181250D01*
G75*
G02*
X173331250Y-71450000I-268750J0D01*
G01*
X172793750Y-71450000D01*
G75*
G02*
X172525000Y-71181250I0J268750D01*
G01*
G37*
%TD*%
%TO.C,C60*%
G36*
G01*
X102400000Y-71181250D02*
X102400000Y-70218750D01*
G75*
G02*
X102668750Y-69950000I268750J0D01*
G01*
X103206250Y-69950000D01*
G75*
G02*
X103475000Y-70218750I0J-268750D01*
G01*
X103475000Y-71181250D01*
G75*
G02*
X103206250Y-71450000I-268750J0D01*
G01*
X102668750Y-71450000D01*
G75*
G02*
X102400000Y-71181250I0J268750D01*
G01*
G37*
G36*
G01*
X100525000Y-71181250D02*
X100525000Y-70218750D01*
G75*
G02*
X100793750Y-69950000I268750J0D01*
G01*
X101331250Y-69950000D01*
G75*
G02*
X101600000Y-70218750I0J-268750D01*
G01*
X101600000Y-71181250D01*
G75*
G02*
X101331250Y-71450000I-268750J0D01*
G01*
X100793750Y-71450000D01*
G75*
G02*
X100525000Y-71181250I0J268750D01*
G01*
G37*
%TD*%
%TO.C,C53*%
G36*
G01*
X186400000Y-71181250D02*
X186400000Y-70218750D01*
G75*
G02*
X186668750Y-69950000I268750J0D01*
G01*
X187206250Y-69950000D01*
G75*
G02*
X187475000Y-70218750I0J-268750D01*
G01*
X187475000Y-71181250D01*
G75*
G02*
X187206250Y-71450000I-268750J0D01*
G01*
X186668750Y-71450000D01*
G75*
G02*
X186400000Y-71181250I0J268750D01*
G01*
G37*
G36*
G01*
X184525000Y-71181250D02*
X184525000Y-70218750D01*
G75*
G02*
X184793750Y-69950000I268750J0D01*
G01*
X185331250Y-69950000D01*
G75*
G02*
X185600000Y-70218750I0J-268750D01*
G01*
X185600000Y-71181250D01*
G75*
G02*
X185331250Y-71450000I-268750J0D01*
G01*
X184793750Y-71450000D01*
G75*
G02*
X184525000Y-71181250I0J268750D01*
G01*
G37*
%TD*%
%TO.C,C59*%
G36*
G01*
X114400000Y-71181250D02*
X114400000Y-70218750D01*
G75*
G02*
X114668750Y-69950000I268750J0D01*
G01*
X115206250Y-69950000D01*
G75*
G02*
X115475000Y-70218750I0J-268750D01*
G01*
X115475000Y-71181250D01*
G75*
G02*
X115206250Y-71450000I-268750J0D01*
G01*
X114668750Y-71450000D01*
G75*
G02*
X114400000Y-71181250I0J268750D01*
G01*
G37*
G36*
G01*
X112525000Y-71181250D02*
X112525000Y-70218750D01*
G75*
G02*
X112793750Y-69950000I268750J0D01*
G01*
X113331250Y-69950000D01*
G75*
G02*
X113600000Y-70218750I0J-268750D01*
G01*
X113600000Y-71181250D01*
G75*
G02*
X113331250Y-71450000I-268750J0D01*
G01*
X112793750Y-71450000D01*
G75*
G02*
X112525000Y-71181250I0J268750D01*
G01*
G37*
%TD*%
%TO.C,C52*%
G36*
G01*
X198400000Y-71181250D02*
X198400000Y-70218750D01*
G75*
G02*
X198668750Y-69950000I268750J0D01*
G01*
X199206250Y-69950000D01*
G75*
G02*
X199475000Y-70218750I0J-268750D01*
G01*
X199475000Y-71181250D01*
G75*
G02*
X199206250Y-71450000I-268750J0D01*
G01*
X198668750Y-71450000D01*
G75*
G02*
X198400000Y-71181250I0J268750D01*
G01*
G37*
G36*
G01*
X196525000Y-71181250D02*
X196525000Y-70218750D01*
G75*
G02*
X196793750Y-69950000I268750J0D01*
G01*
X197331250Y-69950000D01*
G75*
G02*
X197600000Y-70218750I0J-268750D01*
G01*
X197600000Y-71181250D01*
G75*
G02*
X197331250Y-71450000I-268750J0D01*
G01*
X196793750Y-71450000D01*
G75*
G02*
X196525000Y-71181250I0J268750D01*
G01*
G37*
%TD*%
%TO.C,C58*%
G36*
G01*
X126400000Y-71181250D02*
X126400000Y-70218750D01*
G75*
G02*
X126668750Y-69950000I268750J0D01*
G01*
X127206250Y-69950000D01*
G75*
G02*
X127475000Y-70218750I0J-268750D01*
G01*
X127475000Y-71181250D01*
G75*
G02*
X127206250Y-71450000I-268750J0D01*
G01*
X126668750Y-71450000D01*
G75*
G02*
X126400000Y-71181250I0J268750D01*
G01*
G37*
G36*
G01*
X124525000Y-71181250D02*
X124525000Y-70218750D01*
G75*
G02*
X124793750Y-69950000I268750J0D01*
G01*
X125331250Y-69950000D01*
G75*
G02*
X125600000Y-70218750I0J-268750D01*
G01*
X125600000Y-71181250D01*
G75*
G02*
X125331250Y-71450000I-268750J0D01*
G01*
X124793750Y-71450000D01*
G75*
G02*
X124525000Y-71181250I0J268750D01*
G01*
G37*
%TD*%
%TO.C,C51*%
G36*
G01*
X210400000Y-71181250D02*
X210400000Y-70218750D01*
G75*
G02*
X210668750Y-69950000I268750J0D01*
G01*
X211206250Y-69950000D01*
G75*
G02*
X211475000Y-70218750I0J-268750D01*
G01*
X211475000Y-71181250D01*
G75*
G02*
X211206250Y-71450000I-268750J0D01*
G01*
X210668750Y-71450000D01*
G75*
G02*
X210400000Y-71181250I0J268750D01*
G01*
G37*
G36*
G01*
X208525000Y-71181250D02*
X208525000Y-70218750D01*
G75*
G02*
X208793750Y-69950000I268750J0D01*
G01*
X209331250Y-69950000D01*
G75*
G02*
X209600000Y-70218750I0J-268750D01*
G01*
X209600000Y-71181250D01*
G75*
G02*
X209331250Y-71450000I-268750J0D01*
G01*
X208793750Y-71450000D01*
G75*
G02*
X208525000Y-71181250I0J268750D01*
G01*
G37*
%TD*%
%TO.C,C57*%
G36*
G01*
X138400000Y-71181250D02*
X138400000Y-70218750D01*
G75*
G02*
X138668750Y-69950000I268750J0D01*
G01*
X139206250Y-69950000D01*
G75*
G02*
X139475000Y-70218750I0J-268750D01*
G01*
X139475000Y-71181250D01*
G75*
G02*
X139206250Y-71450000I-268750J0D01*
G01*
X138668750Y-71450000D01*
G75*
G02*
X138400000Y-71181250I0J268750D01*
G01*
G37*
G36*
G01*
X136525000Y-71181250D02*
X136525000Y-70218750D01*
G75*
G02*
X136793750Y-69950000I268750J0D01*
G01*
X137331250Y-69950000D01*
G75*
G02*
X137600000Y-70218750I0J-268750D01*
G01*
X137600000Y-71181250D01*
G75*
G02*
X137331250Y-71450000I-268750J0D01*
G01*
X136793750Y-71450000D01*
G75*
G02*
X136525000Y-71181250I0J268750D01*
G01*
G37*
%TD*%
%TO.C,C50*%
G36*
G01*
X222400000Y-71181250D02*
X222400000Y-70218750D01*
G75*
G02*
X222668750Y-69950000I268750J0D01*
G01*
X223206250Y-69950000D01*
G75*
G02*
X223475000Y-70218750I0J-268750D01*
G01*
X223475000Y-71181250D01*
G75*
G02*
X223206250Y-71450000I-268750J0D01*
G01*
X222668750Y-71450000D01*
G75*
G02*
X222400000Y-71181250I0J268750D01*
G01*
G37*
G36*
G01*
X220525000Y-71181250D02*
X220525000Y-70218750D01*
G75*
G02*
X220793750Y-69950000I268750J0D01*
G01*
X221331250Y-69950000D01*
G75*
G02*
X221600000Y-70218750I0J-268750D01*
G01*
X221600000Y-71181250D01*
G75*
G02*
X221331250Y-71450000I-268750J0D01*
G01*
X220793750Y-71450000D01*
G75*
G02*
X220525000Y-71181250I0J268750D01*
G01*
G37*
%TD*%
%TO.C,C56*%
G36*
G01*
X150400000Y-71181250D02*
X150400000Y-70218750D01*
G75*
G02*
X150668750Y-69950000I268750J0D01*
G01*
X151206250Y-69950000D01*
G75*
G02*
X151475000Y-70218750I0J-268750D01*
G01*
X151475000Y-71181250D01*
G75*
G02*
X151206250Y-71450000I-268750J0D01*
G01*
X150668750Y-71450000D01*
G75*
G02*
X150400000Y-71181250I0J268750D01*
G01*
G37*
G36*
G01*
X148525000Y-71181250D02*
X148525000Y-70218750D01*
G75*
G02*
X148793750Y-69950000I268750J0D01*
G01*
X149331250Y-69950000D01*
G75*
G02*
X149600000Y-70218750I0J-268750D01*
G01*
X149600000Y-71181250D01*
G75*
G02*
X149331250Y-71450000I-268750J0D01*
G01*
X148793750Y-71450000D01*
G75*
G02*
X148525000Y-71181250I0J268750D01*
G01*
G37*
%TD*%
%TO.C,C49*%
G36*
G01*
X234400000Y-71181250D02*
X234400000Y-70218750D01*
G75*
G02*
X234668750Y-69950000I268750J0D01*
G01*
X235206250Y-69950000D01*
G75*
G02*
X235475000Y-70218750I0J-268750D01*
G01*
X235475000Y-71181250D01*
G75*
G02*
X235206250Y-71450000I-268750J0D01*
G01*
X234668750Y-71450000D01*
G75*
G02*
X234400000Y-71181250I0J268750D01*
G01*
G37*
G36*
G01*
X232525000Y-71181250D02*
X232525000Y-70218750D01*
G75*
G02*
X232793750Y-69950000I268750J0D01*
G01*
X233331250Y-69950000D01*
G75*
G02*
X233600000Y-70218750I0J-268750D01*
G01*
X233600000Y-71181250D01*
G75*
G02*
X233331250Y-71450000I-268750J0D01*
G01*
X232793750Y-71450000D01*
G75*
G02*
X232525000Y-71181250I0J268750D01*
G01*
G37*
%TD*%
%TO.C,C48*%
G36*
G01*
X227600000Y-67718750D02*
X227600000Y-68681250D01*
G75*
G02*
X227331250Y-68950000I-268750J0D01*
G01*
X226793750Y-68950000D01*
G75*
G02*
X226525000Y-68681250I0J268750D01*
G01*
X226525000Y-67718750D01*
G75*
G02*
X226793750Y-67450000I268750J0D01*
G01*
X227331250Y-67450000D01*
G75*
G02*
X227600000Y-67718750I0J-268750D01*
G01*
G37*
G36*
G01*
X229475000Y-67718750D02*
X229475000Y-68681250D01*
G75*
G02*
X229206250Y-68950000I-268750J0D01*
G01*
X228668750Y-68950000D01*
G75*
G02*
X228400000Y-68681250I0J268750D01*
G01*
X228400000Y-67718750D01*
G75*
G02*
X228668750Y-67450000I268750J0D01*
G01*
X229206250Y-67450000D01*
G75*
G02*
X229475000Y-67718750I0J-268750D01*
G01*
G37*
%TD*%
%TO.C,C41*%
G36*
G01*
X143600000Y-67718750D02*
X143600000Y-68681250D01*
G75*
G02*
X143331250Y-68950000I-268750J0D01*
G01*
X142793750Y-68950000D01*
G75*
G02*
X142525000Y-68681250I0J268750D01*
G01*
X142525000Y-67718750D01*
G75*
G02*
X142793750Y-67450000I268750J0D01*
G01*
X143331250Y-67450000D01*
G75*
G02*
X143600000Y-67718750I0J-268750D01*
G01*
G37*
G36*
G01*
X145475000Y-67718750D02*
X145475000Y-68681250D01*
G75*
G02*
X145206250Y-68950000I-268750J0D01*
G01*
X144668750Y-68950000D01*
G75*
G02*
X144400000Y-68681250I0J268750D01*
G01*
X144400000Y-67718750D01*
G75*
G02*
X144668750Y-67450000I268750J0D01*
G01*
X145206250Y-67450000D01*
G75*
G02*
X145475000Y-67718750I0J-268750D01*
G01*
G37*
%TD*%
%TO.C,C47*%
G36*
G01*
X215600000Y-67718750D02*
X215600000Y-68681250D01*
G75*
G02*
X215331250Y-68950000I-268750J0D01*
G01*
X214793750Y-68950000D01*
G75*
G02*
X214525000Y-68681250I0J268750D01*
G01*
X214525000Y-67718750D01*
G75*
G02*
X214793750Y-67450000I268750J0D01*
G01*
X215331250Y-67450000D01*
G75*
G02*
X215600000Y-67718750I0J-268750D01*
G01*
G37*
G36*
G01*
X217475000Y-67718750D02*
X217475000Y-68681250D01*
G75*
G02*
X217206250Y-68950000I-268750J0D01*
G01*
X216668750Y-68950000D01*
G75*
G02*
X216400000Y-68681250I0J268750D01*
G01*
X216400000Y-67718750D01*
G75*
G02*
X216668750Y-67450000I268750J0D01*
G01*
X217206250Y-67450000D01*
G75*
G02*
X217475000Y-67718750I0J-268750D01*
G01*
G37*
%TD*%
%TO.C,C40*%
G36*
G01*
X131600000Y-67718750D02*
X131600000Y-68681250D01*
G75*
G02*
X131331250Y-68950000I-268750J0D01*
G01*
X130793750Y-68950000D01*
G75*
G02*
X130525000Y-68681250I0J268750D01*
G01*
X130525000Y-67718750D01*
G75*
G02*
X130793750Y-67450000I268750J0D01*
G01*
X131331250Y-67450000D01*
G75*
G02*
X131600000Y-67718750I0J-268750D01*
G01*
G37*
G36*
G01*
X133475000Y-67718750D02*
X133475000Y-68681250D01*
G75*
G02*
X133206250Y-68950000I-268750J0D01*
G01*
X132668750Y-68950000D01*
G75*
G02*
X132400000Y-68681250I0J268750D01*
G01*
X132400000Y-67718750D01*
G75*
G02*
X132668750Y-67450000I268750J0D01*
G01*
X133206250Y-67450000D01*
G75*
G02*
X133475000Y-67718750I0J-268750D01*
G01*
G37*
%TD*%
%TO.C,C46*%
G36*
G01*
X203600000Y-67718750D02*
X203600000Y-68681250D01*
G75*
G02*
X203331250Y-68950000I-268750J0D01*
G01*
X202793750Y-68950000D01*
G75*
G02*
X202525000Y-68681250I0J268750D01*
G01*
X202525000Y-67718750D01*
G75*
G02*
X202793750Y-67450000I268750J0D01*
G01*
X203331250Y-67450000D01*
G75*
G02*
X203600000Y-67718750I0J-268750D01*
G01*
G37*
G36*
G01*
X205475000Y-67718750D02*
X205475000Y-68681250D01*
G75*
G02*
X205206250Y-68950000I-268750J0D01*
G01*
X204668750Y-68950000D01*
G75*
G02*
X204400000Y-68681250I0J268750D01*
G01*
X204400000Y-67718750D01*
G75*
G02*
X204668750Y-67450000I268750J0D01*
G01*
X205206250Y-67450000D01*
G75*
G02*
X205475000Y-67718750I0J-268750D01*
G01*
G37*
%TD*%
%TO.C,C39*%
G36*
G01*
X119600000Y-67718750D02*
X119600000Y-68681250D01*
G75*
G02*
X119331250Y-68950000I-268750J0D01*
G01*
X118793750Y-68950000D01*
G75*
G02*
X118525000Y-68681250I0J268750D01*
G01*
X118525000Y-67718750D01*
G75*
G02*
X118793750Y-67450000I268750J0D01*
G01*
X119331250Y-67450000D01*
G75*
G02*
X119600000Y-67718750I0J-268750D01*
G01*
G37*
G36*
G01*
X121475000Y-67718750D02*
X121475000Y-68681250D01*
G75*
G02*
X121206250Y-68950000I-268750J0D01*
G01*
X120668750Y-68950000D01*
G75*
G02*
X120400000Y-68681250I0J268750D01*
G01*
X120400000Y-67718750D01*
G75*
G02*
X120668750Y-67450000I268750J0D01*
G01*
X121206250Y-67450000D01*
G75*
G02*
X121475000Y-67718750I0J-268750D01*
G01*
G37*
%TD*%
%TO.C,C45*%
G36*
G01*
X191600000Y-67718750D02*
X191600000Y-68681250D01*
G75*
G02*
X191331250Y-68950000I-268750J0D01*
G01*
X190793750Y-68950000D01*
G75*
G02*
X190525000Y-68681250I0J268750D01*
G01*
X190525000Y-67718750D01*
G75*
G02*
X190793750Y-67450000I268750J0D01*
G01*
X191331250Y-67450000D01*
G75*
G02*
X191600000Y-67718750I0J-268750D01*
G01*
G37*
G36*
G01*
X193475000Y-67718750D02*
X193475000Y-68681250D01*
G75*
G02*
X193206250Y-68950000I-268750J0D01*
G01*
X192668750Y-68950000D01*
G75*
G02*
X192400000Y-68681250I0J268750D01*
G01*
X192400000Y-67718750D01*
G75*
G02*
X192668750Y-67450000I268750J0D01*
G01*
X193206250Y-67450000D01*
G75*
G02*
X193475000Y-67718750I0J-268750D01*
G01*
G37*
%TD*%
%TO.C,C38*%
G36*
G01*
X107600000Y-67718750D02*
X107600000Y-68681250D01*
G75*
G02*
X107331250Y-68950000I-268750J0D01*
G01*
X106793750Y-68950000D01*
G75*
G02*
X106525000Y-68681250I0J268750D01*
G01*
X106525000Y-67718750D01*
G75*
G02*
X106793750Y-67450000I268750J0D01*
G01*
X107331250Y-67450000D01*
G75*
G02*
X107600000Y-67718750I0J-268750D01*
G01*
G37*
G36*
G01*
X109475000Y-67718750D02*
X109475000Y-68681250D01*
G75*
G02*
X109206250Y-68950000I-268750J0D01*
G01*
X108668750Y-68950000D01*
G75*
G02*
X108400000Y-68681250I0J268750D01*
G01*
X108400000Y-67718750D01*
G75*
G02*
X108668750Y-67450000I268750J0D01*
G01*
X109206250Y-67450000D01*
G75*
G02*
X109475000Y-67718750I0J-268750D01*
G01*
G37*
%TD*%
%TO.C,C44*%
G36*
G01*
X179600000Y-67718750D02*
X179600000Y-68681250D01*
G75*
G02*
X179331250Y-68950000I-268750J0D01*
G01*
X178793750Y-68950000D01*
G75*
G02*
X178525000Y-68681250I0J268750D01*
G01*
X178525000Y-67718750D01*
G75*
G02*
X178793750Y-67450000I268750J0D01*
G01*
X179331250Y-67450000D01*
G75*
G02*
X179600000Y-67718750I0J-268750D01*
G01*
G37*
G36*
G01*
X181475000Y-67718750D02*
X181475000Y-68681250D01*
G75*
G02*
X181206250Y-68950000I-268750J0D01*
G01*
X180668750Y-68950000D01*
G75*
G02*
X180400000Y-68681250I0J268750D01*
G01*
X180400000Y-67718750D01*
G75*
G02*
X180668750Y-67450000I268750J0D01*
G01*
X181206250Y-67450000D01*
G75*
G02*
X181475000Y-67718750I0J-268750D01*
G01*
G37*
%TD*%
%TO.C,C37*%
G36*
G01*
X95600000Y-67718750D02*
X95600000Y-68681250D01*
G75*
G02*
X95331250Y-68950000I-268750J0D01*
G01*
X94793750Y-68950000D01*
G75*
G02*
X94525000Y-68681250I0J268750D01*
G01*
X94525000Y-67718750D01*
G75*
G02*
X94793750Y-67450000I268750J0D01*
G01*
X95331250Y-67450000D01*
G75*
G02*
X95600000Y-67718750I0J-268750D01*
G01*
G37*
G36*
G01*
X97475000Y-67718750D02*
X97475000Y-68681250D01*
G75*
G02*
X97206250Y-68950000I-268750J0D01*
G01*
X96668750Y-68950000D01*
G75*
G02*
X96400000Y-68681250I0J268750D01*
G01*
X96400000Y-67718750D01*
G75*
G02*
X96668750Y-67450000I268750J0D01*
G01*
X97206250Y-67450000D01*
G75*
G02*
X97475000Y-67718750I0J-268750D01*
G01*
G37*
%TD*%
%TO.C,C43*%
G36*
G01*
X167600000Y-67718750D02*
X167600000Y-68681250D01*
G75*
G02*
X167331250Y-68950000I-268750J0D01*
G01*
X166793750Y-68950000D01*
G75*
G02*
X166525000Y-68681250I0J268750D01*
G01*
X166525000Y-67718750D01*
G75*
G02*
X166793750Y-67450000I268750J0D01*
G01*
X167331250Y-67450000D01*
G75*
G02*
X167600000Y-67718750I0J-268750D01*
G01*
G37*
G36*
G01*
X169475000Y-67718750D02*
X169475000Y-68681250D01*
G75*
G02*
X169206250Y-68950000I-268750J0D01*
G01*
X168668750Y-68950000D01*
G75*
G02*
X168400000Y-68681250I0J268750D01*
G01*
X168400000Y-67718750D01*
G75*
G02*
X168668750Y-67450000I268750J0D01*
G01*
X169206250Y-67450000D01*
G75*
G02*
X169475000Y-67718750I0J-268750D01*
G01*
G37*
%TD*%
%TO.C,C36*%
G36*
G01*
X83600000Y-67718750D02*
X83600000Y-68681250D01*
G75*
G02*
X83331250Y-68950000I-268750J0D01*
G01*
X82793750Y-68950000D01*
G75*
G02*
X82525000Y-68681250I0J268750D01*
G01*
X82525000Y-67718750D01*
G75*
G02*
X82793750Y-67450000I268750J0D01*
G01*
X83331250Y-67450000D01*
G75*
G02*
X83600000Y-67718750I0J-268750D01*
G01*
G37*
G36*
G01*
X85475000Y-67718750D02*
X85475000Y-68681250D01*
G75*
G02*
X85206250Y-68950000I-268750J0D01*
G01*
X84668750Y-68950000D01*
G75*
G02*
X84400000Y-68681250I0J268750D01*
G01*
X84400000Y-67718750D01*
G75*
G02*
X84668750Y-67450000I268750J0D01*
G01*
X85206250Y-67450000D01*
G75*
G02*
X85475000Y-67718750I0J-268750D01*
G01*
G37*
%TD*%
%TO.C,C42*%
G36*
G01*
X155600000Y-67718750D02*
X155600000Y-68681250D01*
G75*
G02*
X155331250Y-68950000I-268750J0D01*
G01*
X154793750Y-68950000D01*
G75*
G02*
X154525000Y-68681250I0J268750D01*
G01*
X154525000Y-67718750D01*
G75*
G02*
X154793750Y-67450000I268750J0D01*
G01*
X155331250Y-67450000D01*
G75*
G02*
X155600000Y-67718750I0J-268750D01*
G01*
G37*
G36*
G01*
X157475000Y-67718750D02*
X157475000Y-68681250D01*
G75*
G02*
X157206250Y-68950000I-268750J0D01*
G01*
X156668750Y-68950000D01*
G75*
G02*
X156400000Y-68681250I0J268750D01*
G01*
X156400000Y-67718750D01*
G75*
G02*
X156668750Y-67450000I268750J0D01*
G01*
X157206250Y-67450000D01*
G75*
G02*
X157475000Y-67718750I0J-268750D01*
G01*
G37*
%TD*%
%TO.C,C35*%
G36*
G01*
X71600000Y-67718750D02*
X71600000Y-68681250D01*
G75*
G02*
X71331250Y-68950000I-268750J0D01*
G01*
X70793750Y-68950000D01*
G75*
G02*
X70525000Y-68681250I0J268750D01*
G01*
X70525000Y-67718750D01*
G75*
G02*
X70793750Y-67450000I268750J0D01*
G01*
X71331250Y-67450000D01*
G75*
G02*
X71600000Y-67718750I0J-268750D01*
G01*
G37*
G36*
G01*
X73475000Y-67718750D02*
X73475000Y-68681250D01*
G75*
G02*
X73206250Y-68950000I-268750J0D01*
G01*
X72668750Y-68950000D01*
G75*
G02*
X72400000Y-68681250I0J268750D01*
G01*
X72400000Y-67718750D01*
G75*
G02*
X72668750Y-67450000I268750J0D01*
G01*
X73206250Y-67450000D01*
G75*
G02*
X73475000Y-67718750I0J-268750D01*
G01*
G37*
%TD*%
%TO.C,C34*%
G36*
G01*
X227600000Y-109318750D02*
X227600000Y-110281250D01*
G75*
G02*
X227331250Y-110550000I-268750J0D01*
G01*
X226793750Y-110550000D01*
G75*
G02*
X226525000Y-110281250I0J268750D01*
G01*
X226525000Y-109318750D01*
G75*
G02*
X226793750Y-109050000I268750J0D01*
G01*
X227331250Y-109050000D01*
G75*
G02*
X227600000Y-109318750I0J-268750D01*
G01*
G37*
G36*
G01*
X229475000Y-109318750D02*
X229475000Y-110281250D01*
G75*
G02*
X229206250Y-110550000I-268750J0D01*
G01*
X228668750Y-110550000D01*
G75*
G02*
X228400000Y-110281250I0J268750D01*
G01*
X228400000Y-109318750D01*
G75*
G02*
X228668750Y-109050000I268750J0D01*
G01*
X229206250Y-109050000D01*
G75*
G02*
X229475000Y-109318750I0J-268750D01*
G01*
G37*
%TD*%
%TO.C,C27*%
G36*
G01*
X143600000Y-109318750D02*
X143600000Y-110281250D01*
G75*
G02*
X143331250Y-110550000I-268750J0D01*
G01*
X142793750Y-110550000D01*
G75*
G02*
X142525000Y-110281250I0J268750D01*
G01*
X142525000Y-109318750D01*
G75*
G02*
X142793750Y-109050000I268750J0D01*
G01*
X143331250Y-109050000D01*
G75*
G02*
X143600000Y-109318750I0J-268750D01*
G01*
G37*
G36*
G01*
X145475000Y-109318750D02*
X145475000Y-110281250D01*
G75*
G02*
X145206250Y-110550000I-268750J0D01*
G01*
X144668750Y-110550000D01*
G75*
G02*
X144400000Y-110281250I0J268750D01*
G01*
X144400000Y-109318750D01*
G75*
G02*
X144668750Y-109050000I268750J0D01*
G01*
X145206250Y-109050000D01*
G75*
G02*
X145475000Y-109318750I0J-268750D01*
G01*
G37*
%TD*%
%TO.C,C33*%
G36*
G01*
X215600000Y-109318750D02*
X215600000Y-110281250D01*
G75*
G02*
X215331250Y-110550000I-268750J0D01*
G01*
X214793750Y-110550000D01*
G75*
G02*
X214525000Y-110281250I0J268750D01*
G01*
X214525000Y-109318750D01*
G75*
G02*
X214793750Y-109050000I268750J0D01*
G01*
X215331250Y-109050000D01*
G75*
G02*
X215600000Y-109318750I0J-268750D01*
G01*
G37*
G36*
G01*
X217475000Y-109318750D02*
X217475000Y-110281250D01*
G75*
G02*
X217206250Y-110550000I-268750J0D01*
G01*
X216668750Y-110550000D01*
G75*
G02*
X216400000Y-110281250I0J268750D01*
G01*
X216400000Y-109318750D01*
G75*
G02*
X216668750Y-109050000I268750J0D01*
G01*
X217206250Y-109050000D01*
G75*
G02*
X217475000Y-109318750I0J-268750D01*
G01*
G37*
%TD*%
%TO.C,C26*%
G36*
G01*
X131600000Y-109318750D02*
X131600000Y-110281250D01*
G75*
G02*
X131331250Y-110550000I-268750J0D01*
G01*
X130793750Y-110550000D01*
G75*
G02*
X130525000Y-110281250I0J268750D01*
G01*
X130525000Y-109318750D01*
G75*
G02*
X130793750Y-109050000I268750J0D01*
G01*
X131331250Y-109050000D01*
G75*
G02*
X131600000Y-109318750I0J-268750D01*
G01*
G37*
G36*
G01*
X133475000Y-109318750D02*
X133475000Y-110281250D01*
G75*
G02*
X133206250Y-110550000I-268750J0D01*
G01*
X132668750Y-110550000D01*
G75*
G02*
X132400000Y-110281250I0J268750D01*
G01*
X132400000Y-109318750D01*
G75*
G02*
X132668750Y-109050000I268750J0D01*
G01*
X133206250Y-109050000D01*
G75*
G02*
X133475000Y-109318750I0J-268750D01*
G01*
G37*
%TD*%
%TO.C,C32*%
G36*
G01*
X203600000Y-109318750D02*
X203600000Y-110281250D01*
G75*
G02*
X203331250Y-110550000I-268750J0D01*
G01*
X202793750Y-110550000D01*
G75*
G02*
X202525000Y-110281250I0J268750D01*
G01*
X202525000Y-109318750D01*
G75*
G02*
X202793750Y-109050000I268750J0D01*
G01*
X203331250Y-109050000D01*
G75*
G02*
X203600000Y-109318750I0J-268750D01*
G01*
G37*
G36*
G01*
X205475000Y-109318750D02*
X205475000Y-110281250D01*
G75*
G02*
X205206250Y-110550000I-268750J0D01*
G01*
X204668750Y-110550000D01*
G75*
G02*
X204400000Y-110281250I0J268750D01*
G01*
X204400000Y-109318750D01*
G75*
G02*
X204668750Y-109050000I268750J0D01*
G01*
X205206250Y-109050000D01*
G75*
G02*
X205475000Y-109318750I0J-268750D01*
G01*
G37*
%TD*%
%TO.C,C25*%
G36*
G01*
X119600000Y-109318750D02*
X119600000Y-110281250D01*
G75*
G02*
X119331250Y-110550000I-268750J0D01*
G01*
X118793750Y-110550000D01*
G75*
G02*
X118525000Y-110281250I0J268750D01*
G01*
X118525000Y-109318750D01*
G75*
G02*
X118793750Y-109050000I268750J0D01*
G01*
X119331250Y-109050000D01*
G75*
G02*
X119600000Y-109318750I0J-268750D01*
G01*
G37*
G36*
G01*
X121475000Y-109318750D02*
X121475000Y-110281250D01*
G75*
G02*
X121206250Y-110550000I-268750J0D01*
G01*
X120668750Y-110550000D01*
G75*
G02*
X120400000Y-110281250I0J268750D01*
G01*
X120400000Y-109318750D01*
G75*
G02*
X120668750Y-109050000I268750J0D01*
G01*
X121206250Y-109050000D01*
G75*
G02*
X121475000Y-109318750I0J-268750D01*
G01*
G37*
%TD*%
%TO.C,C31*%
G36*
G01*
X191600000Y-109318750D02*
X191600000Y-110281250D01*
G75*
G02*
X191331250Y-110550000I-268750J0D01*
G01*
X190793750Y-110550000D01*
G75*
G02*
X190525000Y-110281250I0J268750D01*
G01*
X190525000Y-109318750D01*
G75*
G02*
X190793750Y-109050000I268750J0D01*
G01*
X191331250Y-109050000D01*
G75*
G02*
X191600000Y-109318750I0J-268750D01*
G01*
G37*
G36*
G01*
X193475000Y-109318750D02*
X193475000Y-110281250D01*
G75*
G02*
X193206250Y-110550000I-268750J0D01*
G01*
X192668750Y-110550000D01*
G75*
G02*
X192400000Y-110281250I0J268750D01*
G01*
X192400000Y-109318750D01*
G75*
G02*
X192668750Y-109050000I268750J0D01*
G01*
X193206250Y-109050000D01*
G75*
G02*
X193475000Y-109318750I0J-268750D01*
G01*
G37*
%TD*%
%TO.C,C24*%
G36*
G01*
X107600000Y-109318750D02*
X107600000Y-110281250D01*
G75*
G02*
X107331250Y-110550000I-268750J0D01*
G01*
X106793750Y-110550000D01*
G75*
G02*
X106525000Y-110281250I0J268750D01*
G01*
X106525000Y-109318750D01*
G75*
G02*
X106793750Y-109050000I268750J0D01*
G01*
X107331250Y-109050000D01*
G75*
G02*
X107600000Y-109318750I0J-268750D01*
G01*
G37*
G36*
G01*
X109475000Y-109318750D02*
X109475000Y-110281250D01*
G75*
G02*
X109206250Y-110550000I-268750J0D01*
G01*
X108668750Y-110550000D01*
G75*
G02*
X108400000Y-110281250I0J268750D01*
G01*
X108400000Y-109318750D01*
G75*
G02*
X108668750Y-109050000I268750J0D01*
G01*
X109206250Y-109050000D01*
G75*
G02*
X109475000Y-109318750I0J-268750D01*
G01*
G37*
%TD*%
%TO.C,C30*%
G36*
G01*
X179600000Y-109318750D02*
X179600000Y-110281250D01*
G75*
G02*
X179331250Y-110550000I-268750J0D01*
G01*
X178793750Y-110550000D01*
G75*
G02*
X178525000Y-110281250I0J268750D01*
G01*
X178525000Y-109318750D01*
G75*
G02*
X178793750Y-109050000I268750J0D01*
G01*
X179331250Y-109050000D01*
G75*
G02*
X179600000Y-109318750I0J-268750D01*
G01*
G37*
G36*
G01*
X181475000Y-109318750D02*
X181475000Y-110281250D01*
G75*
G02*
X181206250Y-110550000I-268750J0D01*
G01*
X180668750Y-110550000D01*
G75*
G02*
X180400000Y-110281250I0J268750D01*
G01*
X180400000Y-109318750D01*
G75*
G02*
X180668750Y-109050000I268750J0D01*
G01*
X181206250Y-109050000D01*
G75*
G02*
X181475000Y-109318750I0J-268750D01*
G01*
G37*
%TD*%
%TO.C,C23*%
G36*
G01*
X95600000Y-109318750D02*
X95600000Y-110281250D01*
G75*
G02*
X95331250Y-110550000I-268750J0D01*
G01*
X94793750Y-110550000D01*
G75*
G02*
X94525000Y-110281250I0J268750D01*
G01*
X94525000Y-109318750D01*
G75*
G02*
X94793750Y-109050000I268750J0D01*
G01*
X95331250Y-109050000D01*
G75*
G02*
X95600000Y-109318750I0J-268750D01*
G01*
G37*
G36*
G01*
X97475000Y-109318750D02*
X97475000Y-110281250D01*
G75*
G02*
X97206250Y-110550000I-268750J0D01*
G01*
X96668750Y-110550000D01*
G75*
G02*
X96400000Y-110281250I0J268750D01*
G01*
X96400000Y-109318750D01*
G75*
G02*
X96668750Y-109050000I268750J0D01*
G01*
X97206250Y-109050000D01*
G75*
G02*
X97475000Y-109318750I0J-268750D01*
G01*
G37*
%TD*%
%TO.C,C29*%
G36*
G01*
X167600000Y-109318750D02*
X167600000Y-110281250D01*
G75*
G02*
X167331250Y-110550000I-268750J0D01*
G01*
X166793750Y-110550000D01*
G75*
G02*
X166525000Y-110281250I0J268750D01*
G01*
X166525000Y-109318750D01*
G75*
G02*
X166793750Y-109050000I268750J0D01*
G01*
X167331250Y-109050000D01*
G75*
G02*
X167600000Y-109318750I0J-268750D01*
G01*
G37*
G36*
G01*
X169475000Y-109318750D02*
X169475000Y-110281250D01*
G75*
G02*
X169206250Y-110550000I-268750J0D01*
G01*
X168668750Y-110550000D01*
G75*
G02*
X168400000Y-110281250I0J268750D01*
G01*
X168400000Y-109318750D01*
G75*
G02*
X168668750Y-109050000I268750J0D01*
G01*
X169206250Y-109050000D01*
G75*
G02*
X169475000Y-109318750I0J-268750D01*
G01*
G37*
%TD*%
%TO.C,C22*%
G36*
G01*
X83600000Y-109318750D02*
X83600000Y-110281250D01*
G75*
G02*
X83331250Y-110550000I-268750J0D01*
G01*
X82793750Y-110550000D01*
G75*
G02*
X82525000Y-110281250I0J268750D01*
G01*
X82525000Y-109318750D01*
G75*
G02*
X82793750Y-109050000I268750J0D01*
G01*
X83331250Y-109050000D01*
G75*
G02*
X83600000Y-109318750I0J-268750D01*
G01*
G37*
G36*
G01*
X85475000Y-109318750D02*
X85475000Y-110281250D01*
G75*
G02*
X85206250Y-110550000I-268750J0D01*
G01*
X84668750Y-110550000D01*
G75*
G02*
X84400000Y-110281250I0J268750D01*
G01*
X84400000Y-109318750D01*
G75*
G02*
X84668750Y-109050000I268750J0D01*
G01*
X85206250Y-109050000D01*
G75*
G02*
X85475000Y-109318750I0J-268750D01*
G01*
G37*
%TD*%
%TO.C,C28*%
G36*
G01*
X155600000Y-109318750D02*
X155600000Y-110281250D01*
G75*
G02*
X155331250Y-110550000I-268750J0D01*
G01*
X154793750Y-110550000D01*
G75*
G02*
X154525000Y-110281250I0J268750D01*
G01*
X154525000Y-109318750D01*
G75*
G02*
X154793750Y-109050000I268750J0D01*
G01*
X155331250Y-109050000D01*
G75*
G02*
X155600000Y-109318750I0J-268750D01*
G01*
G37*
G36*
G01*
X157475000Y-109318750D02*
X157475000Y-110281250D01*
G75*
G02*
X157206250Y-110550000I-268750J0D01*
G01*
X156668750Y-110550000D01*
G75*
G02*
X156400000Y-110281250I0J268750D01*
G01*
X156400000Y-109318750D01*
G75*
G02*
X156668750Y-109050000I268750J0D01*
G01*
X157206250Y-109050000D01*
G75*
G02*
X157475000Y-109318750I0J-268750D01*
G01*
G37*
%TD*%
%TO.C,C21*%
G36*
G01*
X71600000Y-109318750D02*
X71600000Y-110281250D01*
G75*
G02*
X71331250Y-110550000I-268750J0D01*
G01*
X70793750Y-110550000D01*
G75*
G02*
X70525000Y-110281250I0J268750D01*
G01*
X70525000Y-109318750D01*
G75*
G02*
X70793750Y-109050000I268750J0D01*
G01*
X71331250Y-109050000D01*
G75*
G02*
X71600000Y-109318750I0J-268750D01*
G01*
G37*
G36*
G01*
X73475000Y-109318750D02*
X73475000Y-110281250D01*
G75*
G02*
X73206250Y-110550000I-268750J0D01*
G01*
X72668750Y-110550000D01*
G75*
G02*
X72400000Y-110281250I0J268750D01*
G01*
X72400000Y-109318750D01*
G75*
G02*
X72668750Y-109050000I268750J0D01*
G01*
X73206250Y-109050000D01*
G75*
G02*
X73475000Y-109318750I0J-268750D01*
G01*
G37*
%TD*%
%TO.C,C20*%
G36*
G01*
X78400000Y-91881250D02*
X78400000Y-90918750D01*
G75*
G02*
X78668750Y-90650000I268750J0D01*
G01*
X79206250Y-90650000D01*
G75*
G02*
X79475000Y-90918750I0J-268750D01*
G01*
X79475000Y-91881250D01*
G75*
G02*
X79206250Y-92150000I-268750J0D01*
G01*
X78668750Y-92150000D01*
G75*
G02*
X78400000Y-91881250I0J268750D01*
G01*
G37*
G36*
G01*
X76525000Y-91881250D02*
X76525000Y-90918750D01*
G75*
G02*
X76793750Y-90650000I268750J0D01*
G01*
X77331250Y-90650000D01*
G75*
G02*
X77600000Y-90918750I0J-268750D01*
G01*
X77600000Y-91881250D01*
G75*
G02*
X77331250Y-92150000I-268750J0D01*
G01*
X76793750Y-92150000D01*
G75*
G02*
X76525000Y-91881250I0J268750D01*
G01*
G37*
%TD*%
%TO.C,C13*%
G36*
G01*
X162400000Y-91881250D02*
X162400000Y-90918750D01*
G75*
G02*
X162668750Y-90650000I268750J0D01*
G01*
X163206250Y-90650000D01*
G75*
G02*
X163475000Y-90918750I0J-268750D01*
G01*
X163475000Y-91881250D01*
G75*
G02*
X163206250Y-92150000I-268750J0D01*
G01*
X162668750Y-92150000D01*
G75*
G02*
X162400000Y-91881250I0J268750D01*
G01*
G37*
G36*
G01*
X160525000Y-91881250D02*
X160525000Y-90918750D01*
G75*
G02*
X160793750Y-90650000I268750J0D01*
G01*
X161331250Y-90650000D01*
G75*
G02*
X161600000Y-90918750I0J-268750D01*
G01*
X161600000Y-91881250D01*
G75*
G02*
X161331250Y-92150000I-268750J0D01*
G01*
X160793750Y-92150000D01*
G75*
G02*
X160525000Y-91881250I0J268750D01*
G01*
G37*
%TD*%
%TO.C,C19*%
G36*
G01*
X90400000Y-91881249D02*
X90400000Y-90918749D01*
G75*
G02*
X90668750Y-90649999I268750J0D01*
G01*
X91206250Y-90649999D01*
G75*
G02*
X91475000Y-90918749I0J-268750D01*
G01*
X91475000Y-91881249D01*
G75*
G02*
X91206250Y-92149999I-268750J0D01*
G01*
X90668750Y-92149999D01*
G75*
G02*
X90400000Y-91881249I0J268750D01*
G01*
G37*
G36*
G01*
X88525000Y-91881249D02*
X88525000Y-90918749D01*
G75*
G02*
X88793750Y-90649999I268750J0D01*
G01*
X89331250Y-90649999D01*
G75*
G02*
X89600000Y-90918749I0J-268750D01*
G01*
X89600000Y-91881249D01*
G75*
G02*
X89331250Y-92149999I-268750J0D01*
G01*
X88793750Y-92149999D01*
G75*
G02*
X88525000Y-91881249I0J268750D01*
G01*
G37*
%TD*%
%TO.C,C12*%
G36*
G01*
X174400000Y-91881250D02*
X174400000Y-90918750D01*
G75*
G02*
X174668750Y-90650000I268750J0D01*
G01*
X175206250Y-90650000D01*
G75*
G02*
X175475000Y-90918750I0J-268750D01*
G01*
X175475000Y-91881250D01*
G75*
G02*
X175206250Y-92150000I-268750J0D01*
G01*
X174668750Y-92150000D01*
G75*
G02*
X174400000Y-91881250I0J268750D01*
G01*
G37*
G36*
G01*
X172525000Y-91881250D02*
X172525000Y-90918750D01*
G75*
G02*
X172793750Y-90650000I268750J0D01*
G01*
X173331250Y-90650000D01*
G75*
G02*
X173600000Y-90918750I0J-268750D01*
G01*
X173600000Y-91881250D01*
G75*
G02*
X173331250Y-92150000I-268750J0D01*
G01*
X172793750Y-92150000D01*
G75*
G02*
X172525000Y-91881250I0J268750D01*
G01*
G37*
%TD*%
%TO.C,C18*%
G36*
G01*
X102400000Y-91881250D02*
X102400000Y-90918750D01*
G75*
G02*
X102668750Y-90650000I268750J0D01*
G01*
X103206250Y-90650000D01*
G75*
G02*
X103475000Y-90918750I0J-268750D01*
G01*
X103475000Y-91881250D01*
G75*
G02*
X103206250Y-92150000I-268750J0D01*
G01*
X102668750Y-92150000D01*
G75*
G02*
X102400000Y-91881250I0J268750D01*
G01*
G37*
G36*
G01*
X100525000Y-91881250D02*
X100525000Y-90918750D01*
G75*
G02*
X100793750Y-90650000I268750J0D01*
G01*
X101331250Y-90650000D01*
G75*
G02*
X101600000Y-90918750I0J-268750D01*
G01*
X101600000Y-91881250D01*
G75*
G02*
X101331250Y-92150000I-268750J0D01*
G01*
X100793750Y-92150000D01*
G75*
G02*
X100525000Y-91881250I0J268750D01*
G01*
G37*
%TD*%
%TO.C,C11*%
G36*
G01*
X186400000Y-91881249D02*
X186400000Y-90918749D01*
G75*
G02*
X186668750Y-90649999I268750J0D01*
G01*
X187206250Y-90649999D01*
G75*
G02*
X187475000Y-90918749I0J-268750D01*
G01*
X187475000Y-91881249D01*
G75*
G02*
X187206250Y-92149999I-268750J0D01*
G01*
X186668750Y-92149999D01*
G75*
G02*
X186400000Y-91881249I0J268750D01*
G01*
G37*
G36*
G01*
X184525000Y-91881249D02*
X184525000Y-90918749D01*
G75*
G02*
X184793750Y-90649999I268750J0D01*
G01*
X185331250Y-90649999D01*
G75*
G02*
X185600000Y-90918749I0J-268750D01*
G01*
X185600000Y-91881249D01*
G75*
G02*
X185331250Y-92149999I-268750J0D01*
G01*
X184793750Y-92149999D01*
G75*
G02*
X184525000Y-91881249I0J268750D01*
G01*
G37*
%TD*%
%TO.C,C17*%
G36*
G01*
X114400000Y-91881250D02*
X114400000Y-90918750D01*
G75*
G02*
X114668750Y-90650000I268750J0D01*
G01*
X115206250Y-90650000D01*
G75*
G02*
X115475000Y-90918750I0J-268750D01*
G01*
X115475000Y-91881250D01*
G75*
G02*
X115206250Y-92150000I-268750J0D01*
G01*
X114668750Y-92150000D01*
G75*
G02*
X114400000Y-91881250I0J268750D01*
G01*
G37*
G36*
G01*
X112525000Y-91881250D02*
X112525000Y-90918750D01*
G75*
G02*
X112793750Y-90650000I268750J0D01*
G01*
X113331250Y-90650000D01*
G75*
G02*
X113600000Y-90918750I0J-268750D01*
G01*
X113600000Y-91881250D01*
G75*
G02*
X113331250Y-92150000I-268750J0D01*
G01*
X112793750Y-92150000D01*
G75*
G02*
X112525000Y-91881250I0J268750D01*
G01*
G37*
%TD*%
%TO.C,C10*%
G36*
G01*
X198400000Y-91881250D02*
X198400000Y-90918750D01*
G75*
G02*
X198668750Y-90650000I268750J0D01*
G01*
X199206250Y-90650000D01*
G75*
G02*
X199475000Y-90918750I0J-268750D01*
G01*
X199475000Y-91881250D01*
G75*
G02*
X199206250Y-92150000I-268750J0D01*
G01*
X198668750Y-92150000D01*
G75*
G02*
X198400000Y-91881250I0J268750D01*
G01*
G37*
G36*
G01*
X196525000Y-91881250D02*
X196525000Y-90918750D01*
G75*
G02*
X196793750Y-90650000I268750J0D01*
G01*
X197331250Y-90650000D01*
G75*
G02*
X197600000Y-90918750I0J-268750D01*
G01*
X197600000Y-91881250D01*
G75*
G02*
X197331250Y-92150000I-268750J0D01*
G01*
X196793750Y-92150000D01*
G75*
G02*
X196525000Y-91881250I0J268750D01*
G01*
G37*
%TD*%
%TO.C,C16*%
G36*
G01*
X126400001Y-91881250D02*
X126400001Y-90918750D01*
G75*
G02*
X126668751Y-90650000I268750J0D01*
G01*
X127206251Y-90650000D01*
G75*
G02*
X127475001Y-90918750I0J-268750D01*
G01*
X127475001Y-91881250D01*
G75*
G02*
X127206251Y-92150000I-268750J0D01*
G01*
X126668751Y-92150000D01*
G75*
G02*
X126400001Y-91881250I0J268750D01*
G01*
G37*
G36*
G01*
X124525001Y-91881250D02*
X124525001Y-90918750D01*
G75*
G02*
X124793751Y-90650000I268750J0D01*
G01*
X125331251Y-90650000D01*
G75*
G02*
X125600001Y-90918750I0J-268750D01*
G01*
X125600001Y-91881250D01*
G75*
G02*
X125331251Y-92150000I-268750J0D01*
G01*
X124793751Y-92150000D01*
G75*
G02*
X124525001Y-91881250I0J268750D01*
G01*
G37*
%TD*%
%TO.C,C9*%
G36*
G01*
X210400000Y-91881250D02*
X210400000Y-90918750D01*
G75*
G02*
X210668750Y-90650000I268750J0D01*
G01*
X211206250Y-90650000D01*
G75*
G02*
X211475000Y-90918750I0J-268750D01*
G01*
X211475000Y-91881250D01*
G75*
G02*
X211206250Y-92150000I-268750J0D01*
G01*
X210668750Y-92150000D01*
G75*
G02*
X210400000Y-91881250I0J268750D01*
G01*
G37*
G36*
G01*
X208525000Y-91881250D02*
X208525000Y-90918750D01*
G75*
G02*
X208793750Y-90650000I268750J0D01*
G01*
X209331250Y-90650000D01*
G75*
G02*
X209600000Y-90918750I0J-268750D01*
G01*
X209600000Y-91881250D01*
G75*
G02*
X209331250Y-92150000I-268750J0D01*
G01*
X208793750Y-92150000D01*
G75*
G02*
X208525000Y-91881250I0J268750D01*
G01*
G37*
%TD*%
%TO.C,C15*%
G36*
G01*
X138400000Y-91881250D02*
X138400000Y-90918750D01*
G75*
G02*
X138668750Y-90650000I268750J0D01*
G01*
X139206250Y-90650000D01*
G75*
G02*
X139475000Y-90918750I0J-268750D01*
G01*
X139475000Y-91881250D01*
G75*
G02*
X139206250Y-92150000I-268750J0D01*
G01*
X138668750Y-92150000D01*
G75*
G02*
X138400000Y-91881250I0J268750D01*
G01*
G37*
G36*
G01*
X136525000Y-91881250D02*
X136525000Y-90918750D01*
G75*
G02*
X136793750Y-90650000I268750J0D01*
G01*
X137331250Y-90650000D01*
G75*
G02*
X137600000Y-90918750I0J-268750D01*
G01*
X137600000Y-91881250D01*
G75*
G02*
X137331250Y-92150000I-268750J0D01*
G01*
X136793750Y-92150000D01*
G75*
G02*
X136525000Y-91881250I0J268750D01*
G01*
G37*
%TD*%
%TO.C,C8*%
G36*
G01*
X222400001Y-91881250D02*
X222400001Y-90918750D01*
G75*
G02*
X222668751Y-90650000I268750J0D01*
G01*
X223206251Y-90650000D01*
G75*
G02*
X223475001Y-90918750I0J-268750D01*
G01*
X223475001Y-91881250D01*
G75*
G02*
X223206251Y-92150000I-268750J0D01*
G01*
X222668751Y-92150000D01*
G75*
G02*
X222400001Y-91881250I0J268750D01*
G01*
G37*
G36*
G01*
X220525001Y-91881250D02*
X220525001Y-90918750D01*
G75*
G02*
X220793751Y-90650000I268750J0D01*
G01*
X221331251Y-90650000D01*
G75*
G02*
X221600001Y-90918750I0J-268750D01*
G01*
X221600001Y-91881250D01*
G75*
G02*
X221331251Y-92150000I-268750J0D01*
G01*
X220793751Y-92150000D01*
G75*
G02*
X220525001Y-91881250I0J268750D01*
G01*
G37*
%TD*%
%TO.C,C14*%
G36*
G01*
X150400000Y-91881249D02*
X150400000Y-90918749D01*
G75*
G02*
X150668750Y-90649999I268750J0D01*
G01*
X151206250Y-90649999D01*
G75*
G02*
X151475000Y-90918749I0J-268750D01*
G01*
X151475000Y-91881249D01*
G75*
G02*
X151206250Y-92149999I-268750J0D01*
G01*
X150668750Y-92149999D01*
G75*
G02*
X150400000Y-91881249I0J268750D01*
G01*
G37*
G36*
G01*
X148525000Y-91881249D02*
X148525000Y-90918749D01*
G75*
G02*
X148793750Y-90649999I268750J0D01*
G01*
X149331250Y-90649999D01*
G75*
G02*
X149600000Y-90918749I0J-268750D01*
G01*
X149600000Y-91881249D01*
G75*
G02*
X149331250Y-92149999I-268750J0D01*
G01*
X148793750Y-92149999D01*
G75*
G02*
X148525000Y-91881249I0J268750D01*
G01*
G37*
%TD*%
%TO.C,C7*%
G36*
G01*
X234400000Y-91881250D02*
X234400000Y-90918750D01*
G75*
G02*
X234668750Y-90650000I268750J0D01*
G01*
X235206250Y-90650000D01*
G75*
G02*
X235475000Y-90918750I0J-268750D01*
G01*
X235475000Y-91881250D01*
G75*
G02*
X235206250Y-92150000I-268750J0D01*
G01*
X234668750Y-92150000D01*
G75*
G02*
X234400000Y-91881250I0J268750D01*
G01*
G37*
G36*
G01*
X232525000Y-91881250D02*
X232525000Y-90918750D01*
G75*
G02*
X232793750Y-90650000I268750J0D01*
G01*
X233331250Y-90650000D01*
G75*
G02*
X233600000Y-90918750I0J-268750D01*
G01*
X233600000Y-91881250D01*
G75*
G02*
X233331250Y-92150000I-268750J0D01*
G01*
X232793750Y-92150000D01*
G75*
G02*
X232525000Y-91881250I0J268750D01*
G01*
G37*
%TD*%
%TO.C,C4*%
G36*
G01*
X66400000Y-91881250D02*
X66400000Y-90918750D01*
G75*
G02*
X66668750Y-90650000I268750J0D01*
G01*
X67206250Y-90650000D01*
G75*
G02*
X67475000Y-90918750I0J-268750D01*
G01*
X67475000Y-91881250D01*
G75*
G02*
X67206250Y-92150000I-268750J0D01*
G01*
X66668750Y-92150000D01*
G75*
G02*
X66400000Y-91881250I0J268750D01*
G01*
G37*
G36*
G01*
X64525000Y-91881250D02*
X64525000Y-90918750D01*
G75*
G02*
X64793750Y-90650000I268750J0D01*
G01*
X65331250Y-90650000D01*
G75*
G02*
X65600000Y-90918750I0J-268750D01*
G01*
X65600000Y-91881250D01*
G75*
G02*
X65331250Y-92150000I-268750J0D01*
G01*
X64793750Y-92150000D01*
G75*
G02*
X64525000Y-91881250I0J268750D01*
G01*
G37*
%TD*%
%TO.C,C3*%
G36*
G01*
X239600000Y-88518750D02*
X239600000Y-89481250D01*
G75*
G02*
X239331250Y-89750000I-268750J0D01*
G01*
X238793750Y-89750000D01*
G75*
G02*
X238525000Y-89481250I0J268750D01*
G01*
X238525000Y-88518750D01*
G75*
G02*
X238793750Y-88250000I268750J0D01*
G01*
X239331250Y-88250000D01*
G75*
G02*
X239600000Y-88518750I0J-268750D01*
G01*
G37*
G36*
G01*
X241475000Y-88518750D02*
X241475000Y-89481250D01*
G75*
G02*
X241206250Y-89750000I-268750J0D01*
G01*
X240668750Y-89750000D01*
G75*
G02*
X240400000Y-89481250I0J268750D01*
G01*
X240400000Y-88518750D01*
G75*
G02*
X240668750Y-88250000I268750J0D01*
G01*
X241206250Y-88250000D01*
G75*
G02*
X241475000Y-88518750I0J-268750D01*
G01*
G37*
%TD*%
%TO.C,C2*%
G36*
G01*
X227600000Y-88518750D02*
X227600000Y-89481250D01*
G75*
G02*
X227331250Y-89750000I-268750J0D01*
G01*
X226793750Y-89750000D01*
G75*
G02*
X226525000Y-89481250I0J268750D01*
G01*
X226525000Y-88518750D01*
G75*
G02*
X226793750Y-88250000I268750J0D01*
G01*
X227331250Y-88250000D01*
G75*
G02*
X227600000Y-88518750I0J-268750D01*
G01*
G37*
G36*
G01*
X229475000Y-88518750D02*
X229475000Y-89481250D01*
G75*
G02*
X229206250Y-89750000I-268750J0D01*
G01*
X228668750Y-89750000D01*
G75*
G02*
X228400000Y-89481250I0J268750D01*
G01*
X228400000Y-88518750D01*
G75*
G02*
X228668750Y-88250000I268750J0D01*
G01*
X229206250Y-88250000D01*
G75*
G02*
X229475000Y-88518750I0J-268750D01*
G01*
G37*
%TD*%
%TO.C,C1*%
G36*
G01*
X66400000Y-71181250D02*
X66400000Y-70218750D01*
G75*
G02*
X66668750Y-69950000I268750J0D01*
G01*
X67206250Y-69950000D01*
G75*
G02*
X67475000Y-70218750I0J-268750D01*
G01*
X67475000Y-71181250D01*
G75*
G02*
X67206250Y-71450000I-268750J0D01*
G01*
X66668750Y-71450000D01*
G75*
G02*
X66400000Y-71181250I0J268750D01*
G01*
G37*
G36*
G01*
X64525000Y-71181250D02*
X64525000Y-70218750D01*
G75*
G02*
X64793750Y-69950000I268750J0D01*
G01*
X65331250Y-69950000D01*
G75*
G02*
X65600000Y-70218750I0J-268750D01*
G01*
X65600000Y-71181250D01*
G75*
G02*
X65331250Y-71450000I-268750J0D01*
G01*
X64793750Y-71450000D01*
G75*
G02*
X64525000Y-71181250I0J268750D01*
G01*
G37*
%TD*%
M02*
