%TF.GenerationSoftware,KiCad,Pcbnew,(5.1.6-0-10_14)*%
%TF.CreationDate,2020-11-10T16:11:36-05:00*%
%TF.ProjectId,honeylight,686f6e65-796c-4696-9768-742e6b696361,0.1.0*%
%TF.SameCoordinates,Original*%
%TF.FileFunction,Soldermask,Bot*%
%TF.FilePolarity,Negative*%
%FSLAX46Y46*%
G04 Gerber Fmt 4.6, Leading zero omitted, Abs format (unit mm)*
G04 Created by KiCad (PCBNEW (5.1.6-0-10_14)) date 2020-11-10 16:11:36*
%MOMM*%
%LPD*%
G01*
G04 APERTURE LIST*
%ADD10O,2.290000X1.840000*%
%ADD11C,6.500000*%
G04 APERTURE END LIST*
D10*
%TO.C,J1*%
X56000000Y-73620000D03*
X56000000Y-71080000D03*
X56000000Y-68540000D03*
G36*
G01*
X55119367Y-65080000D02*
X56880633Y-65080000D01*
G75*
G02*
X57145000Y-65344367I0J-264367D01*
G01*
X57145000Y-66655633D01*
G75*
G02*
X56880633Y-66920000I-264367J0D01*
G01*
X55119367Y-66920000D01*
G75*
G02*
X54855000Y-66655633I0J264367D01*
G01*
X54855000Y-65344367D01*
G75*
G02*
X55119367Y-65080000I264367J0D01*
G01*
G37*
%TD*%
%TO.C,U1*%
G36*
G01*
X76450000Y-59985000D02*
X76450000Y-59635000D01*
G75*
G02*
X76625000Y-59460000I175000J0D01*
G01*
X78325000Y-59460000D01*
G75*
G02*
X78500000Y-59635000I0J-175000D01*
G01*
X78500000Y-59985000D01*
G75*
G02*
X78325000Y-60160000I-175000J0D01*
G01*
X76625000Y-60160000D01*
G75*
G02*
X76450000Y-59985000I0J175000D01*
G01*
G37*
G36*
G01*
X76450000Y-58715000D02*
X76450000Y-58365000D01*
G75*
G02*
X76625000Y-58190000I175000J0D01*
G01*
X78325000Y-58190000D01*
G75*
G02*
X78500000Y-58365000I0J-175000D01*
G01*
X78500000Y-58715000D01*
G75*
G02*
X78325000Y-58890000I-175000J0D01*
G01*
X76625000Y-58890000D01*
G75*
G02*
X76450000Y-58715000I0J175000D01*
G01*
G37*
G36*
G01*
X76450000Y-57445000D02*
X76450000Y-57095000D01*
G75*
G02*
X76625000Y-56920000I175000J0D01*
G01*
X78325000Y-56920000D01*
G75*
G02*
X78500000Y-57095000I0J-175000D01*
G01*
X78500000Y-57445000D01*
G75*
G02*
X78325000Y-57620000I-175000J0D01*
G01*
X76625000Y-57620000D01*
G75*
G02*
X76450000Y-57445000I0J175000D01*
G01*
G37*
G36*
G01*
X76450000Y-56175000D02*
X76450000Y-55825000D01*
G75*
G02*
X76625000Y-55650000I175000J0D01*
G01*
X78325000Y-55650000D01*
G75*
G02*
X78500000Y-55825000I0J-175000D01*
G01*
X78500000Y-56175000D01*
G75*
G02*
X78325000Y-56350000I-175000J0D01*
G01*
X76625000Y-56350000D01*
G75*
G02*
X76450000Y-56175000I0J175000D01*
G01*
G37*
G36*
G01*
X76450000Y-54905000D02*
X76450000Y-54555000D01*
G75*
G02*
X76625000Y-54380000I175000J0D01*
G01*
X78325000Y-54380000D01*
G75*
G02*
X78500000Y-54555000I0J-175000D01*
G01*
X78500000Y-54905000D01*
G75*
G02*
X78325000Y-55080000I-175000J0D01*
G01*
X76625000Y-55080000D01*
G75*
G02*
X76450000Y-54905000I0J175000D01*
G01*
G37*
G36*
G01*
X76450000Y-53635000D02*
X76450000Y-53285000D01*
G75*
G02*
X76625000Y-53110000I175000J0D01*
G01*
X78325000Y-53110000D01*
G75*
G02*
X78500000Y-53285000I0J-175000D01*
G01*
X78500000Y-53635000D01*
G75*
G02*
X78325000Y-53810000I-175000J0D01*
G01*
X76625000Y-53810000D01*
G75*
G02*
X76450000Y-53635000I0J175000D01*
G01*
G37*
G36*
G01*
X76450000Y-52365000D02*
X76450000Y-52015000D01*
G75*
G02*
X76625000Y-51840000I175000J0D01*
G01*
X78325000Y-51840000D01*
G75*
G02*
X78500000Y-52015000I0J-175000D01*
G01*
X78500000Y-52365000D01*
G75*
G02*
X78325000Y-52540000I-175000J0D01*
G01*
X76625000Y-52540000D01*
G75*
G02*
X76450000Y-52365000I0J175000D01*
G01*
G37*
G36*
G01*
X71500000Y-52365000D02*
X71500000Y-52015000D01*
G75*
G02*
X71675000Y-51840000I175000J0D01*
G01*
X73375000Y-51840000D01*
G75*
G02*
X73550000Y-52015000I0J-175000D01*
G01*
X73550000Y-52365000D01*
G75*
G02*
X73375000Y-52540000I-175000J0D01*
G01*
X71675000Y-52540000D01*
G75*
G02*
X71500000Y-52365000I0J175000D01*
G01*
G37*
G36*
G01*
X71500000Y-53635000D02*
X71500000Y-53285000D01*
G75*
G02*
X71675000Y-53110000I175000J0D01*
G01*
X73375000Y-53110000D01*
G75*
G02*
X73550000Y-53285000I0J-175000D01*
G01*
X73550000Y-53635000D01*
G75*
G02*
X73375000Y-53810000I-175000J0D01*
G01*
X71675000Y-53810000D01*
G75*
G02*
X71500000Y-53635000I0J175000D01*
G01*
G37*
G36*
G01*
X71500000Y-54905000D02*
X71500000Y-54555000D01*
G75*
G02*
X71675000Y-54380000I175000J0D01*
G01*
X73375000Y-54380000D01*
G75*
G02*
X73550000Y-54555000I0J-175000D01*
G01*
X73550000Y-54905000D01*
G75*
G02*
X73375000Y-55080000I-175000J0D01*
G01*
X71675000Y-55080000D01*
G75*
G02*
X71500000Y-54905000I0J175000D01*
G01*
G37*
G36*
G01*
X71500000Y-56175000D02*
X71500000Y-55825000D01*
G75*
G02*
X71675000Y-55650000I175000J0D01*
G01*
X73375000Y-55650000D01*
G75*
G02*
X73550000Y-55825000I0J-175000D01*
G01*
X73550000Y-56175000D01*
G75*
G02*
X73375000Y-56350000I-175000J0D01*
G01*
X71675000Y-56350000D01*
G75*
G02*
X71500000Y-56175000I0J175000D01*
G01*
G37*
G36*
G01*
X71500000Y-57445000D02*
X71500000Y-57095000D01*
G75*
G02*
X71675000Y-56920000I175000J0D01*
G01*
X73375000Y-56920000D01*
G75*
G02*
X73550000Y-57095000I0J-175000D01*
G01*
X73550000Y-57445000D01*
G75*
G02*
X73375000Y-57620000I-175000J0D01*
G01*
X71675000Y-57620000D01*
G75*
G02*
X71500000Y-57445000I0J175000D01*
G01*
G37*
G36*
G01*
X71500000Y-58715000D02*
X71500000Y-58365000D01*
G75*
G02*
X71675000Y-58190000I175000J0D01*
G01*
X73375000Y-58190000D01*
G75*
G02*
X73550000Y-58365000I0J-175000D01*
G01*
X73550000Y-58715000D01*
G75*
G02*
X73375000Y-58890000I-175000J0D01*
G01*
X71675000Y-58890000D01*
G75*
G02*
X71500000Y-58715000I0J175000D01*
G01*
G37*
G36*
G01*
X71500000Y-59985000D02*
X71500000Y-59635000D01*
G75*
G02*
X71675000Y-59460000I175000J0D01*
G01*
X73375000Y-59460000D01*
G75*
G02*
X73550000Y-59635000I0J-175000D01*
G01*
X73550000Y-59985000D01*
G75*
G02*
X73375000Y-60160000I-175000J0D01*
G01*
X71675000Y-60160000D01*
G75*
G02*
X71500000Y-59985000I0J175000D01*
G01*
G37*
%TD*%
%TO.C,R2*%
G36*
G01*
X67600000Y-56518750D02*
X67600000Y-57481250D01*
G75*
G02*
X67331250Y-57750000I-268750J0D01*
G01*
X66793750Y-57750000D01*
G75*
G02*
X66525000Y-57481250I0J268750D01*
G01*
X66525000Y-56518750D01*
G75*
G02*
X66793750Y-56250000I268750J0D01*
G01*
X67331250Y-56250000D01*
G75*
G02*
X67600000Y-56518750I0J-268750D01*
G01*
G37*
G36*
G01*
X69475000Y-56518750D02*
X69475000Y-57481250D01*
G75*
G02*
X69206250Y-57750000I-268750J0D01*
G01*
X68668750Y-57750000D01*
G75*
G02*
X68400000Y-57481250I0J268750D01*
G01*
X68400000Y-56518750D01*
G75*
G02*
X68668750Y-56250000I268750J0D01*
G01*
X69206250Y-56250000D01*
G75*
G02*
X69475000Y-56518750I0J-268750D01*
G01*
G37*
%TD*%
%TO.C,R1*%
G36*
G01*
X67600000Y-54518750D02*
X67600000Y-55481250D01*
G75*
G02*
X67331250Y-55750000I-268750J0D01*
G01*
X66793750Y-55750000D01*
G75*
G02*
X66525000Y-55481250I0J268750D01*
G01*
X66525000Y-54518750D01*
G75*
G02*
X66793750Y-54250000I268750J0D01*
G01*
X67331250Y-54250000D01*
G75*
G02*
X67600000Y-54518750I0J-268750D01*
G01*
G37*
G36*
G01*
X69475000Y-54518750D02*
X69475000Y-55481250D01*
G75*
G02*
X69206250Y-55750000I-268750J0D01*
G01*
X68668750Y-55750000D01*
G75*
G02*
X68400000Y-55481250I0J268750D01*
G01*
X68400000Y-54518750D01*
G75*
G02*
X68668750Y-54250000I268750J0D01*
G01*
X69206250Y-54250000D01*
G75*
G02*
X69475000Y-54518750I0J-268750D01*
G01*
G37*
%TD*%
%TO.C,F1*%
G36*
G01*
X57477779Y-77475000D02*
X54522221Y-77475000D01*
G75*
G02*
X54250000Y-77202779I0J272221D01*
G01*
X54250000Y-76522221D01*
G75*
G02*
X54522221Y-76250000I272221J0D01*
G01*
X57477779Y-76250000D01*
G75*
G02*
X57750000Y-76522221I0J-272221D01*
G01*
X57750000Y-77202779D01*
G75*
G02*
X57477779Y-77475000I-272221J0D01*
G01*
G37*
G36*
G01*
X57477779Y-81750000D02*
X54522221Y-81750000D01*
G75*
G02*
X54250000Y-81477779I0J272221D01*
G01*
X54250000Y-80797221D01*
G75*
G02*
X54522221Y-80525000I272221J0D01*
G01*
X57477779Y-80525000D01*
G75*
G02*
X57750000Y-80797221I0J-272221D01*
G01*
X57750000Y-81477779D01*
G75*
G02*
X57477779Y-81750000I-272221J0D01*
G01*
G37*
%TD*%
%TO.C,C6*%
G36*
G01*
X79318750Y-59300000D02*
X80281250Y-59300000D01*
G75*
G02*
X80550000Y-59568750I0J-268750D01*
G01*
X80550000Y-60106250D01*
G75*
G02*
X80281250Y-60375000I-268750J0D01*
G01*
X79318750Y-60375000D01*
G75*
G02*
X79050000Y-60106250I0J268750D01*
G01*
X79050000Y-59568750D01*
G75*
G02*
X79318750Y-59300000I268750J0D01*
G01*
G37*
G36*
G01*
X79318750Y-57425000D02*
X80281250Y-57425000D01*
G75*
G02*
X80550000Y-57693750I0J-268750D01*
G01*
X80550000Y-58231250D01*
G75*
G02*
X80281250Y-58500000I-268750J0D01*
G01*
X79318750Y-58500000D01*
G75*
G02*
X79050000Y-58231250I0J268750D01*
G01*
X79050000Y-57693750D01*
G75*
G02*
X79318750Y-57425000I268750J0D01*
G01*
G37*
%TD*%
%TO.C,C5*%
G36*
G01*
X62950000Y-81684375D02*
X62950000Y-80515625D01*
G75*
G02*
X63215625Y-80250000I265625J0D01*
G01*
X65784375Y-80250000D01*
G75*
G02*
X66050000Y-80515625I0J-265625D01*
G01*
X66050000Y-81684375D01*
G75*
G02*
X65784375Y-81950000I-265625J0D01*
G01*
X63215625Y-81950000D01*
G75*
G02*
X62950000Y-81684375I0J265625D01*
G01*
G37*
G36*
G01*
X58550000Y-81684375D02*
X58550000Y-80515625D01*
G75*
G02*
X58815625Y-80250000I265625J0D01*
G01*
X61384375Y-80250000D01*
G75*
G02*
X61650000Y-80515625I0J-265625D01*
G01*
X61650000Y-81684375D01*
G75*
G02*
X61384375Y-81950000I-265625J0D01*
G01*
X58815625Y-81950000D01*
G75*
G02*
X58550000Y-81684375I0J265625D01*
G01*
G37*
%TD*%
D11*
%TO.C,H8*%
X240000000Y-110000000D03*
%TD*%
%TO.C,H7*%
X240000000Y-60000000D03*
%TD*%
%TO.C,H6*%
X162000000Y-115000000D03*
%TD*%
%TO.C,H5*%
X162000000Y-55000000D03*
%TD*%
%TO.C,H4*%
X138000000Y-115000000D03*
%TD*%
%TO.C,H3*%
X138000000Y-55000000D03*
%TD*%
%TO.C,H2*%
X60000000Y-110000000D03*
%TD*%
%TO.C,H1*%
X60000000Y-60000000D03*
%TD*%
M02*
