M48
; DRILL file {KiCad (5.1.6-0-10_14)} date Tuesday, November 10, 2020 at 04:13:57 PM
; FORMAT={-:-/ absolute / metric / decimal}
; #@! TF.CreationDate,2020-11-10T16:13:57-05:00
; #@! TF.GenerationSoftware,Kicad,Pcbnew,(5.1.6-0-10_14)
; #@! TF.FileFunction,Plated,1,2,PTH
FMAT,2
METRIC
T1C0.400
T2C0.600
T3C1.190
T4C3.200
%
G90
G05
T1
X60.0Y-83.0
X60.0Y-85.0
X60.0Y-87.0
X60.5Y-75.55
X64.5Y-84.15
X66.0Y-73.0
X66.0Y-75.0
X66.0Y-77.0
X66.0Y-93.0
X66.0Y-95.0
X66.0Y-97.0
X66.0Y-102.0
X67.5Y-84.15
X68.0Y-80.0
X68.0Y-101.0
X70.0Y-79.0
X70.0Y-100.0
X70.5Y-52.2
X70.5Y-56.0
X70.5Y-75.55
X70.5Y-96.25
X72.0Y-62.0
X72.0Y-64.0
X72.0Y-66.0
X72.0Y-78.0
X72.0Y-83.0
X72.0Y-85.0
X72.0Y-87.0
X72.0Y-99.0
X72.0Y-104.0
X72.0Y-106.0
X72.0Y-108.0
X73.5Y-75.55
X73.5Y-96.25
X74.0Y-79.0
X74.0Y-100.0
X74.1Y-53.5
X74.1Y-57.2
X74.5Y-52.2
X76.0Y-80.0
X76.0Y-101.0
X76.5Y-63.35
X76.5Y-84.15
X76.5Y-104.95
X78.0Y-73.0
X78.0Y-75.0
X78.0Y-77.0
X78.0Y-81.0
X78.0Y-93.0
X78.0Y-95.0
X78.0Y-97.0
X78.0Y-102.0
X79.5Y-84.15
X79.5Y-104.95
X80.0Y-80.0
X80.0Y-101.0
X82.0Y-79.0
X82.0Y-100.0
X82.5Y-75.55
X82.5Y-96.25
X84.0Y-58.0
X84.0Y-62.0
X84.0Y-64.0
X84.0Y-66.0
X84.0Y-78.0
X84.0Y-83.0
X84.0Y-85.0
X84.0Y-87.0
X84.0Y-99.0
X84.0Y-104.0
X84.0Y-106.0
X84.0Y-108.0
X85.5Y-75.55
X85.5Y-96.25
X86.0Y-59.0
X86.0Y-79.0
X86.0Y-100.0
X88.0Y-60.0
X88.0Y-80.0
X88.0Y-101.0
X88.5Y-63.35
X88.5Y-84.15
X88.5Y-104.95
X90.0Y-61.0
X90.0Y-73.0
X90.0Y-75.0
X90.0Y-77.0
X90.0Y-81.0
X90.0Y-93.0
X90.0Y-95.0
X90.0Y-97.0
X90.0Y-102.0
X91.5Y-63.35
X91.5Y-84.15
X91.5Y-104.95
X92.0Y-60.0
X92.0Y-80.0
X92.0Y-101.0
X94.0Y-59.0
X94.0Y-79.0
X94.0Y-100.0
X94.5Y-75.55
X94.5Y-96.25
X96.0Y-58.0
X96.0Y-62.0
X96.0Y-64.0
X96.0Y-66.0
X96.0Y-78.0
X96.0Y-83.0
X96.0Y-85.0
X96.0Y-87.0
X96.0Y-99.0
X96.0Y-104.0
X96.0Y-106.0
X96.0Y-108.0
X97.5Y-75.55
X97.5Y-96.25
X98.0Y-59.0
X98.0Y-79.0
X98.0Y-100.0
X100.0Y-60.0
X100.0Y-80.0
X100.0Y-101.0
X100.5Y-63.35
X100.5Y-84.15
X100.5Y-104.95
X102.0Y-61.0
X102.0Y-73.0
X102.0Y-75.0
X102.0Y-77.0
X102.0Y-81.0
X102.0Y-93.0
X102.0Y-95.0
X102.0Y-97.0
X102.0Y-102.0
X103.5Y-63.35
X103.5Y-84.15
X103.5Y-104.95
X104.0Y-60.0
X104.0Y-80.0
X104.0Y-101.0
X106.0Y-59.0
X106.0Y-79.0
X106.0Y-100.0
X106.5Y-75.55
X106.5Y-96.25
X108.0Y-58.0
X108.0Y-62.0
X108.0Y-64.0
X108.0Y-66.0
X108.0Y-78.0
X108.0Y-83.0
X108.0Y-85.0
X108.0Y-87.0
X108.0Y-99.0
X108.0Y-104.0
X108.0Y-106.0
X108.0Y-108.0
X109.5Y-75.55
X109.5Y-96.25
X110.0Y-59.0
X110.0Y-79.0
X110.0Y-100.0
X112.0Y-60.0
X112.0Y-80.0
X112.0Y-101.0
X112.5Y-63.35
X112.5Y-84.15
X112.5Y-104.95
X114.0Y-61.0
X114.0Y-73.0
X114.0Y-75.0
X114.0Y-77.0
X114.0Y-81.0
X114.0Y-93.0
X114.0Y-95.0
X114.0Y-97.0
X114.0Y-102.0
X115.5Y-63.35
X115.5Y-84.15
X115.5Y-104.95
X116.0Y-60.0
X116.0Y-80.0
X116.0Y-101.0
X118.0Y-59.0
X118.0Y-79.0
X118.0Y-100.0
X118.5Y-75.55
X118.5Y-96.25
X120.0Y-58.0
X120.0Y-62.0
X120.0Y-64.0
X120.0Y-66.0
X120.0Y-78.0
X120.0Y-83.0
X120.0Y-85.0
X120.0Y-87.0
X120.0Y-99.0
X120.0Y-104.0
X120.0Y-106.0
X120.0Y-108.0
X121.5Y-75.55
X121.5Y-96.25
X122.0Y-59.0
X122.0Y-79.0
X122.0Y-100.0
X124.0Y-60.0
X124.0Y-80.0
X124.0Y-101.0
X124.5Y-63.35
X124.5Y-84.15
X124.5Y-104.95
X126.0Y-61.0
X126.0Y-73.0
X126.0Y-75.0
X126.0Y-77.0
X126.0Y-81.0
X126.0Y-93.0
X126.0Y-95.0
X126.0Y-97.0
X126.0Y-102.0
X127.5Y-63.35
X127.5Y-84.15
X127.5Y-104.95
X128.0Y-60.0
X128.0Y-80.0
X128.0Y-101.0
X130.0Y-59.0
X130.0Y-79.0
X130.0Y-100.0
X130.5Y-75.55
X130.5Y-96.25
X132.0Y-58.0
X132.0Y-62.0
X132.0Y-64.0
X132.0Y-66.0
X132.0Y-78.0
X132.0Y-83.0
X132.0Y-85.0
X132.0Y-87.0
X132.0Y-99.0
X132.0Y-104.0
X132.0Y-106.0
X132.0Y-108.0
X133.5Y-75.55
X133.5Y-96.25
X134.0Y-59.0
X134.0Y-79.0
X134.0Y-100.0
X136.0Y-60.0
X136.0Y-80.0
X136.0Y-101.0
X136.5Y-63.35
X136.5Y-84.15
X136.5Y-104.95
X138.0Y-61.0
X138.0Y-73.0
X138.0Y-75.0
X138.0Y-77.0
X138.0Y-81.0
X138.0Y-93.0
X138.0Y-95.0
X138.0Y-97.0
X138.0Y-102.0
X139.5Y-63.35
X139.5Y-84.15
X139.5Y-104.95
X140.0Y-60.0
X140.0Y-80.0
X140.0Y-101.0
X142.0Y-59.0
X142.0Y-79.0
X142.0Y-100.0
X142.5Y-75.55
X142.5Y-96.25
X144.0Y-64.0
X144.0Y-66.0
X144.0Y-78.0
X144.0Y-83.0
X144.0Y-85.0
X144.0Y-87.0
X144.0Y-99.0
X144.0Y-104.0
X144.0Y-106.0
X144.0Y-108.0
X145.5Y-75.55
X145.5Y-96.25
X146.0Y-79.0
X146.0Y-100.0
X148.0Y-80.0
X148.0Y-101.0
X148.5Y-63.35
X148.5Y-84.15
X148.5Y-104.95
X150.0Y-73.0
X150.0Y-75.0
X150.0Y-77.0
X150.0Y-81.0
X150.0Y-93.0
X150.0Y-95.0
X150.0Y-97.0
X150.0Y-102.0
X151.5Y-63.35
X151.5Y-84.15
X151.5Y-104.95
X152.0Y-80.0
X152.0Y-101.0
X154.0Y-79.0
X154.0Y-100.0
X154.5Y-75.55
X154.5Y-96.25
X156.0Y-64.0
X156.0Y-66.0
X156.0Y-78.0
X156.0Y-83.0
X156.0Y-85.0
X156.0Y-87.0
X156.0Y-99.0
X156.0Y-104.0
X156.0Y-106.0
X156.0Y-108.0
X157.5Y-75.55
X157.5Y-96.25
X158.0Y-79.0
X158.0Y-100.0
X160.0Y-60.0
X160.0Y-80.0
X160.0Y-101.0
X160.5Y-63.35
X160.5Y-84.15
X160.5Y-104.95
X162.0Y-61.0
X162.0Y-73.0
X162.0Y-75.0
X162.0Y-77.0
X162.0Y-81.0
X162.0Y-93.0
X162.0Y-95.0
X162.0Y-97.0
X162.0Y-102.0
X163.5Y-63.35
X163.5Y-84.15
X163.5Y-104.95
X164.0Y-60.0
X164.0Y-80.0
X164.0Y-101.0
X166.0Y-59.0
X166.0Y-79.0
X166.0Y-100.0
X166.5Y-75.55
X166.5Y-96.25
X168.0Y-58.0
X168.0Y-62.0
X168.0Y-64.0
X168.0Y-66.0
X168.0Y-78.0
X168.0Y-83.0
X168.0Y-85.0
X168.0Y-87.0
X168.0Y-99.0
X168.0Y-104.0
X168.0Y-106.0
X168.0Y-108.0
X169.5Y-75.55
X169.5Y-96.25
X170.0Y-59.0
X170.0Y-79.0
X170.0Y-100.0
X172.0Y-60.0
X172.0Y-80.0
X172.0Y-101.0
X172.5Y-63.35
X172.5Y-84.15
X172.5Y-104.95
X174.0Y-61.0
X174.0Y-73.0
X174.0Y-75.0
X174.0Y-77.0
X174.0Y-81.0
X174.0Y-93.0
X174.0Y-95.0
X174.0Y-97.0
X174.0Y-102.0
X175.5Y-63.35
X175.5Y-84.15
X175.5Y-104.95
X176.0Y-60.0
X176.0Y-80.0
X176.0Y-101.0
X178.0Y-59.0
X178.0Y-79.0
X178.0Y-100.0
X178.5Y-75.55
X178.5Y-96.25
X180.0Y-58.0
X180.0Y-62.0
X180.0Y-64.0
X180.0Y-66.0
X180.0Y-78.0
X180.0Y-83.0
X180.0Y-85.0
X180.0Y-87.0
X180.0Y-99.0
X180.0Y-104.0
X180.0Y-106.0
X180.0Y-108.0
X181.5Y-75.55
X181.5Y-96.25
X182.0Y-59.0
X182.0Y-79.0
X182.0Y-100.0
X184.0Y-60.0
X184.0Y-80.0
X184.0Y-101.0
X184.5Y-63.35
X184.5Y-84.15
X184.5Y-104.95
X186.0Y-61.0
X186.0Y-73.0
X186.0Y-75.0
X186.0Y-77.0
X186.0Y-81.0
X186.0Y-93.0
X186.0Y-95.0
X186.0Y-97.0
X186.0Y-102.0
X187.5Y-63.35
X187.5Y-84.15
X187.5Y-104.95
X188.0Y-60.0
X188.0Y-80.0
X188.0Y-101.0
X190.0Y-59.0
X190.0Y-79.0
X190.0Y-100.0
X190.5Y-75.55
X190.5Y-96.25
X192.0Y-58.0
X192.0Y-62.0
X192.0Y-64.0
X192.0Y-66.0
X192.0Y-78.0
X192.0Y-83.0
X192.0Y-85.0
X192.0Y-87.0
X192.0Y-99.0
X192.0Y-104.0
X192.0Y-106.0
X192.0Y-108.0
X193.5Y-75.55
X193.5Y-96.25
X194.0Y-59.0
X194.0Y-79.0
X194.0Y-100.0
X196.0Y-60.0
X196.0Y-80.0
X196.0Y-101.0
X196.5Y-63.35
X196.5Y-84.15
X196.5Y-104.95
X198.0Y-61.0
X198.0Y-73.0
X198.0Y-75.0
X198.0Y-77.0
X198.0Y-81.0
X198.0Y-93.0
X198.0Y-95.0
X198.0Y-97.0
X198.0Y-102.0
X199.5Y-63.35
X199.5Y-84.15
X199.5Y-104.95
X200.0Y-60.0
X200.0Y-80.0
X200.0Y-101.0
X202.0Y-59.0
X202.0Y-79.0
X202.0Y-100.0
X202.5Y-75.55
X202.5Y-96.25
X204.0Y-58.0
X204.0Y-62.0
X204.0Y-64.0
X204.0Y-66.0
X204.0Y-78.0
X204.0Y-83.0
X204.0Y-85.0
X204.0Y-87.0
X204.0Y-99.0
X204.0Y-104.0
X204.0Y-106.0
X204.0Y-108.0
X205.5Y-75.55
X205.5Y-96.25
X206.0Y-59.0
X206.0Y-79.0
X206.0Y-100.0
X208.0Y-60.0
X208.0Y-80.0
X208.0Y-101.0
X208.5Y-63.35
X208.5Y-84.15
X208.5Y-104.95
X210.0Y-61.0
X210.0Y-73.0
X210.0Y-75.0
X210.0Y-77.0
X210.0Y-81.0
X210.0Y-93.0
X210.0Y-95.0
X210.0Y-97.0
X210.0Y-102.0
X211.5Y-63.35
X211.5Y-84.15
X211.5Y-104.95
X212.0Y-60.0
X212.0Y-80.0
X212.0Y-101.0
X214.0Y-59.0
X214.0Y-79.0
X214.0Y-100.0
X214.5Y-75.55
X214.5Y-96.25
X216.0Y-58.0
X216.0Y-62.0
X216.0Y-64.0
X216.0Y-66.0
X216.0Y-78.0
X216.0Y-83.0
X216.0Y-85.0
X216.0Y-87.0
X216.0Y-99.0
X216.0Y-104.0
X216.0Y-106.0
X216.0Y-108.0
X217.5Y-75.55
X217.5Y-96.25
X218.0Y-59.0
X218.0Y-79.0
X218.0Y-100.0
X220.0Y-60.0
X220.0Y-80.0
X220.0Y-101.0
X220.5Y-63.35
X220.5Y-84.15
X220.5Y-104.95
X222.0Y-61.0
X222.0Y-73.0
X222.0Y-75.0
X222.0Y-77.0
X222.0Y-81.0
X222.0Y-93.0
X222.0Y-95.0
X222.0Y-97.0
X222.0Y-102.0
X223.5Y-63.35
X223.5Y-84.15
X223.5Y-104.95
X224.0Y-60.0
X224.0Y-80.0
X224.0Y-101.0
X226.0Y-59.0
X226.0Y-79.0
X226.0Y-100.0
X226.5Y-75.55
X226.5Y-96.25
X228.0Y-58.0
X228.0Y-62.0
X228.0Y-64.0
X228.0Y-66.0
X228.0Y-78.0
X228.0Y-83.0
X228.0Y-85.0
X228.0Y-87.0
X228.0Y-99.0
X228.0Y-104.0
X228.0Y-106.0
X228.0Y-108.0
X229.5Y-75.55
X229.5Y-96.25
X230.0Y-59.0
X230.0Y-79.0
X230.0Y-100.0
X232.0Y-60.0
X232.0Y-80.0
X232.0Y-101.0
X232.5Y-63.35
X232.5Y-84.15
X234.0Y-61.0
X234.0Y-73.0
X234.0Y-75.0
X234.0Y-77.0
X234.0Y-81.0
X234.0Y-93.0
X234.0Y-95.0
X234.0Y-97.0
X234.0Y-102.0
X235.5Y-84.15
X236.0Y-80.0
X236.0Y-101.0
X238.0Y-79.0
X238.0Y-100.0
X238.5Y-96.25
X240.0Y-78.0
X240.0Y-83.0
X240.0Y-85.0
X240.0Y-87.0
X240.0Y-99.0
X242.0Y-79.0
X244.0Y-80.0
X246.0Y-81.0
T2
X62.4Y-89.0
X63.6Y-70.7
X63.6Y-91.4
X74.4Y-68.2
X74.4Y-89.0
X74.4Y-109.8
X75.6Y-70.7
X75.6Y-91.4
X86.4Y-68.2
X86.4Y-89.0
X86.4Y-109.8
X87.6Y-70.7
X87.6Y-91.4
X98.4Y-68.2
X98.4Y-89.0
X98.4Y-109.8
X99.6Y-70.7
X99.6Y-91.4
X110.4Y-68.2
X110.4Y-89.0
X110.4Y-109.8
X111.6Y-70.7
X111.6Y-91.4
X122.4Y-68.2
X122.4Y-89.0
X122.4Y-109.8
X123.6Y-70.7
X123.6Y-91.4
X134.4Y-68.2
X134.4Y-89.0
X134.4Y-109.8
X135.6Y-70.7
X135.6Y-91.4
X146.4Y-68.2
X146.4Y-89.0
X146.4Y-109.8
X147.6Y-70.7
X147.6Y-91.4
X158.4Y-68.2
X158.4Y-89.0
X158.4Y-109.8
X159.6Y-70.7
X159.6Y-91.4
X170.4Y-68.2
X170.4Y-89.0
X170.4Y-109.8
X171.6Y-70.7
X171.6Y-91.4
X182.4Y-68.2
X182.4Y-89.0
X182.4Y-109.8
X183.6Y-70.7
X183.6Y-91.4
X194.4Y-68.2
X194.4Y-89.0
X194.4Y-109.8
X195.6Y-70.7
X195.6Y-91.4
X206.4Y-68.2
X206.4Y-89.0
X206.4Y-109.8
X207.6Y-70.7
X207.6Y-91.4
X218.4Y-68.2
X218.4Y-89.0
X218.4Y-109.8
X219.6Y-70.7
X219.6Y-91.4
X230.4Y-68.2
X230.4Y-89.0
X230.4Y-109.8
X231.6Y-70.7
X231.6Y-91.4
X242.4Y-89.0
T3
X56.0Y-66.0
X56.0Y-68.54
X56.0Y-71.08
X56.0Y-73.62
T4
X240.0Y-110.0
X240.0Y-60.0
X162.0Y-115.0
X162.0Y-55.0
X138.0Y-55.0
X138.0Y-115.0
X60.0Y-110.0
X60.0Y-60.0
T0
M30
