G04 #@! TF.GenerationSoftware,KiCad,Pcbnew,(5.1.6-0-10_14)*
G04 #@! TF.CreationDate,2020-11-25T02:11:22-05:00*
G04 #@! TF.ProjectId,power board,706f7765-7220-4626-9f61-72642e6b6963,0.1.0*
G04 #@! TF.SameCoordinates,Original*
G04 #@! TF.FileFunction,Soldermask,Top*
G04 #@! TF.FilePolarity,Negative*
%FSLAX46Y46*%
G04 Gerber Fmt 4.6, Leading zero omitted, Abs format (unit mm)*
G04 Created by KiCad (PCBNEW (5.1.6-0-10_14)) date 2020-11-25 02:11:22*
%MOMM*%
%LPD*%
G01*
G04 APERTURE LIST*
%ADD10R,0.750000X1.160000*%
%ADD11C,1.400000*%
%ADD12C,1.700000*%
%ADD13R,1.700000X1.700000*%
%ADD14C,6.500000*%
%ADD15O,1.800000X2.100000*%
%ADD16O,2.290000X1.840000*%
%ADD17O,2.600000X2.100000*%
%ADD18R,2.000000X2.000000*%
%ADD19R,1.500000X1.700000*%
%ADD20C,2.600000*%
G04 APERTURE END LIST*
D10*
G04 #@! TO.C,U4*
X195550000Y-118900000D03*
X197450000Y-118900000D03*
X197450000Y-121100000D03*
X196500000Y-121100000D03*
X195550000Y-121100000D03*
G04 #@! TD*
G04 #@! TO.C,U3*
X188050000Y-118900000D03*
X189950000Y-118900000D03*
X189950000Y-121100000D03*
X189000000Y-121100000D03*
X188050000Y-121100000D03*
G04 #@! TD*
G04 #@! TO.C,U2*
X180550000Y-118900000D03*
X182450000Y-118900000D03*
X182450000Y-121100000D03*
X181500000Y-121100000D03*
X180550000Y-121100000D03*
G04 #@! TD*
G04 #@! TO.C,R6*
G36*
G01*
X196018750Y-124400000D02*
X196981250Y-124400000D01*
G75*
G02*
X197250000Y-124668750I0J-268750D01*
G01*
X197250000Y-125206250D01*
G75*
G02*
X196981250Y-125475000I-268750J0D01*
G01*
X196018750Y-125475000D01*
G75*
G02*
X195750000Y-125206250I0J268750D01*
G01*
X195750000Y-124668750D01*
G75*
G02*
X196018750Y-124400000I268750J0D01*
G01*
G37*
G36*
G01*
X196018750Y-122525000D02*
X196981250Y-122525000D01*
G75*
G02*
X197250000Y-122793750I0J-268750D01*
G01*
X197250000Y-123331250D01*
G75*
G02*
X196981250Y-123600000I-268750J0D01*
G01*
X196018750Y-123600000D01*
G75*
G02*
X195750000Y-123331250I0J268750D01*
G01*
X195750000Y-122793750D01*
G75*
G02*
X196018750Y-122525000I268750J0D01*
G01*
G37*
G04 #@! TD*
G04 #@! TO.C,R5*
G36*
G01*
X196000000Y-127181250D02*
X196000000Y-126218750D01*
G75*
G02*
X196268750Y-125950000I268750J0D01*
G01*
X196806250Y-125950000D01*
G75*
G02*
X197075000Y-126218750I0J-268750D01*
G01*
X197075000Y-127181250D01*
G75*
G02*
X196806250Y-127450000I-268750J0D01*
G01*
X196268750Y-127450000D01*
G75*
G02*
X196000000Y-127181250I0J268750D01*
G01*
G37*
G36*
G01*
X194125000Y-127181250D02*
X194125000Y-126218750D01*
G75*
G02*
X194393750Y-125950000I268750J0D01*
G01*
X194931250Y-125950000D01*
G75*
G02*
X195200000Y-126218750I0J-268750D01*
G01*
X195200000Y-127181250D01*
G75*
G02*
X194931250Y-127450000I-268750J0D01*
G01*
X194393750Y-127450000D01*
G75*
G02*
X194125000Y-127181250I0J268750D01*
G01*
G37*
G04 #@! TD*
G04 #@! TO.C,R4*
G36*
G01*
X188518750Y-124400000D02*
X189481250Y-124400000D01*
G75*
G02*
X189750000Y-124668750I0J-268750D01*
G01*
X189750000Y-125206250D01*
G75*
G02*
X189481250Y-125475000I-268750J0D01*
G01*
X188518750Y-125475000D01*
G75*
G02*
X188250000Y-125206250I0J268750D01*
G01*
X188250000Y-124668750D01*
G75*
G02*
X188518750Y-124400000I268750J0D01*
G01*
G37*
G36*
G01*
X188518750Y-122525000D02*
X189481250Y-122525000D01*
G75*
G02*
X189750000Y-122793750I0J-268750D01*
G01*
X189750000Y-123331250D01*
G75*
G02*
X189481250Y-123600000I-268750J0D01*
G01*
X188518750Y-123600000D01*
G75*
G02*
X188250000Y-123331250I0J268750D01*
G01*
X188250000Y-122793750D01*
G75*
G02*
X188518750Y-122525000I268750J0D01*
G01*
G37*
G04 #@! TD*
G04 #@! TO.C,R3*
G36*
G01*
X188500000Y-127181250D02*
X188500000Y-126218750D01*
G75*
G02*
X188768750Y-125950000I268750J0D01*
G01*
X189306250Y-125950000D01*
G75*
G02*
X189575000Y-126218750I0J-268750D01*
G01*
X189575000Y-127181250D01*
G75*
G02*
X189306250Y-127450000I-268750J0D01*
G01*
X188768750Y-127450000D01*
G75*
G02*
X188500000Y-127181250I0J268750D01*
G01*
G37*
G36*
G01*
X186625000Y-127181250D02*
X186625000Y-126218750D01*
G75*
G02*
X186893750Y-125950000I268750J0D01*
G01*
X187431250Y-125950000D01*
G75*
G02*
X187700000Y-126218750I0J-268750D01*
G01*
X187700000Y-127181250D01*
G75*
G02*
X187431250Y-127450000I-268750J0D01*
G01*
X186893750Y-127450000D01*
G75*
G02*
X186625000Y-127181250I0J268750D01*
G01*
G37*
G04 #@! TD*
G04 #@! TO.C,R2*
G36*
G01*
X181018750Y-124400000D02*
X181981250Y-124400000D01*
G75*
G02*
X182250000Y-124668750I0J-268750D01*
G01*
X182250000Y-125206250D01*
G75*
G02*
X181981250Y-125475000I-268750J0D01*
G01*
X181018750Y-125475000D01*
G75*
G02*
X180750000Y-125206250I0J268750D01*
G01*
X180750000Y-124668750D01*
G75*
G02*
X181018750Y-124400000I268750J0D01*
G01*
G37*
G36*
G01*
X181018750Y-122525000D02*
X181981250Y-122525000D01*
G75*
G02*
X182250000Y-122793750I0J-268750D01*
G01*
X182250000Y-123331250D01*
G75*
G02*
X181981250Y-123600000I-268750J0D01*
G01*
X181018750Y-123600000D01*
G75*
G02*
X180750000Y-123331250I0J268750D01*
G01*
X180750000Y-122793750D01*
G75*
G02*
X181018750Y-122525000I268750J0D01*
G01*
G37*
G04 #@! TD*
G04 #@! TO.C,R1*
G36*
G01*
X181000000Y-127181250D02*
X181000000Y-126218750D01*
G75*
G02*
X181268750Y-125950000I268750J0D01*
G01*
X181806250Y-125950000D01*
G75*
G02*
X182075000Y-126218750I0J-268750D01*
G01*
X182075000Y-127181250D01*
G75*
G02*
X181806250Y-127450000I-268750J0D01*
G01*
X181268750Y-127450000D01*
G75*
G02*
X181000000Y-127181250I0J268750D01*
G01*
G37*
G36*
G01*
X179125000Y-127181250D02*
X179125000Y-126218750D01*
G75*
G02*
X179393750Y-125950000I268750J0D01*
G01*
X179931250Y-125950000D01*
G75*
G02*
X180200000Y-126218750I0J-268750D01*
G01*
X180200000Y-127181250D01*
G75*
G02*
X179931250Y-127450000I-268750J0D01*
G01*
X179393750Y-127450000D01*
G75*
G02*
X179125000Y-127181250I0J268750D01*
G01*
G37*
G04 #@! TD*
G04 #@! TO.C,C6*
G36*
G01*
X193300000Y-122518750D02*
X193300000Y-123481250D01*
G75*
G02*
X193031250Y-123750000I-268750J0D01*
G01*
X192493750Y-123750000D01*
G75*
G02*
X192225000Y-123481250I0J268750D01*
G01*
X192225000Y-122518750D01*
G75*
G02*
X192493750Y-122250000I268750J0D01*
G01*
X193031250Y-122250000D01*
G75*
G02*
X193300000Y-122518750I0J-268750D01*
G01*
G37*
G36*
G01*
X195175000Y-122518750D02*
X195175000Y-123481250D01*
G75*
G02*
X194906250Y-123750000I-268750J0D01*
G01*
X194368750Y-123750000D01*
G75*
G02*
X194100000Y-123481250I0J268750D01*
G01*
X194100000Y-122518750D01*
G75*
G02*
X194368750Y-122250000I268750J0D01*
G01*
X194906250Y-122250000D01*
G75*
G02*
X195175000Y-122518750I0J-268750D01*
G01*
G37*
G04 #@! TD*
G04 #@! TO.C,C5*
G36*
G01*
X193018750Y-120400000D02*
X193981250Y-120400000D01*
G75*
G02*
X194250000Y-120668750I0J-268750D01*
G01*
X194250000Y-121206250D01*
G75*
G02*
X193981250Y-121475000I-268750J0D01*
G01*
X193018750Y-121475000D01*
G75*
G02*
X192750000Y-121206250I0J268750D01*
G01*
X192750000Y-120668750D01*
G75*
G02*
X193018750Y-120400000I268750J0D01*
G01*
G37*
G36*
G01*
X193018750Y-118525000D02*
X193981250Y-118525000D01*
G75*
G02*
X194250000Y-118793750I0J-268750D01*
G01*
X194250000Y-119331250D01*
G75*
G02*
X193981250Y-119600000I-268750J0D01*
G01*
X193018750Y-119600000D01*
G75*
G02*
X192750000Y-119331250I0J268750D01*
G01*
X192750000Y-118793750D01*
G75*
G02*
X193018750Y-118525000I268750J0D01*
G01*
G37*
G04 #@! TD*
G04 #@! TO.C,C4*
G36*
G01*
X185900000Y-122618750D02*
X185900000Y-123581250D01*
G75*
G02*
X185631250Y-123850000I-268750J0D01*
G01*
X185093750Y-123850000D01*
G75*
G02*
X184825000Y-123581250I0J268750D01*
G01*
X184825000Y-122618750D01*
G75*
G02*
X185093750Y-122350000I268750J0D01*
G01*
X185631250Y-122350000D01*
G75*
G02*
X185900000Y-122618750I0J-268750D01*
G01*
G37*
G36*
G01*
X187775000Y-122618750D02*
X187775000Y-123581250D01*
G75*
G02*
X187506250Y-123850000I-268750J0D01*
G01*
X186968750Y-123850000D01*
G75*
G02*
X186700000Y-123581250I0J268750D01*
G01*
X186700000Y-122618750D01*
G75*
G02*
X186968750Y-122350000I268750J0D01*
G01*
X187506250Y-122350000D01*
G75*
G02*
X187775000Y-122618750I0J-268750D01*
G01*
G37*
G04 #@! TD*
G04 #@! TO.C,C3*
G36*
G01*
X185518750Y-120400000D02*
X186481250Y-120400000D01*
G75*
G02*
X186750000Y-120668750I0J-268750D01*
G01*
X186750000Y-121206250D01*
G75*
G02*
X186481250Y-121475000I-268750J0D01*
G01*
X185518750Y-121475000D01*
G75*
G02*
X185250000Y-121206250I0J268750D01*
G01*
X185250000Y-120668750D01*
G75*
G02*
X185518750Y-120400000I268750J0D01*
G01*
G37*
G36*
G01*
X185518750Y-118525000D02*
X186481250Y-118525000D01*
G75*
G02*
X186750000Y-118793750I0J-268750D01*
G01*
X186750000Y-119331250D01*
G75*
G02*
X186481250Y-119600000I-268750J0D01*
G01*
X185518750Y-119600000D01*
G75*
G02*
X185250000Y-119331250I0J268750D01*
G01*
X185250000Y-118793750D01*
G75*
G02*
X185518750Y-118525000I268750J0D01*
G01*
G37*
G04 #@! TD*
G04 #@! TO.C,C2*
G36*
G01*
X178400000Y-122618750D02*
X178400000Y-123581250D01*
G75*
G02*
X178131250Y-123850000I-268750J0D01*
G01*
X177593750Y-123850000D01*
G75*
G02*
X177325000Y-123581250I0J268750D01*
G01*
X177325000Y-122618750D01*
G75*
G02*
X177593750Y-122350000I268750J0D01*
G01*
X178131250Y-122350000D01*
G75*
G02*
X178400000Y-122618750I0J-268750D01*
G01*
G37*
G36*
G01*
X180275000Y-122618750D02*
X180275000Y-123581250D01*
G75*
G02*
X180006250Y-123850000I-268750J0D01*
G01*
X179468750Y-123850000D01*
G75*
G02*
X179200000Y-123581250I0J268750D01*
G01*
X179200000Y-122618750D01*
G75*
G02*
X179468750Y-122350000I268750J0D01*
G01*
X180006250Y-122350000D01*
G75*
G02*
X180275000Y-122618750I0J-268750D01*
G01*
G37*
G04 #@! TD*
G04 #@! TO.C,C1*
G36*
G01*
X178018750Y-120400000D02*
X178981250Y-120400000D01*
G75*
G02*
X179250000Y-120668750I0J-268750D01*
G01*
X179250000Y-121206250D01*
G75*
G02*
X178981250Y-121475000I-268750J0D01*
G01*
X178018750Y-121475000D01*
G75*
G02*
X177750000Y-121206250I0J268750D01*
G01*
X177750000Y-120668750D01*
G75*
G02*
X178018750Y-120400000I268750J0D01*
G01*
G37*
G36*
G01*
X178018750Y-118525000D02*
X178981250Y-118525000D01*
G75*
G02*
X179250000Y-118793750I0J-268750D01*
G01*
X179250000Y-119331250D01*
G75*
G02*
X178981250Y-119600000I-268750J0D01*
G01*
X178018750Y-119600000D01*
G75*
G02*
X177750000Y-119331250I0J268750D01*
G01*
X177750000Y-118793750D01*
G75*
G02*
X178018750Y-118525000I268750J0D01*
G01*
G37*
G04 #@! TD*
G04 #@! TO.C,J5*
G36*
G01*
X149650000Y-118628200D02*
X149650000Y-121501800D01*
G75*
G02*
X149436800Y-121715000I-213200J0D01*
G01*
X148563200Y-121715000D01*
G75*
G02*
X148350000Y-121501800I0J213200D01*
G01*
X148350000Y-118628200D01*
G75*
G02*
X148563200Y-118415000I213200J0D01*
G01*
X149436800Y-118415000D01*
G75*
G02*
X149650000Y-118628200I0J-213200D01*
G01*
G37*
G36*
G01*
X147650000Y-118628200D02*
X147650000Y-121501800D01*
G75*
G02*
X147436800Y-121715000I-213200J0D01*
G01*
X146563200Y-121715000D01*
G75*
G02*
X146350000Y-121501800I0J213200D01*
G01*
X146350000Y-118628200D01*
G75*
G02*
X146563200Y-118415000I213200J0D01*
G01*
X147436800Y-118415000D01*
G75*
G02*
X147650000Y-118628200I0J-213200D01*
G01*
G37*
G36*
G01*
X145650000Y-118628200D02*
X145650000Y-121501800D01*
G75*
G02*
X145436800Y-121715000I-213200J0D01*
G01*
X144563200Y-121715000D01*
G75*
G02*
X144350000Y-121501800I0J213200D01*
G01*
X144350000Y-118628200D01*
G75*
G02*
X144563200Y-118415000I213200J0D01*
G01*
X145436800Y-118415000D01*
G75*
G02*
X145650000Y-118628200I0J-213200D01*
G01*
G37*
G36*
G01*
X143650000Y-118628200D02*
X143650000Y-121501800D01*
G75*
G02*
X143436800Y-121715000I-213200J0D01*
G01*
X142563200Y-121715000D01*
G75*
G02*
X142350000Y-121501800I0J213200D01*
G01*
X142350000Y-118628200D01*
G75*
G02*
X142563200Y-118415000I213200J0D01*
G01*
X143436800Y-118415000D01*
G75*
G02*
X143650000Y-118628200I0J-213200D01*
G01*
G37*
G36*
G01*
X139350000Y-112180200D02*
X139350000Y-116989800D01*
G75*
G02*
X139054800Y-117285000I-295200J0D01*
G01*
X137845200Y-117285000D01*
G75*
G02*
X137550000Y-116989800I0J295200D01*
G01*
X137550000Y-112180200D01*
G75*
G02*
X137845200Y-111885000I295200J0D01*
G01*
X139054800Y-111885000D01*
G75*
G02*
X139350000Y-112180200I0J-295200D01*
G01*
G37*
G36*
G01*
X152450000Y-112180200D02*
X152450000Y-116989800D01*
G75*
G02*
X152154800Y-117285000I-295200J0D01*
G01*
X150945200Y-117285000D01*
G75*
G02*
X150650000Y-116989800I0J295200D01*
G01*
X150650000Y-112180200D01*
G75*
G02*
X150945200Y-111885000I295200J0D01*
G01*
X152154800Y-111885000D01*
G75*
G02*
X152450000Y-112180200I0J-295200D01*
G01*
G37*
G36*
G01*
X141650000Y-118628200D02*
X141650000Y-121501800D01*
G75*
G02*
X141436800Y-121715000I-213200J0D01*
G01*
X140563200Y-121715000D01*
G75*
G02*
X140350000Y-121501800I0J213200D01*
G01*
X140350000Y-118628200D01*
G75*
G02*
X140563200Y-118415000I213200J0D01*
G01*
X141436800Y-118415000D01*
G75*
G02*
X141650000Y-118628200I0J-213200D01*
G01*
G37*
G04 #@! TD*
D11*
G04 #@! TO.C,U1*
X174020000Y-103730000D03*
X174020000Y-106270000D03*
D12*
X219010000Y-99920000D03*
X219010000Y-102460000D03*
X219010000Y-105000000D03*
X219010000Y-107540000D03*
X219010000Y-110080000D03*
X213930000Y-112620000D03*
X216470000Y-112620000D03*
X219010000Y-112620000D03*
X221550000Y-112620000D03*
X211390000Y-112620000D03*
X208850000Y-112620000D03*
X206310000Y-112620000D03*
X224090000Y-112620000D03*
X226630000Y-112620000D03*
X229170000Y-112620000D03*
X231710000Y-112620000D03*
X231710000Y-97380000D03*
X229170000Y-97380000D03*
X226630000Y-97380000D03*
X224090000Y-97380000D03*
X221550000Y-97380000D03*
X219010000Y-97380000D03*
X216470000Y-97380000D03*
X213930000Y-97380000D03*
X211390000Y-97380000D03*
X208850000Y-97380000D03*
X203770000Y-112620000D03*
X201230000Y-112620000D03*
X198690000Y-112620000D03*
X196150000Y-112620000D03*
X193610000Y-112620000D03*
X191070000Y-112620000D03*
X188530000Y-112620000D03*
X185990000Y-112620000D03*
X183450000Y-112620000D03*
X180910000Y-112620000D03*
X178370000Y-112620000D03*
X175830000Y-112620000D03*
D13*
X173290000Y-112620000D03*
D12*
X206310000Y-97380000D03*
X203770000Y-97380000D03*
X201230000Y-97380000D03*
X198690000Y-97380000D03*
X196150000Y-97380000D03*
X193610000Y-97380000D03*
X191070000Y-97380000D03*
X188530000Y-97380000D03*
X185990000Y-97380000D03*
X183450000Y-97380000D03*
X180910000Y-97380000D03*
X178370000Y-97380000D03*
X175830000Y-97380000D03*
X173290000Y-97380000D03*
G04 #@! TD*
D14*
G04 #@! TO.C,H4*
X65000000Y-131000000D03*
G04 #@! TD*
D15*
G04 #@! TO.C,J4*
X174000000Y-120000000D03*
G36*
G01*
X170600000Y-120785294D02*
X170600000Y-119214706D01*
G75*
G02*
X170864706Y-118950000I264706J0D01*
G01*
X172135294Y-118950000D01*
G75*
G02*
X172400000Y-119214706I0J-264706D01*
G01*
X172400000Y-120785294D01*
G75*
G02*
X172135294Y-121050000I-264706J0D01*
G01*
X170864706Y-121050000D01*
G75*
G02*
X170600000Y-120785294I0J264706D01*
G01*
G37*
G04 #@! TD*
D16*
G04 #@! TO.C,J1*
X128500000Y-132620000D03*
X128500000Y-130080000D03*
X128500000Y-127540000D03*
G36*
G01*
X127619367Y-124080000D02*
X129380633Y-124080000D01*
G75*
G02*
X129645000Y-124344367I0J-264367D01*
G01*
X129645000Y-125655633D01*
G75*
G02*
X129380633Y-125920000I-264367J0D01*
G01*
X127619367Y-125920000D01*
G75*
G02*
X127355000Y-125655633I0J264367D01*
G01*
X127355000Y-124344367D01*
G75*
G02*
X127619367Y-124080000I264367J0D01*
G01*
G37*
G04 #@! TD*
D14*
G04 #@! TO.C,H8*
X163000000Y-91000000D03*
G04 #@! TD*
G04 #@! TO.C,H7*
X163000000Y-121000000D03*
G04 #@! TD*
G04 #@! TO.C,H6*
X223000000Y-119000000D03*
G04 #@! TD*
G04 #@! TO.C,H5*
X223000000Y-91000000D03*
G04 #@! TD*
D17*
G04 #@! TO.C,J3*
X26950000Y-108300000D03*
X26950000Y-101700000D03*
D18*
X26950000Y-106200000D03*
X26950000Y-103800000D03*
D19*
X29400000Y-108200000D03*
X29400000Y-101800000D03*
G36*
G01*
X29012500Y-106050000D02*
X30237500Y-106050000D01*
G75*
G02*
X30350000Y-106162500I0J-112500D01*
G01*
X30350000Y-106837500D01*
G75*
G02*
X30237500Y-106950000I-112500J0D01*
G01*
X29012500Y-106950000D01*
G75*
G02*
X28900000Y-106837500I0J112500D01*
G01*
X28900000Y-106162500D01*
G75*
G02*
X29012500Y-106050000I112500J0D01*
G01*
G37*
G36*
G01*
X29025000Y-105400000D02*
X30225000Y-105400000D01*
G75*
G02*
X30350000Y-105525000I0J-125000D01*
G01*
X30350000Y-105775000D01*
G75*
G02*
X30225000Y-105900000I-125000J0D01*
G01*
X29025000Y-105900000D01*
G75*
G02*
X28900000Y-105775000I0J125000D01*
G01*
X28900000Y-105525000D01*
G75*
G02*
X29025000Y-105400000I125000J0D01*
G01*
G37*
G36*
G01*
X29025000Y-104750000D02*
X30225000Y-104750000D01*
G75*
G02*
X30350000Y-104875000I0J-125000D01*
G01*
X30350000Y-105125000D01*
G75*
G02*
X30225000Y-105250000I-125000J0D01*
G01*
X29025000Y-105250000D01*
G75*
G02*
X28900000Y-105125000I0J125000D01*
G01*
X28900000Y-104875000D01*
G75*
G02*
X29025000Y-104750000I125000J0D01*
G01*
G37*
G36*
G01*
X29025000Y-104100000D02*
X30225000Y-104100000D01*
G75*
G02*
X30350000Y-104225000I0J-125000D01*
G01*
X30350000Y-104475000D01*
G75*
G02*
X30225000Y-104600000I-125000J0D01*
G01*
X29025000Y-104600000D01*
G75*
G02*
X28900000Y-104475000I0J125000D01*
G01*
X28900000Y-104225000D01*
G75*
G02*
X29025000Y-104100000I125000J0D01*
G01*
G37*
G36*
G01*
X29012500Y-103050000D02*
X30237500Y-103050000D01*
G75*
G02*
X30350000Y-103162500I0J-112500D01*
G01*
X30350000Y-103837500D01*
G75*
G02*
X30237500Y-103950000I-112500J0D01*
G01*
X29012500Y-103950000D01*
G75*
G02*
X28900000Y-103837500I0J112500D01*
G01*
X28900000Y-103162500D01*
G75*
G02*
X29012500Y-103050000I112500J0D01*
G01*
G37*
G04 #@! TD*
G04 #@! TO.C,J2*
G36*
G01*
X90880633Y-114190000D02*
X89119367Y-114190000D01*
G75*
G02*
X88855000Y-113925633I0J264367D01*
G01*
X88855000Y-112614367D01*
G75*
G02*
X89119367Y-112350000I264367J0D01*
G01*
X90880633Y-112350000D01*
G75*
G02*
X91145000Y-112614367I0J-264367D01*
G01*
X91145000Y-113925633D01*
G75*
G02*
X90880633Y-114190000I-264367J0D01*
G01*
G37*
D16*
X90000000Y-110730000D03*
G04 #@! TD*
D14*
G04 #@! TO.C,H3*
X94000000Y-91000000D03*
G04 #@! TD*
G04 #@! TO.C,H2*
X40000000Y-117000000D03*
G04 #@! TD*
G04 #@! TO.C,H1*
X40000000Y-93000000D03*
G04 #@! TD*
D20*
G04 #@! TO.C,F1*
X80000000Y-109500000D03*
X80000000Y-114500000D03*
X68000000Y-109500000D03*
X68000000Y-114500000D03*
G04 #@! TD*
M02*
