M48
; DRILL file {KiCad (5.1.6-0-10_14)} date Wednesday, November 25, 2020 at 02:11:39 AM
; FORMAT={-:-/ absolute / metric / decimal}
; #@! TF.CreationDate,2020-11-25T02:11:39-05:00
; #@! TF.GenerationSoftware,Kicad,Pcbnew,(5.1.6-0-10_14)
; #@! TF.FileFunction,Plated,1,2,PTH
FMAT,2
METRIC
T1C0.300
T2C0.700
T3C0.800
T4C1.000
T5C1.100
T6C1.190
T7C1.200
T8C3.200
%
G90
G05
T1
X27.0Y-100.0
X27.0Y-110.0
X29.0Y-100.0
X29.0Y-110.0
X31.0Y-100.0
X31.0Y-101.5
X31.0Y-108.0
X31.0Y-110.0
X32.0Y-104.3
X32.0Y-105.1
X33.0Y-101.5
X33.0Y-106.0
X35.0Y-101.5
X35.0Y-106.0
X36.5Y-107.5
X37.0Y-101.5
X38.0Y-109.0
X39.0Y-101.5
X39.5Y-105.0
X39.5Y-110.5
X41.0Y-101.5
X41.0Y-106.5
X41.0Y-112.0
X42.5Y-103.0
X42.5Y-108.0
X42.5Y-113.5
X44.0Y-104.5
X44.0Y-109.5
X44.0Y-115.0
X45.5Y-106.0
X45.5Y-111.0
X45.5Y-116.5
X47.0Y-107.5
X47.0Y-112.5
X47.0Y-118.0
X48.5Y-109.0
X48.5Y-113.5
X48.5Y-119.5
X49.0Y-115.5
X50.0Y-110.5
X50.0Y-113.5
X50.0Y-121.0
X50.5Y-117.0
X52.0Y-110.5
X52.0Y-113.5
X52.0Y-118.5
X52.0Y-121.5
X54.0Y-110.5
X54.0Y-113.5
X54.0Y-118.5
X54.0Y-121.5
X56.0Y-110.5
X56.0Y-113.5
X56.0Y-118.5
X56.0Y-121.5
X58.0Y-110.5
X58.0Y-113.5
X58.0Y-118.5
X58.0Y-121.5
X60.0Y-110.5
X60.0Y-113.5
X60.0Y-118.5
X60.0Y-121.5
X62.0Y-110.5
X62.0Y-113.5
X62.0Y-118.5
X62.0Y-121.5
X64.0Y-118.5
X64.0Y-121.5
X66.0Y-118.5
X66.0Y-121.5
X68.0Y-118.5
X68.0Y-121.5
X70.0Y-118.5
X70.0Y-121.5
X72.0Y-118.5
X72.0Y-121.5
X74.0Y-118.5
X74.0Y-121.5
X76.0Y-118.5
X76.0Y-121.5
X78.0Y-118.5
X78.0Y-121.5
X80.0Y-118.5
X80.0Y-121.5
X82.0Y-118.5
X82.0Y-121.5
X84.0Y-110.0
X84.0Y-114.0
X84.0Y-118.5
X84.0Y-121.5
X86.0Y-118.5
X86.0Y-121.5
X88.0Y-118.5
X88.0Y-121.5
X90.0Y-118.5
X90.0Y-121.5
X92.0Y-118.5
X92.0Y-121.5
X94.0Y-115.5
X94.0Y-118.5
X94.0Y-121.5
X96.0Y-115.5
X96.0Y-118.5
X96.0Y-121.5
X98.0Y-115.5
X98.0Y-118.5
X98.0Y-121.5
X100.0Y-115.5
X100.0Y-118.5
X100.0Y-121.5
X102.0Y-115.5
X102.0Y-118.5
X102.0Y-121.5
X104.0Y-115.5
X104.0Y-118.5
X104.0Y-121.5
X106.0Y-115.5
X106.0Y-118.5
X106.0Y-121.5
X108.0Y-115.5
X108.0Y-118.5
X108.0Y-121.5
X110.0Y-115.5
X110.0Y-118.5
X110.0Y-121.5
X112.0Y-115.5
X112.0Y-118.5
X112.0Y-121.5
X114.0Y-115.5
X114.0Y-118.5
X114.0Y-121.5
X116.0Y-115.5
X116.0Y-118.5
X116.0Y-121.5
X118.0Y-115.5
X118.0Y-118.5
X118.0Y-121.5
X120.0Y-115.5
X120.0Y-118.5
X120.0Y-121.5
X122.0Y-115.5
X122.0Y-118.5
X122.0Y-121.5
X124.0Y-115.5
X124.0Y-118.5
X124.0Y-121.5
X126.0Y-115.5
X126.0Y-118.5
X126.0Y-121.5
X128.0Y-115.5
X128.0Y-118.5
X128.0Y-121.5
X130.0Y-115.5
X130.0Y-118.5
X130.0Y-121.5
X130.0Y-126.5
X132.0Y-115.5
X132.0Y-118.5
X132.0Y-121.5
X132.0Y-126.5
X132.0Y-129.5
X134.0Y-115.5
X134.0Y-126.5
X134.0Y-129.5
X136.0Y-115.5
X136.0Y-118.5
X136.0Y-121.5
X136.0Y-126.5
X136.0Y-129.5
X138.0Y-118.5
X138.0Y-121.5
X138.0Y-126.5
X138.0Y-129.5
X140.0Y-126.5
X140.0Y-129.5
X142.0Y-115.5
X142.0Y-126.5
X142.0Y-130.5
X143.0Y-123.0
X143.5Y-127.5
X143.5Y-132.0
X144.0Y-115.5
X144.0Y-124.0
X144.0Y-126.0
X145.0Y-129.0
X145.0Y-133.5
X146.0Y-115.5
X146.0Y-124.0
X146.0Y-126.0
X146.5Y-130.5
X146.5Y-135.0
X148.0Y-115.5
X148.0Y-124.0
X148.0Y-126.0
X148.0Y-132.0
X148.0Y-135.0
X150.0Y-124.0
X150.0Y-126.0
X150.0Y-132.0
X150.0Y-135.0
X151.5Y-118.5
X152.0Y-121.5
X152.0Y-124.0
X152.0Y-128.0
X152.0Y-132.0
X152.0Y-135.0
X153.5Y-118.5
X154.0Y-121.5
X154.0Y-124.0
X154.0Y-128.0
X154.0Y-132.0
X154.0Y-135.0
X155.0Y-113.0
X155.0Y-117.0
X155.5Y-120.0
X155.5Y-123.0
X156.0Y-128.0
X156.0Y-132.0
X156.0Y-135.0
X156.5Y-111.5
X156.5Y-115.5
X157.0Y-118.5
X157.0Y-121.5
X158.0Y-110.0
X158.0Y-114.0
X158.0Y-128.0
X158.0Y-132.0
X158.0Y-135.0
X158.5Y-117.0
X158.5Y-120.0
X159.5Y-108.5
X159.5Y-112.5
X160.0Y-115.5
X160.0Y-118.5
X160.0Y-128.0
X160.0Y-132.0
X160.0Y-135.0
X161.0Y-107.0
X161.0Y-111.0
X161.5Y-114.0
X161.5Y-117.0
X162.0Y-128.0
X162.0Y-132.0
X162.0Y-135.0
X162.5Y-105.5
X162.5Y-109.5
X163.0Y-112.5
X163.0Y-116.0
X164.0Y-104.0
X164.0Y-108.0
X164.0Y-128.0
X164.0Y-132.0
X164.0Y-135.0
X164.5Y-111.0
X165.0Y-114.0
X165.0Y-116.0
X165.5Y-102.5
X165.5Y-106.5
X166.0Y-109.5
X166.0Y-128.0
X166.0Y-132.0
X166.0Y-135.0
X167.0Y-101.0
X167.0Y-105.0
X167.0Y-114.0
X167.0Y-116.0
X167.5Y-108.0
X168.0Y-128.0
X168.0Y-132.0
X168.0Y-135.0
X168.5Y-99.5
X168.5Y-103.5
X169.0Y-106.5
X170.0Y-98.0
X170.0Y-102.0
X170.0Y-128.0
X170.0Y-132.0
X170.0Y-135.0
X170.5Y-103.5
X170.5Y-106.5
X170.5Y-108.5
X171.0Y-112.0
X171.0Y-114.0
X171.0Y-116.0
X171.5Y-96.5
X171.5Y-100.5
X172.0Y-128.0
X172.0Y-132.0
X172.0Y-135.0
X172.5Y-103.5
X172.5Y-106.5
X172.5Y-108.5
X172.5Y-110.5
X173.0Y-116.0
X174.0Y-128.0
X174.0Y-132.0
X174.0Y-135.0
X174.5Y-108.5
X174.5Y-110.5
X175.0Y-116.0
X176.0Y-128.0
X176.0Y-132.0
X176.0Y-135.0
X176.5Y-123.0
X177.0Y-107.0
X177.0Y-116.0
X178.0Y-128.0
X178.0Y-132.0
X178.0Y-135.0
X178.5Y-117.5
X178.5Y-126.7
X179.0Y-107.0
X179.0Y-109.0
X179.0Y-116.0
X180.0Y-132.0
X180.0Y-135.0
X181.0Y-107.0
X181.0Y-109.0
X182.0Y-132.0
X182.0Y-135.0
X183.0Y-107.0
X183.0Y-109.0
X184.0Y-123.0
X184.0Y-128.5
X184.0Y-132.0
X184.0Y-135.0
X185.0Y-107.0
X185.0Y-109.0
X186.0Y-117.5
X186.0Y-126.7
X186.0Y-128.5
X186.0Y-132.0
X186.0Y-135.0
X187.0Y-107.0
X187.0Y-109.0
X188.0Y-132.0
X188.0Y-135.0
X189.0Y-107.0
X189.0Y-109.0
X190.0Y-129.5
X190.0Y-132.0
X190.0Y-135.0
X191.0Y-107.0
X191.0Y-109.0
X191.5Y-123.0
X192.0Y-129.5
X192.0Y-132.0
X192.0Y-135.0
X193.0Y-107.0
X193.0Y-109.0
X193.5Y-117.5
X193.5Y-126.7
X194.0Y-132.0
X194.0Y-135.0
X195.0Y-107.0
X195.0Y-109.0
X196.0Y-131.0
X196.0Y-135.0
X197.0Y-107.0
X197.0Y-109.0
X197.5Y-129.5
X197.5Y-135.0
X199.0Y-107.0
X199.0Y-109.0
X199.0Y-116.0
X199.0Y-119.0
X199.0Y-128.0
X199.0Y-133.5
X200.5Y-126.5
X200.5Y-132.0
X201.0Y-107.0
X201.0Y-109.0
X201.0Y-116.0
X201.0Y-119.0
X202.0Y-125.0
X202.0Y-130.5
X203.0Y-107.0
X203.0Y-109.0
X203.0Y-116.0
X203.0Y-119.0
X203.5Y-123.5
X203.5Y-129.0
X205.0Y-107.0
X205.0Y-109.0
X205.0Y-116.0
X205.0Y-119.0
X205.0Y-122.0
X205.0Y-127.5
X206.5Y-120.5
X206.5Y-126.0
X207.0Y-107.0
X207.0Y-109.0
X207.0Y-116.0
X208.0Y-119.0
X208.0Y-124.5
X209.0Y-107.0
X209.0Y-109.0
X209.5Y-117.5
X209.5Y-123.0
X211.0Y-107.0
X211.0Y-109.0
X211.0Y-116.0
X211.0Y-121.5
X212.5Y-114.5
X212.5Y-120.0
X213.0Y-107.0
X213.0Y-109.0
X214.0Y-118.5
X215.0Y-107.0
X215.0Y-109.0
X215.5Y-117.0
X217.0Y-107.0
X217.0Y-116.0
X219.0Y-116.0
T3
X134.0Y-117.0
X174.02Y-103.73
X174.02Y-106.27
T4
X171.5Y-120.0
X174.0Y-120.0
T5
X173.29Y-97.38
X173.29Y-112.62
X175.83Y-97.38
X175.83Y-112.62
X178.37Y-97.38
X178.37Y-112.62
X180.91Y-97.38
X180.91Y-112.62
X183.45Y-97.38
X183.45Y-112.62
X185.99Y-97.38
X185.99Y-112.62
X188.53Y-97.38
X188.53Y-112.62
X191.07Y-97.38
X191.07Y-112.62
X193.61Y-97.38
X193.61Y-112.62
X196.15Y-97.38
X196.15Y-112.62
X198.69Y-97.38
X198.69Y-112.62
X201.23Y-97.38
X201.23Y-112.62
X203.77Y-97.38
X203.77Y-112.62
X206.31Y-97.38
X206.31Y-112.62
X208.85Y-97.38
X208.85Y-112.62
X211.39Y-97.38
X211.39Y-112.62
X213.93Y-97.38
X213.93Y-112.62
X216.47Y-97.38
X216.47Y-112.62
X219.01Y-97.38
X219.01Y-99.92
X219.01Y-102.46
X219.01Y-105.0
X219.01Y-107.54
X219.01Y-110.08
X219.01Y-112.62
X221.55Y-97.38
X221.55Y-112.62
X224.09Y-97.38
X224.09Y-112.62
X226.63Y-97.38
X226.63Y-112.62
X229.17Y-97.38
X229.17Y-112.62
X231.71Y-97.38
X231.71Y-112.62
T6
X90.0Y-110.73
X90.0Y-113.27
X128.5Y-125.0
X128.5Y-127.54
X128.5Y-130.08
X128.5Y-132.62
T7
X68.0Y-109.5
X68.0Y-114.5
X80.0Y-109.5
X80.0Y-114.5
T8
X163.0Y-91.0
X223.0Y-91.0
X163.0Y-121.0
X94.0Y-91.0
X223.0Y-119.0
X65.0Y-131.0
X40.0Y-117.0
X40.0Y-93.0
T2
G00X27.2Y-101.7
M15
G01X26.7Y-101.7
M16
G05
G00X27.2Y-108.3
M15
G01X26.7Y-108.3
M16
G05
T0
M30
