G04 #@! TF.GenerationSoftware,KiCad,Pcbnew,(5.1.6-0-10_14)*
G04 #@! TF.CreationDate,2020-11-25T02:11:22-05:00*
G04 #@! TF.ProjectId,power board,706f7765-7220-4626-9f61-72642e6b6963,0.1.0*
G04 #@! TF.SameCoordinates,Original*
G04 #@! TF.FileFunction,Profile,NP*
%FSLAX46Y46*%
G04 Gerber Fmt 4.6, Leading zero omitted, Abs format (unit mm)*
G04 Created by KiCad (PCBNEW (5.1.6-0-10_14)) date 2020-11-25 02:11:22*
%MOMM*%
%LPD*%
G01*
G04 APERTURE LIST*
G04 #@! TA.AperFunction,Profile*
%ADD10C,0.050000*%
G04 #@! TD*
G04 APERTURE END LIST*
D10*
X154000000Y-111000000D02*
X103000000Y-111000000D01*
X159000000Y-106000000D02*
G75*
G02*
X154000000Y-111000000I-5000000J0D01*
G01*
X103000000Y-111000000D02*
G75*
G02*
X98000000Y-106000000I0J5000000D01*
G01*
X159000000Y-91000000D02*
X159000000Y-106000000D01*
X159000000Y-91000000D02*
G75*
G02*
X163000000Y-87000000I4000000J0D01*
G01*
X98000000Y-91000000D02*
X98000000Y-106000000D01*
X94000000Y-87000000D02*
G75*
G02*
X98000000Y-91000000I0J-4000000D01*
G01*
X29000000Y-97000000D02*
G75*
G02*
X28000000Y-98000000I-1000000J0D01*
G01*
X25500000Y-99000000D02*
G75*
G02*
X26500000Y-98000000I1000000J0D01*
G01*
X28000000Y-112000000D02*
X26500000Y-112000000D01*
X26500000Y-112000000D02*
G75*
G02*
X25500000Y-111000000I0J1000000D01*
G01*
X28000000Y-112000000D02*
G75*
G02*
X29000000Y-113000000I0J-1000000D01*
G01*
X34000000Y-123000000D02*
G75*
G02*
X29000000Y-118000000I0J5000000D01*
G01*
X29000000Y-92000000D02*
G75*
G02*
X34000000Y-87000000I5000000J0D01*
G01*
X44999999Y-123000001D02*
G75*
G02*
X47000000Y-125000000I1J-2000000D01*
G01*
X52000000Y-138000000D02*
G75*
G02*
X47000000Y-133000000I0J5000000D01*
G01*
X210000000Y-133000000D02*
G75*
G02*
X205000000Y-138000000I-5000000J0D01*
G01*
X210000001Y-125000001D02*
G75*
G02*
X212000000Y-123000000I2000000J1D01*
G01*
X227000000Y-119000000D02*
G75*
G02*
X223000000Y-123000000I-4000000J0D01*
G01*
X226999999Y-115800000D02*
G75*
G02*
X229000000Y-113799999I2000001J0D01*
G01*
X233000000Y-112800000D02*
G75*
G02*
X232000000Y-113800000I-1000000J0D01*
G01*
X232000000Y-96200000D02*
G75*
G02*
X233000000Y-97200000I0J-1000000D01*
G01*
X229000000Y-96200000D02*
G75*
G02*
X227000000Y-94200000I0J2000000D01*
G01*
X223000000Y-87000000D02*
G75*
G02*
X227000000Y-91000000I0J-4000000D01*
G01*
X205000000Y-138000000D02*
X52000000Y-138000000D01*
X210000001Y-125000001D02*
X210000000Y-133000000D01*
X223000000Y-123000000D02*
X212000000Y-123000000D01*
X226999999Y-115800000D02*
X227000000Y-119000000D01*
X232000000Y-113800000D02*
X229000000Y-113800000D01*
X233000000Y-97200000D02*
X233000000Y-112800000D01*
X229000000Y-96200000D02*
X232000000Y-96200000D01*
X227000000Y-91000000D02*
X227000000Y-94200000D01*
X163000000Y-87000000D02*
X223000000Y-87000000D01*
X29000000Y-97000000D02*
X29000000Y-92000000D01*
X26500000Y-98000000D02*
X28000000Y-98000000D01*
X25500000Y-111000000D02*
X25500000Y-99000000D01*
X29000000Y-118000000D02*
X29000000Y-113000000D01*
X44999999Y-123000001D02*
X34000000Y-123000000D01*
X47000000Y-133000000D02*
X47000000Y-125000000D01*
X34000000Y-87000000D02*
X94000000Y-87000000D01*
M02*
